Gruppo.ufo
<glyph name="exclam" format="1">
  <advance width="330"/>
  <unicode hex="0021"/>
  <outline>
    <contour>
      <point x="108" y="1065" type="curve"/>
      <point x="108" y="1098"/>
      <point x="136" y="1110"/>
      <point x="164" y="1110" type="curve" smooth="yes"/>
      <point x="193" y="1110"/>
      <point x="221" y="1095"/>
      <point x="221" y="1063" type="curve"/>
      <point x="189" y="250" type="line" smooth="yes"/>
      <point x="188" y="231"/>
      <point x="177" y="221"/>
      <point x="164" y="221" type="curve" smooth="yes"/>
      <point x="152" y="221"/>
      <point x="141" y="231"/>
      <point x="140" y="250" type="curve" smooth="yes"/>
      <point x="108" y="1063"/>
      <point x="108" y="1064"/>
    </contour>
    <contour>
      <point x="108" y="46" type="curve" smooth="yes"/>
      <point x="108" y="81"/>
      <point x="131" y="105"/>
      <point x="166" y="105" type="curve" smooth="yes"/>
      <point x="199" y="105"/>
      <point x="226" y="81"/>
      <point x="226" y="46" type="curve" smooth="yes"/>
      <point x="226" y="13"/>
      <point x="199" y="-10"/>
      <point x="166" y="-10" type="curve" smooth="yes"/>
      <point x="131" y="-10"/>
      <point x="108" y="13"/>
    </contour>
  </outline>
</glyph>
<glyph name="dollar" format="1">
  <advance width="1523"/>
  <unicode hex="0024"/>
  <outline>
    <contour>
      <point x="1427" y="311" type="curve" smooth="yes"/>
      <point x="1427" y="78"/>
      <point x="1186" y="-4"/>
      <point x="913" y="-18" type="curve"/>
      <point x="913" y="-63" type="line" smooth="yes"/>
      <point x="913" y="-102"/>
      <point x="913" y="-133"/>
      <point x="878" y="-133" type="curve" smooth="yes"/>
      <point x="841" y="-133"/>
      <point x="841" y="-103"/>
      <point x="841" y="-71" type="curve" smooth="yes"/>
      <point x="841" y="-20" type="line"/>
      <point x="829" y="-20" type="line" smooth="yes"/>
      <point x="782" y="-20"/>
      <point x="735" y="-18"/>
      <point x="688" y="-15" type="curve"/>
      <point x="688" y="-63" type="line" smooth="yes"/>
      <point x="688" y="-102"/>
      <point x="688" y="-133"/>
      <point x="653" y="-133" type="curve" smooth="yes"/>
      <point x="616" y="-133"/>
      <point x="616" y="-103"/>
      <point x="616" y="-71" type="curve" smooth="yes"/>
      <point x="616" y="-9" type="line"/>
      <point x="407" y="11"/>
      <point x="220" y="56"/>
      <point x="149" y="90" type="curve" smooth="yes"/>
      <point x="130" y="99"/>
      <point x="122" y="114"/>
      <point x="122" y="129" type="curve" smooth="yes"/>
      <point x="122" y="145"/>
      <point x="131" y="158"/>
      <point x="148" y="158" type="curve" smooth="yes"/>
      <point x="152" y="158"/>
      <point x="157" y="157"/>
      <point x="162" y="155" type="curve" smooth="yes"/>
      <point x="237" y="124"/>
      <point x="418" y="80"/>
      <point x="616" y="59" type="curve"/>
      <point x="616" y="551" type="line"/>
      <point x="349" y="569"/>
      <point x="110" y="610"/>
      <point x="110" y="815" type="curve" smooth="yes"/>
      <point x="110" y="1043"/>
      <point x="350" y="1118"/>
      <point x="616" y="1132" type="curve"/>
      <point x="616" y="1230" type="line" smooth="yes"/>
      <point x="616" y="1265"/>
      <point x="616" y="1296"/>
      <point x="653" y="1296" type="curve" smooth="yes"/>
      <point x="688" y="1296"/>
      <point x="688" y="1262"/>
      <point x="688" y="1227" type="curve" smooth="yes"/>
      <point x="688" y="1135" type="line"/>
      <point x="716" y="1135" type="line" smooth="yes"/>
      <point x="758" y="1135"/>
      <point x="800" y="1133"/>
      <point x="841" y="1130" type="curve"/>
      <point x="841" y="1230" type="line" smooth="yes"/>
      <point x="841" y="1265"/>
      <point x="841" y="1296"/>
      <point x="878" y="1296" type="curve" smooth="yes"/>
      <point x="913" y="1296"/>
      <point x="913" y="1262"/>
      <point x="913" y="1227" type="curve" smooth="yes"/>
      <point x="913" y="1125" type="line"/>
      <point x="1085" y="1108"/>
      <point x="1236" y="1071"/>
      <point x="1311" y="1036" type="curve" smooth="yes"/>
      <point x="1322" y="1031"/>
      <point x="1327" y="1020"/>
      <point x="1327" y="1009" type="curve" smooth="yes"/>
      <point x="1327" y="990"/>
      <point x="1314" y="971"/>
      <point x="1291" y="971" type="curve" smooth="yes"/>
      <point x="1285" y="971"/>
      <point x="1279" y="972"/>
      <point x="1274" y="975" type="curve"/>
      <point x="1178" y="1014"/>
      <point x="1049" y="1044"/>
      <point x="913" y="1058" type="curve"/>
      <point x="913" y="610" type="line"/>
      <point x="1183" y="587"/>
      <point x="1427" y="534"/>
    </contour>
    <contour>
      <point x="1342" y="311" type="curve" smooth="yes"/>
      <point x="1342" y="477"/>
      <point x="1147" y="517"/>
      <point x="913" y="534" type="curve"/>
      <point x="913" y="47" type="line"/>
      <point x="1149" y="58"/>
      <point x="1342" y="127"/>
    </contour>
    <contour>
      <point x="195" y="821" type="curve" smooth="yes"/>
      <point x="195" y="677"/>
      <point x="385" y="645"/>
      <point x="616" y="629" type="curve"/>
      <point x="616" y="1066" type="line"/>
      <point x="384" y="1052"/>
      <point x="195" y="987"/>
    </contour>
    <contour>
      <point x="841" y="46" type="curve"/>
      <point x="841" y="539" type="line"/>
      <point x="790" y="542"/>
      <point x="739" y="545"/>
      <point x="688" y="547" type="curve"/>
      <point x="688" y="52" type="line"/>
      <point x="739" y="48"/>
      <point x="790" y="46"/>
    </contour>
    <contour>
      <point x="720" y="1069" type="curve" smooth="yes"/>
      <point x="709" y="1069"/>
      <point x="698" y="1068"/>
      <point x="688" y="1068" type="curve"/>
      <point x="688" y="624" type="line"/>
      <point x="738" y="621"/>
      <point x="789" y="619"/>
      <point x="841" y="615" type="curve"/>
      <point x="841" y="1065" type="line"/>
      <point x="800" y="1067"/>
      <point x="760" y="1069"/>
    </contour>
  </outline>
</glyph>
<glyph name="percent" format="1">
  <advance width="1268"/>
  <unicode hex="0025"/>
  <outline>
    <contour>
      <point x="360" y="46" type="line" smooth="yes"/>
      <point x="343" y="19"/>
      <point x="331" y="-2"/>
      <point x="311" y="-2" type="curve" smooth="yes"/>
      <point x="283" y="-2"/>
      <point x="275" y="20"/>
      <point x="275" y="32" type="curve" smooth="yes"/>
      <point x="275" y="52"/>
      <point x="284" y="62"/>
      <point x="295" y="80" type="curve" smooth="yes"/>
      <point x="906" y="1075" type="line" smooth="yes"/>
      <point x="921" y="1100"/>
      <point x="932" y="1124"/>
      <point x="956" y="1124" type="curve" smooth="yes"/>
      <point x="985" y="1124"/>
      <point x="992" y="1107"/>
      <point x="992" y="1094" type="curve" smooth="yes"/>
      <point x="992" y="1075"/>
      <point x="983" y="1058"/>
      <point x="973" y="1042" type="curve" smooth="yes"/>
    </contour>
    <contour>
      <point x="707" y="347" type="curve" smooth="yes"/>
      <point x="707" y="478"/>
      <point x="821" y="589"/>
      <point x="961" y="589" type="curve" smooth="yes"/>
      <point x="1100" y="589"/>
      <point x="1213" y="478"/>
      <point x="1213" y="347" type="curve" smooth="yes"/>
      <point x="1213" y="215"/>
      <point x="1100" y="106"/>
      <point x="961" y="106" type="curve" smooth="yes"/>
      <point x="821" y="106"/>
      <point x="707" y="215"/>
    </contour>
    <contour>
      <point x="777" y="345" type="curve" smooth="yes"/>
      <point x="777" y="249"/>
      <point x="857" y="169"/>
      <point x="961" y="169" type="curve" smooth="yes"/>
      <point x="1061" y="169"/>
      <point x="1143" y="249"/>
      <point x="1143" y="345" type="curve" smooth="yes"/>
      <point x="1143" y="442"/>
      <point x="1061" y="522"/>
      <point x="961" y="522" type="curve" smooth="yes"/>
      <point x="857" y="522"/>
      <point x="777" y="442"/>
    </contour>
    <contour>
      <point x="60" y="803" type="curve" smooth="yes"/>
      <point x="60" y="934"/>
      <point x="173" y="1045"/>
      <point x="312" y="1045" type="curve" smooth="yes"/>
      <point x="451" y="1045"/>
      <point x="564" y="934"/>
      <point x="564" y="803" type="curve" smooth="yes"/>
      <point x="564" y="671"/>
      <point x="451" y="562"/>
      <point x="312" y="562" type="curve" smooth="yes"/>
      <point x="173" y="562"/>
      <point x="60" y="671"/>
    </contour>
    <contour>
      <point x="128" y="801" type="curve" smooth="yes"/>
      <point x="128" y="705"/>
      <point x="212" y="625"/>
      <point x="312" y="625" type="curve" smooth="yes"/>
      <point x="412" y="625"/>
      <point x="494" y="705"/>
      <point x="494" y="801" type="curve" smooth="yes"/>
      <point x="494" y="898"/>
      <point x="412" y="978"/>
      <point x="312" y="978" type="curve" smooth="yes"/>
      <point x="212" y="978"/>
      <point x="128" y="898"/>
    </contour>
  </outline>
</glyph>
<glyph name="quotesingle" format="1">
  <advance width="246"/>
  <unicode hex="0027"/>
  <outline>
    <contour>
      <point x="85" y="1004" type="line" smooth="yes"/>
      <point x="79" y="1051"/>
      <point x="75" y="1098"/>
      <point x="74" y="1099" type="curve"/>
      <point x="74" y="1123"/>
      <point x="96" y="1135"/>
      <point x="123" y="1135" type="curve" smooth="yes"/>
      <point x="150" y="1135"/>
      <point x="171" y="1123"/>
      <point x="171" y="1099" type="curve"/>
      <point x="169" y="1098"/>
      <point x="165" y="1051"/>
      <point x="160" y="1004" type="curve" smooth="yes"/>
      <point x="149" y="910" type="line" smooth="yes"/>
      <point x="147" y="895"/>
      <point x="135" y="889"/>
      <point x="123" y="889" type="curve" smooth="yes"/>
      <point x="111" y="889"/>
      <point x="97" y="895"/>
      <point x="97" y="910" type="curve"/>
    </contour>
  </outline>
</glyph>
<glyph name="parenleft" format="1">
  <advance width="444"/>
  <unicode hex="0028"/>
  <outline>
    <contour>
      <point x="70" y="551" type="curve" smooth="yes"/>
      <point x="70" y="917"/>
      <point x="189" y="1281"/>
      <point x="481" y="1281" type="curve" smooth="yes"/>
      <point x="503" y="1281"/>
      <point x="514" y="1265"/>
      <point x="514" y="1249" type="curve" smooth="yes"/>
      <point x="514" y="1233"/>
      <point x="503" y="1217"/>
      <point x="481" y="1217" type="curve" smooth="yes"/>
      <point x="238" y="1217"/>
      <point x="148" y="885"/>
      <point x="148" y="552" type="curve" smooth="yes"/>
      <point x="148" y="219"/>
      <point x="238" y="-113"/>
      <point x="481" y="-113" type="curve" smooth="yes"/>
      <point x="503" y="-113"/>
      <point x="514" y="-129"/>
      <point x="514" y="-145" type="curve" smooth="yes"/>
      <point x="514" y="-161"/>
      <point x="503" y="-177"/>
      <point x="481" y="-177" type="curve" smooth="yes"/>
      <point x="189" y="-177"/>
      <point x="70" y="185"/>
    </contour>
  </outline>
</glyph>
<glyph name="parenright" format="1">
  <advance width="444"/>
  <unicode hex="0029"/>
  <outline>
    <contour>
      <point x="374" y="551" type="curve" smooth="yes"/>
      <point x="374" y="185"/>
      <point x="255" y="-177"/>
      <point x="-37" y="-177" type="curve" smooth="yes"/>
      <point x="-59" y="-177"/>
      <point x="-70" y="-161"/>
      <point x="-70" y="-145" type="curve" smooth="yes"/>
      <point x="-70" y="-129"/>
      <point x="-59" y="-113"/>
      <point x="-37" y="-113" type="curve" smooth="yes"/>
      <point x="206" y="-113"/>
      <point x="296" y="219"/>
      <point x="296" y="552" type="curve" smooth="yes"/>
      <point x="296" y="885"/>
      <point x="206" y="1217"/>
      <point x="-37" y="1217" type="curve" smooth="yes"/>
      <point x="-59" y="1217"/>
      <point x="-70" y="1233"/>
      <point x="-70" y="1249" type="curve" smooth="yes"/>
      <point x="-70" y="1265"/>
      <point x="-59" y="1281"/>
      <point x="-37" y="1281" type="curve" smooth="yes"/>
      <point x="255" y="1281"/>
      <point x="374" y="917"/>
    </contour>
  </outline>
</glyph>
<glyph name="asterisk" format="1">
  <advance width="868"/>
  <unicode hex="002A"/>
  <outline>
    <contour>
      <point x="542" y="979" type="line" smooth="yes"/>
      <point x="552" y="1001"/>
      <point x="562" y="1018"/>
      <point x="578" y="1018" type="curve" smooth="yes"/>
      <point x="602" y="1018"/>
      <point x="619" y="999"/>
      <point x="619" y="987" type="curve" smooth="yes"/>
      <point x="619" y="976"/>
      <point x="612" y="964"/>
      <point x="605" y="949" type="curve" smooth="yes"/>
      <point x="480" y="699" type="line"/>
      <point x="746" y="705" type="line" smooth="yes"/>
      <point x="750" y="705"/>
      <point x="753" y="705"/>
      <point x="757" y="705" type="curve" smooth="yes"/>
      <point x="785" y="705"/>
      <point x="802" y="700"/>
      <point x="802" y="669" type="curve" smooth="yes"/>
      <point x="802" y="639"/>
      <point x="785" y="634"/>
      <point x="759" y="634" type="curve" smooth="yes"/>
      <point x="756" y="634"/>
      <point x="752" y="634"/>
      <point x="749" y="634" type="curve" smooth="yes"/>
      <point x="485" y="641" type="line"/>
      <point x="627" y="406" type="line" smooth="yes"/>
      <point x="636" y="390"/>
      <point x="641" y="377"/>
      <point x="643" y="366" type="curve"/>
      <point x="643" y="353"/>
      <point x="623" y="334"/>
      <point x="603" y="334" type="curve" smooth="yes"/>
      <point x="587" y="334"/>
      <point x="577" y="349"/>
      <point x="565" y="371" type="curve" smooth="yes"/>
      <point x="436" y="606" type="line"/>
      <point x="325" y="362" type="line" smooth="yes"/>
      <point x="314" y="338"/>
      <point x="306" y="322"/>
      <point x="290" y="322" type="curve" smooth="yes"/>
      <point x="263" y="322"/>
      <point x="248" y="343"/>
      <point x="248" y="354" type="curve" smooth="yes"/>
      <point x="248" y="364"/>
      <point x="254" y="376"/>
      <point x="262" y="391" type="curve" smooth="yes"/>
      <point x="387" y="641" type="line"/>
      <point x="121" y="635" type="line" smooth="yes"/>
      <point x="116" y="635"/>
      <point x="112" y="635"/>
      <point x="108" y="635" type="curve" smooth="yes"/>
      <point x="80" y="635"/>
      <point x="65" y="639"/>
      <point x="65" y="671" type="curve" smooth="yes"/>
      <point x="65" y="705"/>
      <point x="87" y="707"/>
      <point x="119" y="707" type="curve"/>
      <point x="381" y="699" type="line"/>
      <point x="240" y="934" type="line" smooth="yes"/>
      <point x="230" y="950"/>
      <point x="225" y="962"/>
      <point x="224" y="973" type="curve" smooth="yes"/>
      <point x="224" y="983"/>
      <point x="240" y="1006"/>
      <point x="264" y="1006" type="curve" smooth="yes"/>
      <point x="280" y="1006"/>
      <point x="289" y="992"/>
      <point x="302" y="969" type="curve" smooth="yes"/>
      <point x="431" y="733" type="line"/>
    </contour>
  </outline>
</glyph>
<glyph name="plus" format="1">
  <advance width="797"/>
  <unicode hex="002B"/>
  <outline>
    <contour>
      <point x="368" y="511" type="line"/>
      <point x="368" y="742" type="line" smooth="yes"/>
      <point x="368" y="765"/>
      <point x="382" y="775"/>
      <point x="398" y="775" type="curve" smooth="yes"/>
      <point x="413" y="775"/>
      <point x="428" y="765"/>
      <point x="428" y="742" type="curve" smooth="yes"/>
      <point x="428" y="511" type="line"/>
      <point x="690" y="511" type="line" smooth="yes"/>
      <point x="715" y="511"/>
      <point x="726" y="498"/>
      <point x="726" y="483" type="curve" smooth="yes"/>
      <point x="726" y="470"/>
      <point x="715" y="457"/>
      <point x="690" y="457" type="curve" smooth="yes"/>
      <point x="428" y="457" type="line"/>
      <point x="428" y="224" type="line" smooth="yes"/>
      <point x="428" y="201"/>
      <point x="413" y="192"/>
      <point x="398" y="192" type="curve" smooth="yes"/>
      <point x="382" y="192"/>
      <point x="368" y="201"/>
      <point x="368" y="224" type="curve" smooth="yes"/>
      <point x="368" y="457" type="line"/>
      <point x="107" y="457" type="line" smooth="yes"/>
      <point x="82" y="457"/>
      <point x="71" y="470"/>
      <point x="71" y="483" type="curve" smooth="yes"/>
      <point x="71" y="498"/>
      <point x="82" y="511"/>
      <point x="107" y="511" type="curve" smooth="yes"/>
    </contour>
  </outline>
</glyph>
<glyph name="comma" format="1">
  <advance width="323"/>
  <unicode hex="002C"/>
  <outline>
    <contour>
      <point x="85" y="-88" type="line"/>
      <point x="134" y="-88"/>
      <point x="148" y="-60"/>
      <point x="148" y="-21" type="curve"/>
      <point x="126" y="-14"/>
      <point x="99" y="6"/>
      <point x="99" y="46" type="curve" smooth="yes"/>
      <point x="99" y="85"/>
      <point x="131" y="105"/>
      <point x="169" y="105" type="curve" smooth="yes"/>
      <point x="200" y="105"/>
      <point x="237" y="81"/>
      <point x="237" y="31" type="curve" smooth="yes"/>
      <point x="237" y="-37"/>
      <point x="187" y="-124"/>
      <point x="85" y="-124" type="curve"/>
    </contour>
  </outline>
</glyph>
<glyph name="hyphen" format="1">
  <advance width="603"/>
  <unicode hex="002D"/>
  <outline>
    <contour>
      <point x="481" y="518" type="line" smooth="yes"/>
      <point x="500" y="518"/>
      <point x="508" y="497"/>
      <point x="508" y="480" type="curve" smooth="yes"/>
      <point x="508" y="464"/>
      <point x="500" y="444"/>
      <point x="481" y="444" type="curve" smooth="yes"/>
      <point x="122" y="444" type="line" smooth="yes"/>
      <point x="103" y="444"/>
      <point x="95" y="464"/>
      <point x="95" y="480" type="curve" smooth="yes"/>
      <point x="95" y="497"/>
      <point x="103" y="518"/>
      <point x="122" y="518" type="curve" smooth="yes"/>
    </contour>
  </outline>
</glyph>
<glyph name="period" format="1">
  <advance width="312"/>
  <unicode hex="002E"/>
  <outline>
    <contour>
      <point x="93" y="52" type="curve" smooth="yes"/>
      <point x="93" y="90"/>
      <point x="118" y="117"/>
      <point x="157" y="117" type="curve" smooth="yes"/>
      <point x="193" y="117"/>
      <point x="223" y="90"/>
      <point x="223" y="52" type="curve" smooth="yes"/>
      <point x="223" y="15"/>
      <point x="193" y="-10"/>
      <point x="157" y="-10" type="curve" smooth="yes"/>
      <point x="118" y="-10"/>
      <point x="93" y="15"/>
    </contour>
  </outline>
</glyph>
<glyph name="slash" format="1">
  <advance width="602"/>
  <unicode hex="002F"/>
  <outline>
    <contour>
      <point x="131" y="4" type="line"/>
      <point x="116" y="-27"/>
      <point x="110" y="-53"/>
      <point x="86" y="-53" type="curve" smooth="yes"/>
      <point x="56" y="-53"/>
      <point x="49" y="-32"/>
      <point x="49" y="-17" type="curve"/>
      <point x="48" y="-3"/>
      <point x="55" y="9"/>
      <point x="61" y="25" type="curve" smooth="yes"/>
      <point x="471" y="1118" type="line"/>
      <point x="480" y="1149"/>
      <point x="489" y="1176"/>
      <point x="520" y="1176" type="curve" smooth="yes"/>
      <point x="548" y="1176"/>
      <point x="553" y="1158"/>
      <point x="553" y="1141" type="curve" smooth="yes"/>
      <point x="553" y="1127"/>
      <point x="548" y="1112"/>
      <point x="543" y="1098" type="curve" smooth="yes"/>
    </contour>
  </outline>
</glyph>
<glyph name="zero" format="1">
  <advance width="1060"/>
  <unicode hex="0030"/>
  <outline>
    <contour>
      <point x="892" y="557" type="curve" smooth="yes"/>
      <point x="892" y="905"/>
      <point x="822" y="1069"/>
      <point x="530" y="1069" type="curve" smooth="yes"/>
      <point x="242" y="1069"/>
      <point x="168" y="905"/>
      <point x="168" y="557" type="curve" smooth="yes"/>
      <point x="168" y="209"/>
      <point x="242" y="45"/>
      <point x="530" y="45" type="curve" smooth="yes"/>
      <point x="822" y="45"/>
      <point x="892" y="209"/>
    </contour>
    <contour>
      <point x="92" y="557" type="curve" smooth="yes"/>
      <point x="92" y="905"/>
      <point x="167" y="1135"/>
      <point x="530" y="1135" type="curve" smooth="yes"/>
      <point x="893" y="1135"/>
      <point x="968" y="905"/>
      <point x="968" y="557" type="curve" smooth="yes"/>
      <point x="968" y="209"/>
      <point x="893" y="-21"/>
      <point x="530" y="-21" type="curve" smooth="yes"/>
      <point x="167" y="-21"/>
      <point x="92" y="209"/>
    </contour>
  </outline>
</glyph>
<glyph name="one" format="1">
  <advance width="452"/>
  <unicode hex="0031"/>
  <outline>
    <contour>
      <point x="313" y="70" type="line" smooth="yes"/>
      <point x="313" y="35"/>
      <point x="316" y="0"/>
      <point x="280" y="0" type="curve" smooth="yes"/>
      <point x="241" y="0"/>
      <point x="241" y="35"/>
      <point x="241" y="70" type="curve" smooth="yes"/>
      <point x="241" y="1044" type="line"/>
      <point x="87" y="1044" type="line" smooth="yes"/>
      <point x="60" y="1044"/>
      <point x="24" y="1041"/>
      <point x="24" y="1073" type="curve" smooth="yes"/>
      <point x="24" y="1114"/>
      <point x="64" y="1114"/>
      <point x="85" y="1114" type="curve" smooth="yes"/>
      <point x="278" y="1114" type="line" smooth="yes"/>
      <point x="317" y="1114"/>
      <point x="313" y="1076"/>
      <point x="313" y="1044" type="curve" smooth="yes"/>
    </contour>
  </outline>
</glyph>
<glyph name="two" format="1">
  <advance width="925"/>
  <unicode hex="0032"/>
  <outline>
    <contour>
      <point x="447" y="1065" type="curve" smooth="yes"/>
      <point x="330" y="1065"/>
      <point x="230" y="1038"/>
      <point x="155" y="1015" type="curve" smooth="yes"/>
      <point x="146" y="1012"/>
      <point x="138" y="1010"/>
      <point x="129" y="1010" type="curve" smooth="yes"/>
      <point x="106" y="1010"/>
      <point x="93" y="1021"/>
      <point x="93" y="1036" type="curve" smooth="yes"/>
      <point x="93" y="1087"/>
      <point x="298" y="1134"/>
      <point x="447" y="1134" type="curve" smooth="yes"/>
      <point x="741" y="1134"/>
      <point x="857" y="1011"/>
      <point x="857" y="823" type="curve" smooth="yes"/>
      <point x="857" y="366"/>
      <point x="152" y="499"/>
      <point x="152" y="70" type="curve"/>
      <point x="752" y="70" type="line" smooth="yes"/>
      <point x="783" y="70"/>
      <point x="797" y="53"/>
      <point x="797" y="34" type="curve" smooth="yes"/>
      <point x="797" y="15"/>
      <point x="783" y="-2"/>
      <point x="752" y="-2" type="curve" smooth="yes"/>
      <point x="119" y="-2" type="line" smooth="yes"/>
      <point x="80" y="-2"/>
      <point x="80" y="18"/>
      <point x="80" y="70" type="curve" smooth="yes"/>
      <point x="80" y="541"/>
      <point x="783" y="446"/>
      <point x="783" y="823" type="curve" smooth="yes"/>
      <point x="783" y="996"/>
      <point x="654" y="1065"/>
    </contour>
  </outline>
</glyph>
<glyph name="three" format="1">
  <advance width="946"/>
  <unicode hex="0033"/>
  <outline>
    <contour>
      <point x="289" y="570" type="line" smooth="yes"/>
      <point x="265" y="570"/>
      <point x="254" y="586"/>
      <point x="254" y="602" type="curve" smooth="yes"/>
      <point x="254" y="618"/>
      <point x="265" y="634"/>
      <point x="289" y="634" type="curve" smooth="yes"/>
      <point x="431" y="634" type="line" smooth="yes"/>
      <point x="687" y="634"/>
      <point x="761" y="744"/>
      <point x="761" y="851" type="curve" smooth="yes"/>
      <point x="761" y="953"/>
      <point x="714" y="1065"/>
      <point x="455" y="1065" type="curve" smooth="yes"/>
      <point x="308" y="1065"/>
      <point x="153" y="1018"/>
      <point x="153" y="1016" type="curve"/>
      <point x="144" y="1013"/>
      <point x="136" y="1011"/>
      <point x="127" y="1011" type="curve" smooth="yes"/>
      <point x="104" y="1011"/>
      <point x="91" y="1022"/>
      <point x="91" y="1037" type="curve" smooth="yes"/>
      <point x="91" y="1088"/>
      <point x="296" y="1135"/>
      <point x="445" y="1135" type="curve" smooth="yes"/>
      <point x="764" y="1135"/>
      <point x="832" y="989"/>
      <point x="832" y="850" type="curve" smooth="yes"/>
      <point x="832" y="758"/>
      <point x="776" y="625"/>
      <point x="565" y="604" type="curve"/>
      <point x="778" y="575"/>
      <point x="859" y="464"/>
      <point x="859" y="307" type="curve" smooth="yes"/>
      <point x="859" y="122"/>
      <point x="760" y="-21"/>
      <point x="445" y="-21" type="curve" smooth="yes"/>
      <point x="287" y="-21"/>
      <point x="91" y="28"/>
      <point x="91" y="77" type="curve" smooth="yes"/>
      <point x="91" y="92"/>
      <point x="104" y="103"/>
      <point x="127" y="103" type="curve" smooth="yes"/>
      <point x="154" y="103"/>
      <point x="205" y="82"/>
      <point x="245" y="73" type="curve" smooth="yes"/>
      <point x="301" y="60"/>
      <point x="373" y="48"/>
      <point x="445" y="48" type="curve" smooth="yes"/>
      <point x="721" y="48"/>
      <point x="793" y="157"/>
      <point x="793" y="313" type="curve" smooth="yes"/>
      <point x="793" y="446"/>
      <point x="716" y="570"/>
      <point x="431" y="570" type="curve" smooth="yes"/>
    </contour>
  </outline>
</glyph>
<glyph name="four" format="1">
  <advance width="1058"/>
  <unicode hex="0034"/>
  <outline>
    <contour>
      <point x="1044" y="381" type="curve" smooth="yes"/>
      <point x="1044" y="352"/>
      <point x="1007" y="347"/>
      <point x="962" y="347" type="curve" smooth="yes"/>
      <point x="942" y="347"/>
      <point x="919" y="348"/>
      <point x="898" y="348" type="curve" smooth="yes"/>
      <point x="753" y="348" type="line"/>
      <point x="753" y="70" type="line" smooth="yes"/>
      <point x="753" y="35"/>
      <point x="753" y="0"/>
      <point x="718" y="0" type="curve" smooth="yes"/>
      <point x="679" y="0"/>
      <point x="681" y="35"/>
      <point x="681" y="70" type="curve" smooth="yes"/>
      <point x="681" y="348" type="line"/>
      <point x="173" y="348" type="line" smooth="yes"/>
      <point x="100" y="348"/>
      <point x="100" y="383"/>
      <point x="100" y="418" type="curve" smooth="yes"/>
      <point x="100" y="1047" type="line" smooth="yes"/>
      <point x="100" y="1079"/>
      <point x="100" y="1114"/>
      <point x="139" y="1114" type="curve" smooth="yes"/>
      <point x="174" y="1114"/>
      <point x="173" y="1076"/>
      <point x="173" y="1047" type="curve" smooth="yes"/>
      <point x="173" y="418" type="line"/>
      <point x="681" y="418" type="line"/>
      <point x="681" y="1044" type="line" smooth="yes"/>
      <point x="681" y="1079"/>
      <point x="679" y="1114"/>
      <point x="718" y="1114" type="curve" smooth="yes"/>
      <point x="753" y="1114"/>
      <point x="753" y="1079"/>
      <point x="753" y="1044" type="curve" smooth="yes"/>
      <point x="753" y="418" type="line"/>
      <point x="972" y="418" type="line" smooth="yes"/>
      <point x="1016" y="418"/>
      <point x="1044" y="420"/>
    </contour>
  </outline>
</glyph>
<glyph name="five" format="1">
  <advance width="869"/>
  <unicode hex="0035"/>
  <outline>
    <contour>
      <point x="439" y="29" type="curve" smooth="yes"/>
      <point x="659" y="29"/>
      <point x="730" y="149"/>
      <point x="730" y="328" type="curve" smooth="yes"/>
      <point x="730" y="475"/>
      <point x="660" y="537"/>
      <point x="439" y="537" type="curve" smooth="yes"/>
      <point x="189" y="537" type="line" smooth="yes"/>
      <point x="152" y="537"/>
      <point x="106" y="535"/>
      <point x="106" y="592" type="curve" smooth="yes"/>
      <point x="106" y="597"/>
      <point x="106" y="602"/>
      <point x="107" y="607" type="curve" smooth="yes"/>
      <point x="147" y="1024" type="line" smooth="yes"/>
      <point x="150" y="1056"/>
      <point x="148" y="1094"/>
      <point x="220" y="1094" type="curve" smooth="yes"/>
      <point x="658" y="1094" type="line" smooth="yes"/>
      <point x="684" y="1094"/>
      <point x="698" y="1077"/>
      <point x="698" y="1059" type="curve" smooth="yes"/>
      <point x="698" y="1042"/>
      <point x="684" y="1025"/>
      <point x="658" y="1025" type="curve" smooth="yes"/>
      <point x="220" y="1025" type="line"/>
      <point x="180" y="607" type="line"/>
      <point x="439" y="607" type="line" smooth="yes"/>
      <point x="659" y="607"/>
      <point x="804" y="536"/>
      <point x="804" y="324" type="curve" smooth="yes"/>
      <point x="804" y="52"/>
      <point x="659" y="-40"/>
      <point x="439" y="-40" type="curve" smooth="yes"/>
      <point x="281" y="-40"/>
      <point x="85" y="9"/>
      <point x="85" y="58" type="curve" smooth="yes"/>
      <point x="85" y="73"/>
      <point x="98" y="84"/>
      <point x="121" y="84" type="curve" smooth="yes"/>
      <point x="148" y="84"/>
      <point x="199" y="63"/>
      <point x="239" y="54" type="curve" smooth="yes"/>
      <point x="295" y="41"/>
      <point x="367" y="29"/>
    </contour>
  </outline>
</glyph>
<glyph name="eight" format="1">
  <advance width="1030"/>
  <unicode hex="0038"/>
  <outline>
    <contour>
      <point x="515" y="567" type="curve" smooth="yes"/>
      <point x="230" y="567"/>
      <point x="153" y="446"/>
      <point x="153" y="313" type="curve" smooth="yes"/>
      <point x="153" y="158"/>
      <point x="240" y="45"/>
      <point x="515" y="45" type="curve" smooth="yes"/>
      <point x="790" y="45"/>
      <point x="877" y="158"/>
      <point x="877" y="313" type="curve" smooth="yes"/>
      <point x="877" y="446"/>
      <point x="800" y="567"/>
    </contour>
    <contour>
      <point x="515" y="-21" type="curve" smooth="yes"/>
      <point x="199" y="-21"/>
      <point x="87" y="122"/>
      <point x="87" y="307" type="curve" smooth="yes"/>
      <point x="87" y="465"/>
      <point x="160" y="569"/>
      <point x="366" y="604" type="curve"/>
      <point x="165" y="631"/>
      <point x="114" y="759"/>
      <point x="114" y="850" type="curve" smooth="yes"/>
      <point x="114" y="989"/>
      <point x="196" y="1135"/>
      <point x="515" y="1135" type="curve" smooth="yes"/>
      <point x="834" y="1135"/>
      <point x="916" y="989"/>
      <point x="916" y="850" type="curve" smooth="yes"/>
      <point x="916" y="759"/>
      <point x="865" y="631"/>
      <point x="664" y="604" type="curve"/>
      <point x="870" y="569"/>
      <point x="943" y="465"/>
      <point x="943" y="307" type="curve" smooth="yes"/>
      <point x="943" y="122"/>
      <point x="831" y="-21"/>
    </contour>
    <contour>
      <point x="515" y="637" type="curve" smooth="yes"/>
      <point x="771" y="637"/>
      <point x="845" y="744"/>
      <point x="845" y="851" type="curve" smooth="yes"/>
      <point x="845" y="954"/>
      <point x="782" y="1069"/>
      <point x="515" y="1069" type="curve" smooth="yes"/>
      <point x="248" y="1069"/>
      <point x="185" y="954"/>
      <point x="185" y="851" type="curve" smooth="yes"/>
      <point x="185" y="744"/>
      <point x="259" y="637"/>
    </contour>
  </outline>
</glyph>
<glyph name="nine" format="1">
  <advance width="1023"/>
  <unicode hex="0039"/>
  <outline>
    <contour>
      <point x="929" y="557" type="curve" smooth="yes"/>
      <point x="929" y="139"/>
      <point x="841" y="-20"/>
      <point x="477" y="-20" type="curve" smooth="yes"/>
      <point x="319" y="-20"/>
      <point x="123" y="29"/>
      <point x="123" y="78" type="curve" smooth="yes"/>
      <point x="123" y="93"/>
      <point x="136" y="104"/>
      <point x="159" y="104" type="curve" smooth="yes"/>
      <point x="186" y="104"/>
      <point x="237" y="83"/>
      <point x="277" y="74" type="curve" smooth="yes"/>
      <point x="333" y="61"/>
      <point x="405" y="49"/>
      <point x="477" y="49" type="curve" smooth="yes"/>
      <point x="716" y="49"/>
      <point x="852" y="94"/>
      <point x="852" y="535" type="curve"/>
      <point x="807" y="513"/>
      <point x="722" y="487"/>
      <point x="523" y="487" type="curve" smooth="yes"/>
      <point x="227" y="487"/>
      <point x="74" y="552"/>
      <point x="74" y="816" type="curve" smooth="yes"/>
      <point x="74" y="979"/>
      <point x="186" y="1134"/>
      <point x="510" y="1134" type="curve" smooth="yes"/>
      <point x="819" y="1134"/>
      <point x="929" y="987"/>
    </contour>
    <contour>
      <point x="852" y="588" type="curve"/>
      <point x="852" y="952"/>
      <point x="762" y="1065"/>
      <point x="506" y="1065" type="curve" smooth="yes"/>
      <point x="225" y="1065"/>
      <point x="150" y="938"/>
      <point x="150" y="808" type="curve" smooth="yes"/>
      <point x="150" y="582"/>
      <point x="272" y="557"/>
      <point x="523" y="557" type="curve" smooth="yes"/>
      <point x="690" y="557"/>
      <point x="786" y="572"/>
    </contour>
  </outline>
</glyph>
<glyph name="question" format="1">
  <advance width="888"/>
  <unicode hex="003F"/>
  <outline>
    <contour>
      <point x="295" y="264" type="line" smooth="yes"/>
      <point x="295" y="225"/>
      <point x="295" y="194"/>
      <point x="262" y="194" type="curve" smooth="yes"/>
      <point x="223" y="194"/>
      <point x="223" y="226"/>
      <point x="223" y="262" type="curve" smooth="yes"/>
      <point x="223" y="512" type="line" smooth="yes"/>
      <point x="223" y="528"/>
      <point x="234" y="544"/>
      <point x="258" y="544" type="curve" smooth="yes"/>
      <point x="691" y="544"/>
      <point x="762" y="669"/>
      <point x="762" y="801" type="curve" smooth="yes"/>
      <point x="762" y="957"/>
      <point x="690" y="1066"/>
      <point x="414" y="1066" type="curve" smooth="yes"/>
      <point x="297" y="1066"/>
      <point x="197" y="1039"/>
      <point x="122" y="1016" type="curve" smooth="yes"/>
      <point x="113" y="1013"/>
      <point x="105" y="1011"/>
      <point x="96" y="1011" type="curve" smooth="yes"/>
      <point x="73" y="1011"/>
      <point x="60" y="1022"/>
      <point x="60" y="1037" type="curve" smooth="yes"/>
      <point x="60" y="1088"/>
      <point x="265" y="1135"/>
      <point x="414" y="1135" type="curve" smooth="yes"/>
      <point x="729" y="1135"/>
      <point x="828" y="992"/>
      <point x="828" y="807" type="curve" smooth="yes"/>
      <point x="828" y="654"/>
      <point x="783" y="488"/>
      <point x="295" y="480" type="curve"/>
    </contour>
    <contour>
      <point x="203" y="46" type="curve" smooth="yes"/>
      <point x="203" y="81"/>
      <point x="226" y="105"/>
      <point x="261" y="105" type="curve" smooth="yes"/>
      <point x="294" y="105"/>
      <point x="321" y="81"/>
      <point x="321" y="46" type="curve" smooth="yes"/>
      <point x="321" y="13"/>
      <point x="294" y="-10"/>
      <point x="261" y="-10" type="curve" smooth="yes"/>
      <point x="226" y="-10"/>
      <point x="203" y="13"/>
    </contour>
  </outline>
</glyph>
<glyph name="at" format="1">
  <advance width="1334"/>
  <unicode hex="0040"/>
  <outline>
    <contour>
      <point x="1055" y="-48" type="curve" smooth="yes"/>
      <point x="980" y="-82"/>
      <point x="876" y="-119"/>
      <point x="721" y="-119" type="curve" smooth="yes"/>
      <point x="268" y="-119"/>
      <point x="73" y="94"/>
      <point x="73" y="457" type="curve" smooth="yes"/>
      <point x="73" y="796"/>
      <point x="313" y="1031"/>
      <point x="723" y="1031" type="curve" smooth="yes"/>
      <point x="1079" y="1031"/>
      <point x="1268" y="870"/>
      <point x="1268" y="573" type="curve" smooth="yes"/>
      <point x="1268" y="296"/>
      <point x="1190" y="116"/>
      <point x="1038" y="116" type="curve" smooth="yes"/>
      <point x="965" y="116"/>
      <point x="921" y="160"/>
      <point x="921" y="253" type="curve"/>
      <point x="877" y="199"/>
      <point x="790" y="132"/>
      <point x="634" y="132" type="curve" smooth="yes"/>
      <point x="407" y="132"/>
      <point x="325" y="271"/>
      <point x="325" y="424" type="curve" smooth="yes"/>
      <point x="325" y="700"/>
      <point x="540" y="801"/>
      <point x="724" y="801" type="curve" smooth="yes"/>
      <point x="853" y="801"/>
      <point x="921" y="759"/>
      <point x="950" y="730" type="curve"/>
      <point x="957" y="763"/>
      <point x="964" y="781"/>
      <point x="985" y="781" type="curve" smooth="yes"/>
      <point x="1008" y="781"/>
      <point x="1023" y="766"/>
      <point x="1023" y="718" type="curve" smooth="yes"/>
      <point x="1023" y="702"/>
      <point x="1022" y="648"/>
      <point x="998" y="331" type="curve" smooth="yes"/>
      <point x="997" y="314"/>
      <point x="994" y="289"/>
      <point x="994" y="262" type="curve" smooth="yes"/>
      <point x="994" y="219"/>
      <point x="1002" y="176"/>
      <point x="1043" y="176" type="curve" smooth="yes"/>
      <point x="1134" y="176"/>
      <point x="1192" y="323"/>
      <point x="1192" y="575" type="curve" smooth="yes"/>
      <point x="1192" y="835"/>
      <point x="1032" y="972"/>
      <point x="723" y="972" type="curve" smooth="yes"/>
      <point x="363" y="972"/>
      <point x="150" y="764"/>
      <point x="150" y="457" type="curve" smooth="yes"/>
      <point x="150" y="134"/>
      <point x="303" y="-60"/>
      <point x="723" y="-60" type="curve" smooth="yes"/>
      <point x="862" y="-60"/>
      <point x="966" y="-27"/>
      <point x="1037" y="5" type="curve" smooth="yes"/>
      <point x="1044" y="8"/>
      <point x="1049" y="9"/>
      <point x="1054" y="9" type="curve" smooth="yes"/>
      <point x="1070" y="9"/>
      <point x="1078" y="-2"/>
      <point x="1078" y="-15" type="curve" smooth="yes"/>
      <point x="1078" y="-27"/>
      <point x="1071" y="-41"/>
    </contour>
    <contour>
      <point x="945" y="686" type="line"/>
      <point x="893" y="708"/>
      <point x="817" y="735"/>
      <point x="730" y="735" type="curve" smooth="yes"/>
      <point x="571" y="735"/>
      <point x="404" y="641"/>
      <point x="404" y="433" type="curve" smooth="yes"/>
      <point x="404" y="276"/>
      <point x="476" y="198"/>
      <point x="639" y="198" type="curve" smooth="yes"/>
      <point x="772" y="198"/>
      <point x="868" y="266"/>
      <point x="904" y="302" type="curve" smooth="yes"/>
      <point x="923" y="321" type="line"/>
    </contour>
  </outline>
</glyph>
<glyph name="A" format="1">
  <advance width="1349"/>
  <unicode hex="0041"/>
  <outline>
    <contour>
      <point x="674" y="1116" type="move" name="top"/>
    </contour>
    <contour>
      <point x="1244" y="2" type="move" name="bot"/>
    </contour>
    <contour>
      <point x="622" y="1063" type="line" smooth="yes"/>
      <point x="643" y="1102"/>
      <point x="650" y="1114"/>
      <point x="674" y="1114" type="curve" smooth="yes"/>
      <point x="693" y="1114"/>
      <point x="704" y="1103"/>
      <point x="726" y="1063" type="curve" smooth="yes"/>
      <point x="1278" y="67" type="line" smooth="yes"/>
      <point x="1286" y="53"/>
      <point x="1289" y="40"/>
      <point x="1289" y="28" type="curve" smooth="yes"/>
      <point x="1289" y="4"/>
      <point x="1274" y="-10"/>
      <point x="1255" y="-10" type="curve" smooth="yes"/>
      <point x="1237" y="-10"/>
      <point x="1218" y="1"/>
      <point x="1200" y="34" type="curve" smooth="yes"/>
      <point x="1030" y="342" type="line"/>
      <point x="318" y="342" type="line"/>
      <point x="146" y="30" type="line" smooth="yes"/>
      <point x="131" y="2"/>
      <point x="110" y="-10"/>
      <point x="92" y="-10" type="curve" smooth="yes"/>
      <point x="69" y="-10"/>
      <point x="59" y="7"/>
      <point x="59" y="34" type="curve" smooth="yes"/>
      <point x="59" y="44"/>
      <point x="64" y="55"/>
      <point x="71" y="68" type="curve" smooth="yes"/>
    </contour>
    <contour>
      <point x="1001" y="401" type="line"/>
      <point x="674" y="998" type="line"/>
      <point x="347" y="401" type="line"/>
    </contour>
  </outline>
</glyph>
<glyph name="B" format="1">
  <advance width="1408"/>
  <unicode hex="0042"/>
  <outline>
    <contour>
      <point x="719" y="1114" type="move" name="top"/>
    </contour>
    <contour>
      <point x="719" y="0" type="move" name="bot"/>
    </contour>
    <contour>
      <point x="1278" y="326" type="curve"/>
      <point x="1278" y="55"/>
      <point x="1056" y="0"/>
      <point x="770" y="0" type="curve" smooth="yes"/>
      <point x="194" y="0" type="line" smooth="yes"/>
      <point x="171" y="0"/>
      <point x="160" y="15"/>
      <point x="160" y="35" type="curve" smooth="yes"/>
      <point x="160" y="1077" type="line" smooth="yes"/>
      <point x="160" y="1101"/>
      <point x="176" y="1114"/>
      <point x="199" y="1114" type="curve" smooth="yes"/>
      <point x="657" y="1114" type="line" smooth="yes"/>
      <point x="946" y="1114"/>
      <point x="1219" y="1108"/>
      <point x="1219" y="836" type="curve" smooth="yes"/>
      <point x="1219" y="578"/>
      <point x="953" y="594"/>
      <point x="958" y="594" type="curve" smooth="yes"/>
      <point x="1120" y="578"/>
      <point x="1275" y="522"/>
    </contour>
    <contour>
      <point x="1134" y="836" type="curve" smooth="yes"/>
      <point x="1134" y="972"/>
      <point x="1062" y="1048"/>
      <point x="694" y="1048" type="curve" smooth="yes"/>
      <point x="245" y="1048" type="line"/>
      <point x="245" y="619" type="line"/>
      <point x="718" y="619" type="line" smooth="yes"/>
      <point x="1006" y="619"/>
      <point x="1134" y="656"/>
    </contour>
    <contour>
      <point x="1193" y="326" type="curve" smooth="yes"/>
      <point x="1193" y="510"/>
      <point x="1009" y="564"/>
      <point x="718" y="564" type="curve" smooth="yes"/>
      <point x="245" y="564" type="line"/>
      <point x="245" y="66" type="line"/>
      <point x="808" y="66" type="line" smooth="yes"/>
      <point x="1169" y="66"/>
      <point x="1193" y="193"/>
    </contour>
  </outline>
</glyph>
<glyph name="C" format="1">
  <advance width="1489"/>
  <unicode hex="0043"/>
  <outline>
    <contour>
      <point x="763" y="1114" type="move" name="top"/>
    </contour>
    <contour>
      <point x="763" y="0" type="move" name="bot"/>
    </contour>
    <contour>
      <point x="123" y="557" type="curve" smooth="yes"/>
      <point x="123" y="972"/>
      <point x="377" y="1135"/>
      <point x="873" y="1135" type="curve" smooth="yes"/>
      <point x="1045" y="1135"/>
      <point x="1206" y="1105"/>
      <point x="1373" y="1036" type="curve" smooth="yes"/>
      <point x="1394" y="1027"/>
      <point x="1403" y="1011"/>
      <point x="1403" y="998" type="curve" smooth="yes"/>
      <point x="1403" y="982"/>
      <point x="1390" y="968"/>
      <point x="1371" y="968" type="curve" smooth="yes"/>
      <point x="1365" y="968"/>
      <point x="1359" y="970"/>
      <point x="1352" y="973" type="curve" smooth="yes"/>
      <point x="1199" y="1037"/>
      <point x="1028" y="1069"/>
      <point x="873" y="1069" type="curve" smooth="yes"/>
      <point x="398" y="1069"/>
      <point x="208" y="916"/>
      <point x="208" y="557" type="curve" smooth="yes"/>
      <point x="208" y="198"/>
      <point x="398" y="45"/>
      <point x="873" y="45" type="curve" smooth="yes"/>
      <point x="1028" y="45"/>
      <point x="1199" y="77"/>
      <point x="1352" y="141" type="curve" smooth="yes"/>
      <point x="1358" y="143"/>
      <point x="1365" y="145"/>
      <point x="1370" y="145" type="curve" smooth="yes"/>
      <point x="1390" y="145"/>
      <point x="1404" y="131"/>
      <point x="1404" y="115" type="curve" smooth="yes"/>
      <point x="1404" y="102"/>
      <point x="1395" y="87"/>
      <point x="1373" y="78" type="curve" smooth="yes"/>
      <point x="1206" y="9"/>
      <point x="1045" y="-21"/>
      <point x="873" y="-21" type="curve" smooth="yes"/>
      <point x="377" y="-21"/>
      <point x="123" y="142"/>
    </contour>
  </outline>
</glyph>
<glyph name="D" format="1">
  <advance width="1670"/>
  <unicode hex="0044"/>
  <outline>
    <contour>
      <point x="853" y="1114" type="move" name="top"/>
    </contour>
    <contour>
      <point x="853" y="0" type="move" name="bot"/>
    </contour>
    <contour>
      <point x="1547" y="559" type="curve" smooth="yes"/>
      <point x="1547" y="133"/>
      <point x="1322" y="0"/>
      <point x="887" y="0" type="curve" smooth="yes"/>
      <point x="199" y="0" type="line" smooth="yes"/>
      <point x="160" y="0"/>
      <point x="160" y="0"/>
      <point x="160" y="35" type="curve" smooth="yes"/>
      <point x="160" y="1077" type="line" smooth="yes"/>
      <point x="160" y="1116"/>
      <point x="160" y="1114"/>
      <point x="201" y="1114" type="curve" smooth="yes"/>
      <point x="887" y="1114" type="line" smooth="yes"/>
      <point x="1322" y="1114"/>
      <point x="1547" y="975"/>
    </contour>
    <contour>
      <point x="1462" y="559" type="curve" smooth="yes"/>
      <point x="1462" y="903"/>
      <point x="1321" y="1048"/>
      <point x="887" y="1048" type="curve" smooth="yes"/>
      <point x="245" y="1048" type="line"/>
      <point x="245" y="66" type="line"/>
      <point x="887" y="66" type="line" smooth="yes"/>
      <point x="1321" y="66"/>
      <point x="1462" y="210"/>
    </contour>
  </outline>
</glyph>
<glyph name="E" format="1">
  <advance width="1302"/>
  <unicode hex="0045"/>
  <outline>
    <contour>
      <point x="673" y="1114" type="move" name="top"/>
    </contour>
    <contour>
      <point x="1123" y="0" type="move" name="bot"/>
    </contour>
    <contour>
      <point x="1187" y="35" type="curve" smooth="yes"/>
      <point x="1187" y="-4"/>
      <point x="1160" y="1"/>
      <point x="1121" y="0" type="curve"/>
      <point x="200" y="0" type="line" smooth="yes"/>
      <point x="195" y="0"/>
      <point x="191" y="0"/>
      <point x="187" y="0" type="curve" smooth="yes"/>
      <point x="161" y="0"/>
      <point x="161" y="4"/>
      <point x="161" y="35" type="curve" smooth="yes"/>
      <point x="161" y="1067" type="line" smooth="yes"/>
      <point x="161" y="1106"/>
      <point x="159" y="1114"/>
      <point x="198" y="1114" type="curve" smooth="yes"/>
      <point x="1111" y="1114" type="line" smooth="yes"/>
      <point x="1150" y="1114"/>
      <point x="1185" y="1118"/>
      <point x="1185" y="1079" type="curve" smooth="yes"/>
      <point x="1185" y="1046"/>
      <point x="1150" y="1048"/>
      <point x="1111" y="1048" type="curve" smooth="yes"/>
      <point x="246" y="1048" type="line"/>
      <point x="246" y="610" type="line"/>
      <point x="1106" y="610" type="line" smooth="yes"/>
      <point x="1135" y="610"/>
      <point x="1158" y="604"/>
      <point x="1158" y="578" type="curve" smooth="yes"/>
      <point x="1158" y="549"/>
      <point x="1139" y="542"/>
      <point x="1113" y="542" type="curve" smooth="yes"/>
      <point x="246" y="542" type="line"/>
      <point x="246" y="66" type="line"/>
      <point x="1113" y="66" type="line" smooth="yes"/>
      <point x="1152" y="66"/>
      <point x="1187" y="68"/>
    </contour>
  </outline>
</glyph>
<glyph name="F" format="1">
  <advance width="1239"/>
  <unicode hex="0046"/>
  <outline>
    <contour>
      <point x="699" y="1114" type="move" name="top"/>
    </contour>
    <contour>
      <point x="699" y="0" type="move" name="bot"/>
    </contour>
    <contour>
      <point x="246" y="70" type="line" smooth="yes"/>
      <point x="246" y="31"/>
      <point x="237" y="0"/>
      <point x="205" y="0" type="curve" smooth="yes"/>
      <point x="166" y="0"/>
      <point x="161" y="32"/>
      <point x="161" y="68" type="curve" smooth="yes"/>
      <point x="161" y="1077" type="line" smooth="yes"/>
      <point x="161" y="1116"/>
      <point x="159" y="1114"/>
      <point x="198" y="1114" type="curve" smooth="yes"/>
      <point x="1176" y="1114" type="line" smooth="yes"/>
      <point x="1211" y="1114"/>
      <point x="1239" y="1114"/>
      <point x="1239" y="1079" type="curve" smooth="yes"/>
      <point x="1239" y="1048"/>
      <point x="1215" y="1048"/>
      <point x="1176" y="1048" type="curve" smooth="yes"/>
      <point x="246" y="1048" type="line"/>
      <point x="246" y="594" type="line"/>
      <point x="1033" y="594" type="line" smooth="yes"/>
      <point x="1072" y="594"/>
      <point x="1099" y="594"/>
      <point x="1099" y="563" type="curve" smooth="yes"/>
      <point x="1099" y="528"/>
      <point x="1068" y="528"/>
      <point x="1033" y="528" type="curve" smooth="yes"/>
      <point x="246" y="528" type="line"/>
    </contour>
  </outline>
</glyph>
<glyph name="G" format="1">
  <advance width="1623"/>
  <unicode hex="0047"/>
  <outline>
    <contour>
      <point x="816" y="1114" type="move" name="top"/>
    </contour>
    <contour>
      <point x="816" y="0" type="move" name="bot"/>
    </contour>
    <contour>
      <point x="873" y="45" type="curve" smooth="yes"/>
      <point x="1070" y="45"/>
      <point x="1256" y="74"/>
      <point x="1437" y="118" type="curve"/>
      <point x="1437" y="536" type="line"/>
      <point x="927" y="536" type="line" smooth="yes"/>
      <point x="895" y="536"/>
      <point x="856" y="536"/>
      <point x="856" y="571" type="curve" smooth="yes"/>
      <point x="856" y="606"/>
      <point x="893" y="606"/>
      <point x="927" y="606" type="curve" smooth="yes"/>
      <point x="1437" y="606" type="line" smooth="yes"/>
      <point x="1493" y="606"/>
      <point x="1509" y="587"/>
      <point x="1509" y="536" type="curve" smooth="yes"/>
      <point x="1509" y="118" type="line" smooth="yes"/>
      <point x="1509" y="77"/>
      <point x="1472" y="56"/>
      <point x="1437" y="49" type="curve" smooth="yes"/>
      <point x="1240" y="10"/>
      <point x="1057" y="-21"/>
      <point x="873" y="-21" type="curve" smooth="yes"/>
      <point x="377" y="-21"/>
      <point x="123" y="142"/>
      <point x="123" y="557" type="curve" smooth="yes"/>
      <point x="123" y="972"/>
      <point x="377" y="1135"/>
      <point x="873" y="1135" type="curve" smooth="yes"/>
      <point x="1045" y="1135"/>
      <point x="1206" y="1105"/>
      <point x="1373" y="1036" type="curve" smooth="yes"/>
      <point x="1394" y="1027"/>
      <point x="1403" y="1011"/>
      <point x="1403" y="998" type="curve" smooth="yes"/>
      <point x="1403" y="982"/>
      <point x="1390" y="968"/>
      <point x="1371" y="968" type="curve" smooth="yes"/>
      <point x="1365" y="968"/>
      <point x="1359" y="970"/>
      <point x="1352" y="973" type="curve" smooth="yes"/>
      <point x="1199" y="1037"/>
      <point x="1028" y="1069"/>
      <point x="873" y="1069" type="curve" smooth="yes"/>
      <point x="398" y="1069"/>
      <point x="208" y="916"/>
      <point x="208" y="557" type="curve" smooth="yes"/>
      <point x="208" y="198"/>
      <point x="398" y="45"/>
    </contour>
  </outline>
</glyph>
<glyph name="H" format="1">
  <advance width="1373"/>
  <unicode hex="0048"/>
  <outline>
    <contour>
      <point x="690" y="1114" type="move" name="top"/>
    </contour>
    <contour>
      <point x="690" y="0" type="move" name="bot"/>
    </contour>
    <contour>
      <point x="159" y="1044" type="line" smooth="yes"/>
      <point x="159" y="1079"/>
      <point x="166" y="1114"/>
      <point x="207" y="1114" type="curve" smooth="yes"/>
      <point x="236" y="1114"/>
      <point x="244" y="1077"/>
      <point x="244" y="1044" type="curve" smooth="yes"/>
      <point x="244" y="606" type="line"/>
      <point x="1129" y="606" type="line"/>
      <point x="1129" y="1044" type="line" smooth="yes"/>
      <point x="1129" y="1079"/>
      <point x="1132" y="1114"/>
      <point x="1171" y="1114" type="curve" smooth="yes"/>
      <point x="1211" y="1114"/>
      <point x="1214" y="1079"/>
      <point x="1214" y="1044" type="curve" smooth="yes"/>
      <point x="1214" y="70" type="line" smooth="yes"/>
      <point x="1214" y="35"/>
      <point x="1211" y="0"/>
      <point x="1172" y="0" type="curve" smooth="yes"/>
      <point x="1132" y="0"/>
      <point x="1129" y="35"/>
      <point x="1129" y="70" type="curve" smooth="yes"/>
      <point x="1129" y="544" type="line"/>
      <point x="244" y="544" type="line"/>
      <point x="244" y="70" type="line" smooth="yes"/>
      <point x="244" y="37"/>
      <point x="234" y="0"/>
      <point x="205" y="0" type="curve" smooth="yes"/>
      <point x="164" y="0"/>
      <point x="159" y="35"/>
      <point x="159" y="70" type="curve" smooth="yes"/>
    </contour>
  </outline>
</glyph>
<glyph name="I" format="1">
  <advance width="1031"/>
  <unicode hex="0049"/>
  <outline>
    <contour>
      <point x="515" y="1114" type="move" name="top"/>
    </contour>
    <contour>
      <point x="515" y="0" type="move" name="bot"/>
    </contour>
    <contour>
      <point x="473" y="1048" type="line"/>
      <point x="116" y="1048" type="line" smooth="yes"/>
      <point x="81" y="1048"/>
      <point x="43" y="1046"/>
      <point x="43" y="1079" type="curve" smooth="yes"/>
      <point x="43" y="1118"/>
      <point x="84" y="1114"/>
      <point x="116" y="1114" type="curve" smooth="yes"/>
      <point x="915" y="1114" type="line" smooth="yes"/>
      <point x="954" y="1114"/>
      <point x="987" y="1117"/>
      <point x="987" y="1081" type="curve" smooth="yes"/>
      <point x="987" y="1045"/>
      <point x="954" y="1048"/>
      <point x="915" y="1048" type="curve" smooth="yes"/>
      <point x="558" y="1048" type="line"/>
      <point x="558" y="66" type="line"/>
      <point x="915" y="66" type="line" smooth="yes"/>
      <point x="954" y="66"/>
      <point x="987" y="69"/>
      <point x="987" y="33" type="curve" smooth="yes"/>
      <point x="987" y="-3"/>
      <point x="954" y="0"/>
      <point x="915" y="0" type="curve" smooth="yes"/>
      <point x="116" y="0" type="line" smooth="yes"/>
      <point x="84" y="0"/>
      <point x="43" y="-4"/>
      <point x="43" y="35" type="curve" smooth="yes"/>
      <point x="43" y="68"/>
      <point x="81" y="66"/>
      <point x="116" y="66" type="curve" smooth="yes"/>
      <point x="473" y="66" type="line"/>
    </contour>
  </outline>
</glyph>
<glyph name="J" format="1">
  <advance width="1057"/>
  <unicode hex="004A"/>
  <outline>
    <contour>
      <point x="450" y="1114" type="move" name="top"/>
    </contour>
    <contour>
      <point x="450" y="0" type="move" name="bot"/>
    </contour>
    <contour>
      <point x="898" y="594" type="line" smooth="yes"/>
      <point x="898" y="178"/>
      <point x="800" y="-20"/>
      <point x="467" y="-20" type="curve" smooth="yes"/>
      <point x="240" y="-20"/>
      <point x="58" y="25"/>
      <point x="7" y="214" type="curve"/>
      <point x="4" y="222"/>
      <point x="3" y="230"/>
      <point x="3" y="238" type="curve" smooth="yes"/>
      <point x="3" y="265"/>
      <point x="18" y="277"/>
      <point x="37" y="277" type="curve" smooth="yes"/>
      <point x="54" y="277"/>
      <point x="73" y="264"/>
      <point x="80" y="240" type="curve"/>
      <point x="122" y="57"/>
      <point x="310" y="49"/>
      <point x="467" y="49" type="curve" smooth="yes"/>
      <point x="750" y="49"/>
      <point x="813" y="240"/>
      <point x="813" y="594" type="curve" smooth="yes"/>
      <point x="813" y="1044" type="line" smooth="yes"/>
      <point x="813" y="1083"/>
      <point x="819" y="1114"/>
      <point x="858" y="1114" type="curve" smooth="yes"/>
      <point x="893" y="1114"/>
      <point x="898" y="1076"/>
      <point x="898" y="1044" type="curve" smooth="yes"/>
    </contour>
  </outline>
</glyph>
<glyph name="K" format="1">
  <advance width="1229"/>
  <unicode hex="004B"/>
  <outline>
    <contour>
      <point x="639" y="1114" type="move" name="top"/>
    </contour>
    <contour>
      <point x="639" y="0" type="move" name="bot"/>
    </contour>
    <contour>
      <point x="516" y="621" type="line"/>
      <point x="1099" y="77" type="line" smooth="yes"/>
      <point x="1112" y="65"/>
      <point x="1119" y="50"/>
      <point x="1119" y="37" type="curve" smooth="yes"/>
      <point x="1119" y="17"/>
      <point x="1104" y="0"/>
      <point x="1084" y="0" type="curve" smooth="yes"/>
      <point x="1073" y="0"/>
      <point x="1062" y="5"/>
      <point x="1051" y="15" type="curve" smooth="yes"/>
      <point x="453" y="580" type="line"/>
      <point x="246" y="444" type="line"/>
      <point x="246" y="70" type="line" smooth="yes"/>
      <point x="246" y="31"/>
      <point x="236" y="0"/>
      <point x="204" y="0" type="curve" smooth="yes"/>
      <point x="165" y="0"/>
      <point x="160" y="32"/>
      <point x="160" y="68" type="curve" smooth="yes"/>
      <point x="160" y="1048" type="line" smooth="yes"/>
      <point x="160" y="1087"/>
      <point x="167" y="1114"/>
      <point x="206" y="1114" type="curve" smooth="yes"/>
      <point x="238" y="1114"/>
      <point x="246" y="1085"/>
      <point x="246" y="1050" type="curve" smooth="yes"/>
      <point x="246" y="524" type="line"/>
      <point x="1047" y="1099" type="line" smooth="yes"/>
      <point x="1062" y="1110"/>
      <point x="1076" y="1114"/>
      <point x="1087" y="1114" type="curve" smooth="yes"/>
      <point x="1108" y="1114"/>
      <point x="1120" y="1101"/>
      <point x="1120" y="1082" type="curve" smooth="yes"/>
      <point x="1120" y="1067"/>
      <point x="1113" y="1055"/>
      <point x="1098" y="1044" type="curve" smooth="yes"/>
    </contour>
  </outline>
</glyph>
<glyph name="L" format="1">
  <advance width="1145"/>
  <unicode hex="004C"/>
  <outline>
    <contour>
      <point x="652" y="1114" type="move" name="top"/>
    </contour>
    <contour>
      <point x="652" y="0" type="move" name="bot"/>
    </contour>
    <contour>
      <point x="201" y="0" type="line" smooth="yes"/>
      <point x="160" y="0"/>
      <point x="160" y="2"/>
      <point x="160" y="37" type="curve" smooth="yes"/>
      <point x="160" y="1049" type="line" smooth="yes"/>
      <point x="160" y="1084"/>
      <point x="168" y="1114"/>
      <point x="207" y="1114" type="curve" smooth="yes"/>
      <point x="239" y="1114"/>
      <point x="245" y="1081"/>
      <point x="245" y="1049" type="curve" smooth="yes"/>
      <point x="245" y="66" type="line"/>
      <point x="1104" y="66" type="line" smooth="yes"/>
      <point x="1131" y="66"/>
      <point x="1145" y="49"/>
      <point x="1145" y="33" type="curve" smooth="yes"/>
      <point x="1145" y="16"/>
      <point x="1131" y="0"/>
      <point x="1104" y="0" type="curve" smooth="yes"/>
    </contour>
  </outline>
</glyph>
<glyph name="M" format="1">
  <advance width="1768"/>
  <unicode hex="004D"/>
  <outline>
    <contour>
      <point x="884" y="1114" type="move" name="top"/>
    </contour>
    <contour>
      <point x="884" y="0" type="move" name="bot"/>
    </contour>
    <contour>
      <point x="884" y="139" type="line"/>
      <point x="1504" y="1071" type="line" smooth="yes"/>
      <point x="1524" y="1102"/>
      <point x="1545" y="1114"/>
      <point x="1565" y="1114" type="curve" smooth="yes"/>
      <point x="1590" y="1114"/>
      <point x="1609" y="1091"/>
      <point x="1609" y="1060" type="curve" smooth="yes"/>
      <point x="1609" y="70" type="line" smooth="yes"/>
      <point x="1609" y="31"/>
      <point x="1605" y="0"/>
      <point x="1566" y="0" type="curve" smooth="yes"/>
      <point x="1533" y="0"/>
      <point x="1524" y="31"/>
      <point x="1524" y="70" type="curve" smooth="yes"/>
      <point x="1524" y="958" type="line"/>
      <point x="933" y="86" type="line" smooth="yes"/>
      <point x="917" y="63"/>
      <point x="901" y="52"/>
      <point x="884" y="52" type="curve" smooth="yes"/>
      <point x="867" y="52"/>
      <point x="850" y="63"/>
      <point x="835" y="86" type="curve" smooth="yes"/>
      <point x="244" y="958" type="line"/>
      <point x="244" y="70" type="line" smooth="yes"/>
      <point x="244" y="31"/>
      <point x="235" y="0"/>
      <point x="202" y="0" type="curve" smooth="yes"/>
      <point x="163" y="0"/>
      <point x="159" y="31"/>
      <point x="159" y="70" type="curve" smooth="yes"/>
      <point x="159" y="1060" type="line" smooth="yes"/>
      <point x="159" y="1091"/>
      <point x="178" y="1114"/>
      <point x="203" y="1114" type="curve" smooth="yes"/>
      <point x="222" y="1114"/>
      <point x="243" y="1102"/>
      <point x="264" y="1071" type="curve" smooth="yes"/>
    </contour>
  </outline>
</glyph>
<glyph name="N" format="1">
  <advance width="1527"/>
  <unicode hex="004E"/>
  <outline>
    <contour>
      <point x="766" y="1114" type="move" name="top"/>
    </contour>
    <contour>
      <point x="766" y="0" type="move" name="bot"/>
    </contour>
    <contour>
      <point x="1282" y="128" type="line"/>
      <point x="1282" y="1038" type="line" smooth="yes"/>
      <point x="1282" y="1077"/>
      <point x="1285" y="1114"/>
      <point x="1325" y="1114" type="curve" smooth="yes"/>
      <point x="1360" y="1114"/>
      <point x="1367" y="1079"/>
      <point x="1367" y="1038" type="curve" smooth="yes"/>
      <point x="1367" y="64" type="line" smooth="yes"/>
      <point x="1367" y="21"/>
      <point x="1356" y="0"/>
      <point x="1333" y="0" type="curve" smooth="yes"/>
      <point x="1318" y="0"/>
      <point x="1299" y="10"/>
      <point x="1276" y="31" type="curve" smooth="yes"/>
      <point x="245" y="986" type="line"/>
      <point x="245" y="70" type="line" smooth="yes"/>
      <point x="245" y="31"/>
      <point x="236" y="0"/>
      <point x="204" y="0" type="curve" smooth="yes"/>
      <point x="165" y="0"/>
      <point x="160" y="31"/>
      <point x="160" y="70" type="curve" smooth="yes"/>
      <point x="160" y="1049" type="line" smooth="yes"/>
      <point x="160" y="1089"/>
      <point x="176" y="1111"/>
      <point x="201" y="1111" type="curve" smooth="yes"/>
      <point x="218" y="1111"/>
      <point x="237" y="1101"/>
      <point x="259" y="1081" type="curve" smooth="yes"/>
    </contour>
  </outline>
</glyph>
<glyph name="P" format="1">
  <advance width="1187"/>
  <unicode hex="0050"/>
  <outline>
    <contour>
      <point x="657" y="1114" type="move" name="top"/>
    </contour>
    <contour>
      <point x="657" y="0" type="move" name="bot"/>
    </contour>
    <contour>
      <point x="1154" y="717" type="curve" smooth="yes"/>
      <point x="1154" y="354"/>
      <point x="873" y="348"/>
      <point x="543" y="348" type="curve" smooth="yes"/>
      <point x="245" y="348" type="line"/>
      <point x="245" y="76" type="line" smooth="yes"/>
      <point x="245" y="37"/>
      <point x="238" y="0"/>
      <point x="206" y="0" type="curve" smooth="yes"/>
      <point x="167" y="0"/>
      <point x="160" y="35"/>
      <point x="160" y="76" type="curve" smooth="yes"/>
      <point x="160" y="1077" type="line" smooth="yes"/>
      <point x="160" y="1116"/>
      <point x="172" y="1114"/>
      <point x="211" y="1114" type="curve" smooth="yes"/>
      <point x="543" y="1114" type="line" smooth="yes"/>
      <point x="907" y="1114"/>
      <point x="1154" y="1065"/>
    </contour>
    <contour>
      <point x="1069" y="717" type="curve" smooth="yes"/>
      <point x="1069" y="995"/>
      <point x="905" y="1048"/>
      <point x="543" y="1048" type="curve" smooth="yes"/>
      <point x="245" y="1048" type="line"/>
      <point x="245" y="410" type="line"/>
      <point x="543" y="410" type="line" smooth="yes"/>
      <point x="907" y="410"/>
      <point x="1069" y="437"/>
    </contour>
  </outline>
</glyph>
<glyph name="R" format="1">
  <advance width="1256"/>
  <unicode hex="0052"/>
  <outline>
    <contour>
      <point x="650" y="1114" type="move" name="top"/>
    </contour>
    <contour>
      <point x="650" y="0" type="move" name="bot"/>
    </contour>
    <contour>
      <point x="1141" y="768" type="curve" smooth="yes"/>
      <point x="1141" y="525"/>
      <point x="912" y="464"/>
      <point x="718" y="456" type="curve"/>
      <point x="1086" y="69" type="line" smooth="yes"/>
      <point x="1098" y="57"/>
      <point x="1103" y="45"/>
      <point x="1103" y="33" type="curve" smooth="yes"/>
      <point x="1103" y="15"/>
      <point x="1089" y="0"/>
      <point x="1069" y="0" type="curve" smooth="yes"/>
      <point x="1055" y="0"/>
      <point x="1037" y="6"/>
      <point x="1021" y="24" type="curve" smooth="yes"/>
      <point x="620" y="452" type="line"/>
      <point x="246" y="452" type="line"/>
      <point x="246" y="76" type="line" smooth="yes"/>
      <point x="246" y="37"/>
      <point x="240" y="0"/>
      <point x="208" y="0" type="curve" smooth="yes"/>
      <point x="169" y="0"/>
      <point x="161" y="35"/>
      <point x="161" y="76" type="curve" smooth="yes"/>
      <point x="161" y="1077" type="line" smooth="yes"/>
      <point x="161" y="1116"/>
      <point x="159" y="1114"/>
      <point x="198" y="1114" type="curve" smooth="yes"/>
      <point x="488" y="1114" type="line" smooth="yes"/>
      <point x="860" y="1114"/>
      <point x="1141" y="1106"/>
    </contour>
    <contour>
      <point x="1056" y="768" type="curve" smooth="yes"/>
      <point x="1056" y="1033"/>
      <point x="858" y="1048"/>
      <point x="488" y="1048" type="curve" smooth="yes"/>
      <point x="246" y="1048" type="line"/>
      <point x="246" y="518" type="line"/>
      <point x="621" y="518" type="line" smooth="yes"/>
      <point x="853" y="518"/>
      <point x="1056" y="548"/>
    </contour>
  </outline>
</glyph>
<glyph name="S" format="1">
  <advance width="1540"/>
  <unicode hex="0053"/>
  <outline>
    <contour>
      <point x="768" y="1114" type="move" name="top"/>
    </contour>
    <contour>
      <point x="768" y="0" type="move" name="bot"/>
    </contour>
    <contour>
      <point x="1427" y="311" type="curve" smooth="yes"/>
      <point x="1427" y="55"/>
      <point x="1135" y="-20"/>
      <point x="829" y="-20" type="curve" smooth="yes"/>
      <point x="545" y="-20"/>
      <point x="244" y="45"/>
      <point x="149" y="90" type="curve" smooth="yes"/>
      <point x="130" y="99"/>
      <point x="122" y="114"/>
      <point x="122" y="129" type="curve" smooth="yes"/>
      <point x="122" y="145"/>
      <point x="131" y="158"/>
      <point x="148" y="158" type="curve" smooth="yes"/>
      <point x="152" y="158"/>
      <point x="157" y="157"/>
      <point x="162" y="155" type="curve" smooth="yes"/>
      <point x="266" y="112"/>
      <point x="570" y="46"/>
      <point x="844" y="46" type="curve" smooth="yes"/>
      <point x="1110" y="46"/>
      <point x="1342" y="110"/>
      <point x="1342" y="311" type="curve" smooth="yes"/>
      <point x="1342" y="730"/>
      <point x="110" y="349"/>
      <point x="110" y="815" type="curve" smooth="yes"/>
      <point x="110" y="1072"/>
      <point x="414" y="1135"/>
      <point x="716" y="1135" type="curve" smooth="yes"/>
      <point x="963" y="1135"/>
      <point x="1209" y="1084"/>
      <point x="1311" y="1036" type="curve" smooth="yes"/>
      <point x="1322" y="1031"/>
      <point x="1327" y="1020"/>
      <point x="1327" y="1009" type="curve" smooth="yes"/>
      <point x="1327" y="990"/>
      <point x="1314" y="971"/>
      <point x="1291" y="971" type="curve" smooth="yes"/>
      <point x="1285" y="971"/>
      <point x="1279" y="972"/>
      <point x="1274" y="975" type="curve"/>
      <point x="1134" y="1033"/>
      <point x="921" y="1069"/>
      <point x="720" y="1069" type="curve" smooth="yes"/>
      <point x="443" y="1069"/>
      <point x="195" y="1012"/>
      <point x="195" y="821" type="curve" smooth="yes"/>
      <point x="195" y="455"/>
      <point x="1427" y="814"/>
    </contour>
  </outline>
</glyph>
<glyph name="T" format="1">
  <advance width="1343"/>
  <unicode hex="0054"/>
  <outline>
    <contour>
      <point x="671" y="1114" type="move" name="top"/>
    </contour>
    <contour>
      <point x="671" y="0" type="move" name="bot"/>
    </contour>
    <contour>
      <point x="1325" y="1077" type="curve" smooth="yes"/>
      <point x="1325" y="1044"/>
      <point x="1292" y="1048"/>
      <point x="1253" y="1048" type="curve" smooth="yes"/>
      <point x="716" y="1048" type="line"/>
      <point x="716" y="74" type="line" smooth="yes"/>
      <point x="716" y="35"/>
      <point x="713" y="0"/>
      <point x="674" y="0" type="curve" smooth="yes"/>
      <point x="639" y="0"/>
      <point x="631" y="35"/>
      <point x="631" y="74" type="curve" smooth="yes"/>
      <point x="631" y="1048" type="line"/>
      <point x="92" y="1048" type="line" smooth="yes"/>
      <point x="55" y="1048"/>
      <point x="18" y="1044"/>
      <point x="18" y="1077" type="curve" smooth="yes"/>
      <point x="18" y="1116"/>
      <point x="59" y="1114"/>
      <point x="92" y="1114" type="curve" smooth="yes"/>
      <point x="1253" y="1114" type="line" smooth="yes"/>
      <point x="1292" y="1114"/>
      <point x="1325" y="1116"/>
    </contour>
  </outline>
</glyph>
<glyph name="U" format="1">
  <advance width="1586"/>
  <unicode hex="0055"/>
  <outline>
    <contour>
      <point x="794" y="1114" type="move" name="top"/>
    </contour>
    <contour>
      <point x="794" y="0" type="move" name="bot"/>
    </contour>
    <contour>
      <point x="794" y="45" type="curve" smooth="yes"/>
      <point x="1230" y="45"/>
      <point x="1360" y="212"/>
      <point x="1360" y="560" type="curve" smooth="yes"/>
      <point x="1360" y="1044" type="line" smooth="yes"/>
      <point x="1360" y="1079"/>
      <point x="1368" y="1114"/>
      <point x="1401" y="1114" type="curve" smooth="yes"/>
      <point x="1440" y="1114"/>
      <point x="1445" y="1079"/>
      <point x="1445" y="1044" type="curve" smooth="yes"/>
      <point x="1445" y="560" type="line" smooth="yes"/>
      <point x="1445" y="143"/>
      <point x="1230" y="-21"/>
      <point x="794" y="-21" type="curve" smooth="yes"/>
      <point x="358" y="-21"/>
      <point x="141" y="143"/>
      <point x="141" y="560" type="curve" smooth="yes"/>
      <point x="141" y="1044" type="line" smooth="yes"/>
      <point x="141" y="1079"/>
      <point x="147" y="1114"/>
      <point x="186" y="1114" type="curve" smooth="yes"/>
      <point x="219" y="1114"/>
      <point x="226" y="1079"/>
      <point x="226" y="1044" type="curve" smooth="yes"/>
      <point x="226" y="560" type="line" smooth="yes"/>
      <point x="226" y="212"/>
      <point x="358" y="45"/>
    </contour>
  </outline>
</glyph>
<glyph name="V" format="1">
  <advance width="1427"/>
  <unicode hex="0056"/>
  <outline>
    <contour>
      <point x="713" y="1114" type="move" name="top"/>
    </contour>
    <contour>
      <point x="713" y="0" type="move" name="bot"/>
    </contour>
    <contour>
      <point x="714" y="90" type="line"/>
      <point x="1285" y="1064" type="line" smooth="yes"/>
      <point x="1300" y="1089"/>
      <point x="1315" y="1110"/>
      <point x="1334" y="1113" type="curve"/>
      <point x="1359" y="1113"/>
      <point x="1369" y="1093"/>
      <point x="1369" y="1078" type="curve" smooth="yes"/>
      <point x="1369" y="1063"/>
      <point x="1358" y="1046"/>
      <point x="1348" y="1029" type="curve" smooth="yes"/>
      <point x="765" y="35" type="line" smooth="yes"/>
      <point x="751" y="11"/>
      <point x="731" y="0"/>
      <point x="713" y="0" type="curve" smooth="yes"/>
      <point x="693" y="0"/>
      <point x="675" y="13"/>
      <point x="662" y="35" type="curve" smooth="yes"/>
      <point x="77" y="1029" type="line" smooth="yes"/>
      <point x="66" y="1048"/>
      <point x="58" y="1064"/>
      <point x="58" y="1080" type="curve" smooth="yes"/>
      <point x="58" y="1091"/>
      <point x="68" y="1113"/>
      <point x="91" y="1113" type="curve"/>
      <point x="114" y="1110"/>
      <point x="127" y="1089"/>
      <point x="142" y="1064" type="curve" smooth="yes"/>
    </contour>
  </outline>
</glyph>
<glyph name="W" format="1">
  <advance width="1792"/>
  <unicode hex="0057"/>
  <outline>
    <contour>
      <point x="895" y="1114" type="move" name="top"/>
    </contour>
    <contour>
      <point x="895" y="0" type="move" name="bot"/>
    </contour>
    <contour>
      <point x="1276" y="125" type="line"/>
      <point x="1610" y="1059" type="line" smooth="yes"/>
      <point x="1620" y="1086"/>
      <point x="1632" y="1114"/>
      <point x="1655" y="1114" type="curve" smooth="yes"/>
      <point x="1682" y="1114"/>
      <point x="1690" y="1096"/>
      <point x="1690" y="1081" type="curve" smooth="yes"/>
      <point x="1690" y="1066"/>
      <point x="1685" y="1051"/>
      <point x="1678" y="1032" type="curve" smooth="yes"/>
      <point x="1325" y="53" type="line"/>
      <point x="1310" y="22"/>
      <point x="1303" y="0"/>
      <point x="1276" y="0" type="curve" smooth="yes"/>
      <point x="1249" y="0"/>
      <point x="1240" y="22"/>
      <point x="1229" y="53" type="curve" smooth="yes"/>
      <point x="895" y="981" type="line"/>
      <point x="563" y="53" type="line" smooth="yes"/>
      <point x="552" y="22"/>
      <point x="539" y="0"/>
      <point x="514" y="0" type="curve" smooth="yes"/>
      <point x="487" y="0"/>
      <point x="478" y="22"/>
      <point x="467" y="53" type="curve" smooth="yes"/>
      <point x="115" y="1032" type="line" smooth="yes"/>
      <point x="108" y="1051"/>
      <point x="101" y="1066"/>
      <point x="101" y="1081" type="curve" smooth="yes"/>
      <point x="101" y="1096"/>
      <point x="110" y="1114"/>
      <point x="137" y="1114" type="curve" smooth="yes"/>
      <point x="162" y="1114"/>
      <point x="173" y="1086"/>
      <point x="183" y="1059" type="curve" smooth="yes"/>
      <point x="514" y="125" type="line"/>
      <point x="848" y="1059" type="line" smooth="yes"/>
      <point x="858" y="1086"/>
      <point x="869" y="1114"/>
      <point x="893" y="1114" type="curve" smooth="yes"/>
      <point x="924" y="1114"/>
      <point x="932" y="1092"/>
      <point x="944" y="1059" type="curve" smooth="yes"/>
    </contour>
  </outline>
</glyph>
<glyph name="X" format="1">
  <advance width="1435"/>
  <unicode hex="0058"/>
  <outline>
    <contour>
      <point x="716" y="1114" type="move" name="top"/>
    </contour>
    <contour>
      <point x="716" y="0" type="move" name="bot"/>
    </contour>
    <contour>
      <point x="717" y="596" type="line"/>
      <point x="1213" y="1093" type="line" smooth="yes"/>
      <point x="1227" y="1107"/>
      <point x="1241" y="1113"/>
      <point x="1253" y="1113" type="curve" smooth="yes"/>
      <point x="1271" y="1113"/>
      <point x="1284" y="1098"/>
      <point x="1284" y="1079" type="curve" smooth="yes"/>
      <point x="1284" y="1068"/>
      <point x="1279" y="1054"/>
      <point x="1267" y="1042" type="curve" smooth="yes"/>
      <point x="769" y="547" type="line"/>
      <point x="1276" y="75" type="line" smooth="yes"/>
      <point x="1293" y="59"/>
      <point x="1300" y="41"/>
      <point x="1300" y="28" type="curve" smooth="yes"/>
      <point x="1300" y="12"/>
      <point x="1289" y="0"/>
      <point x="1273" y="0" type="curve" smooth="yes"/>
      <point x="1260" y="0"/>
      <point x="1244" y="7"/>
      <point x="1226" y="24" type="curve" smooth="yes"/>
      <point x="717" y="498" type="line"/>
      <point x="208" y="23" type="line" smooth="yes"/>
      <point x="190" y="6"/>
      <point x="173" y="0"/>
      <point x="161" y="0" type="curve" smooth="yes"/>
      <point x="144" y="0"/>
      <point x="133" y="11"/>
      <point x="133" y="27" type="curve" smooth="yes"/>
      <point x="133" y="41"/>
      <point x="141" y="58"/>
      <point x="158" y="74" type="curve" smooth="yes"/>
      <point x="665" y="547" type="line"/>
      <point x="167" y="1042" type="line" smooth="yes"/>
      <point x="155" y="1054"/>
      <point x="149" y="1067"/>
      <point x="149" y="1079" type="curve" smooth="yes"/>
      <point x="149" y="1098"/>
      <point x="162" y="1113"/>
      <point x="181" y="1113" type="curve" smooth="yes"/>
      <point x="193" y="1113"/>
      <point x="207" y="1107"/>
      <point x="221" y="1093" type="curve" smooth="yes"/>
    </contour>
  </outline>
</glyph>
<glyph name="Y" format="1">
  <advance width="1165"/>
  <unicode hex="0059"/>
  <outline>
    <contour>
      <point x="582" y="1114" type="move" name="top"/>
    </contour>
    <contour>
      <point x="582" y="0" type="move" name="bot"/>
    </contour>
    <contour>
      <point x="583" y="535" type="line"/>
      <point x="1040" y="1089" type="line" smooth="yes"/>
      <point x="1054" y="1106"/>
      <point x="1069" y="1113"/>
      <point x="1082" y="1113" type="curve" smooth="yes"/>
      <point x="1103" y="1113"/>
      <point x="1115" y="1099"/>
      <point x="1115" y="1077" type="curve" smooth="yes"/>
      <point x="1115" y="1066"/>
      <point x="1109" y="1053"/>
      <point x="1098" y="1040" type="curve" smooth="yes"/>
      <point x="626" y="471" type="line"/>
      <point x="626" y="69" type="line" smooth="yes"/>
      <point x="626" y="30"/>
      <point x="619" y="0"/>
      <point x="586" y="0" type="curve" smooth="yes"/>
      <point x="547" y="0"/>
      <point x="541" y="32"/>
      <point x="541" y="67" type="curve" smooth="yes"/>
      <point x="541" y="473" type="line"/>
      <point x="67" y="1040" type="line" smooth="yes"/>
      <point x="54" y="1055"/>
      <point x="50" y="1066"/>
      <point x="50" y="1080" type="curve" smooth="yes"/>
      <point x="50" y="1100"/>
      <point x="64" y="1114"/>
      <point x="83" y="1114" type="curve" smooth="yes"/>
      <point x="96" y="1114"/>
      <point x="112" y="1106"/>
      <point x="126" y="1089" type="curve" smooth="yes"/>
    </contour>
  </outline>
</glyph>
<glyph name="Z" format="1">
  <advance width="1335"/>
  <unicode hex="005A"/>
  <outline>
    <contour>
      <point x="668" y="1114" type="move" name="top"/>
    </contour>
    <contour>
      <point x="668" y="0" type="move" name="bot"/>
    </contour>
    <contour>
      <point x="172" y="66" type="line"/>
      <point x="1212" y="66" type="line" smooth="yes"/>
      <point x="1243" y="66"/>
      <point x="1259" y="49"/>
      <point x="1259" y="33" type="curve" smooth="yes"/>
      <point x="1259" y="16"/>
      <point x="1243" y="0"/>
      <point x="1212" y="0" type="curve" smooth="yes"/>
      <point x="120" y="0" type="line" smooth="yes"/>
      <point x="71" y="0"/>
      <point x="47" y="0"/>
      <point x="47" y="36" type="curve" smooth="yes"/>
      <point x="47" y="57"/>
      <point x="58" y="69"/>
      <point x="79" y="88" type="curve" smooth="yes"/>
      <point x="1163" y="1048" type="line"/>
      <point x="120" y="1048" type="line" smooth="yes"/>
      <point x="89" y="1048"/>
      <point x="75" y="1064"/>
      <point x="75" y="1081" type="curve" smooth="yes"/>
      <point x="75" y="1097"/>
      <point x="89" y="1114"/>
      <point x="120" y="1114" type="curve" smooth="yes"/>
      <point x="1208" y="1114" type="line" smooth="yes"/>
      <point x="1255" y="1114"/>
      <point x="1290" y="1112"/>
      <point x="1290" y="1079" type="curve" smooth="yes"/>
      <point x="1290" y="1060"/>
      <point x="1272" y="1042"/>
      <point x="1257" y="1026" type="curve"/>
    </contour>
  </outline>
</glyph>
<glyph name="bracketleft" format="1">
  <advance width="391"/>
  <unicode hex="005B"/>
  <outline>
    <contour>
      <point x="332" y="-174" type="curve" smooth="yes"/>
      <point x="332" y="-205"/>
      <point x="300" y="-209"/>
      <point x="261" y="-209" type="curve" smooth="yes"/>
      <point x="154" y="-209" type="line" smooth="yes"/>
      <point x="114" y="-209"/>
      <point x="115" y="-178"/>
      <point x="115" y="-139" type="curve" smooth="yes"/>
      <point x="115" y="1253" type="line" smooth="yes"/>
      <point x="115" y="1292"/>
      <point x="115" y="1323"/>
      <point x="156" y="1323" type="curve" smooth="yes"/>
      <point x="261" y="1323" type="line" smooth="yes"/>
      <point x="300" y="1323"/>
      <point x="332" y="1323"/>
      <point x="332" y="1290" type="curve" smooth="yes"/>
      <point x="332" y="1251"/>
      <point x="300" y="1253"/>
      <point x="261" y="1253" type="curve" smooth="yes"/>
      <point x="187" y="1253" type="line"/>
      <point x="187" y="-139" type="line"/>
      <point x="217" y="-139"/>
      <point x="244" y="-138"/>
      <point x="265" y="-138" type="curve" smooth="yes"/>
      <point x="308" y="-138"/>
      <point x="332" y="-143"/>
    </contour>
  </outline>
</glyph>
<glyph name="backslash" format="1">
  <advance width="644"/>
  <unicode hex="005C"/>
  <outline>
    <contour>
      <point x="582" y="16" type="line"/>
      <point x="593" y="-7"/>
      <point x="596" y="-22"/>
      <point x="596" y="-33" type="curve" smooth="yes"/>
      <point x="596" y="-48"/>
      <point x="586" y="-63"/>
      <point x="561" y="-63" type="curve" smooth="yes"/>
      <point x="537" y="-63"/>
      <point x="525" y="-37"/>
      <point x="514" y="-10" type="curve" smooth="yes"/>
      <point x="62" y="1092" type="line"/>
      <point x="51" y="1115"/>
      <point x="47" y="1130"/>
      <point x="47" y="1141" type="curve" smooth="yes"/>
      <point x="47" y="1156"/>
      <point x="57" y="1174"/>
      <point x="84" y="1174" type="curve" smooth="yes"/>
      <point x="108" y="1174"/>
      <point x="116" y="1145"/>
      <point x="129" y="1118" type="curve"/>
    </contour>
  </outline>
</glyph>
<glyph name="bracketright" format="1">
  <advance width="390"/>
  <unicode hex="005D"/>
  <outline>
    <contour>
      <point x="58" y="-174" type="curve" smooth="yes"/>
      <point x="58" y="-132"/>
      <point x="117" y="-139"/>
      <point x="204" y="-139" type="curve"/>
      <point x="204" y="1253" type="line"/>
      <point x="130" y="1253" type="line" smooth="yes"/>
      <point x="95" y="1253"/>
      <point x="58" y="1251"/>
      <point x="58" y="1290" type="curve" smooth="yes"/>
      <point x="58" y="1323"/>
      <point x="95" y="1323"/>
      <point x="130" y="1323" type="curve" smooth="yes"/>
      <point x="234" y="1323" type="line" smooth="yes"/>
      <point x="275" y="1323"/>
      <point x="275" y="1292"/>
      <point x="275" y="1253" type="curve" smooth="yes"/>
      <point x="275" y="-139" type="line" smooth="yes"/>
      <point x="275" y="-178"/>
      <point x="276" y="-209"/>
      <point x="236" y="-209" type="curve" smooth="yes"/>
      <point x="130" y="-209" type="line" smooth="yes"/>
      <point x="95" y="-209"/>
      <point x="58" y="-205"/>
    </contour>
  </outline>
</glyph>
<glyph name="underscore" format="1">
  <advance width="1511"/>
  <unicode hex="005F"/>
  <outline>
    <contour>
      <point x="1388" y="228" type="curve" smooth="yes"/>
      <point x="1388" y="205"/>
      <point x="1377" y="184"/>
      <point x="1350" y="184" type="curve" smooth="yes"/>
      <point x="160" y="184" type="line" smooth="yes"/>
      <point x="133" y="184"/>
      <point x="123" y="205"/>
      <point x="123" y="228" type="curve" smooth="yes"/>
      <point x="123" y="251"/>
      <point x="133" y="272"/>
      <point x="160" y="272" type="curve" smooth="yes"/>
      <point x="1350" y="272" type="line" smooth="yes"/>
      <point x="1377" y="272"/>
      <point x="1388" y="251"/>
    </contour>
  </outline>
</glyph>
<glyph name="grave" format="1">
  <advance width="376"/>
  <unicode hex="0060"/>
  <outline>
    <contour>
      <point x="186" y="775" type="move" name="_top"/>
    </contour>
    <contour>
      <point x="353" y="1013" type="line" smooth="yes"/>
      <point x="358" y="1008"/>
      <point x="361" y="1002"/>
      <point x="361" y="995" type="curve" smooth="yes"/>
      <point x="361" y="980"/>
      <point x="349" y="969"/>
      <point x="334" y="969" type="curve" smooth="yes"/>
      <point x="328" y="969"/>
      <point x="323" y="971"/>
      <point x="319" y="974" type="curve" smooth="yes"/>
      <point x="27" y="1211" type="line" smooth="yes"/>
      <point x="17" y="1219"/>
      <point x="12" y="1228"/>
      <point x="12" y="1239" type="curve" smooth="yes"/>
      <point x="12" y="1268"/>
      <point x="47" y="1300"/>
      <point x="76" y="1300" type="curve" smooth="yes"/>
      <point x="85" y="1300"/>
      <point x="94" y="1296"/>
      <point x="101" y="1289" type="curve" smooth="yes"/>
    </contour>
  </outline>
</glyph>
<glyph name="a" format="1">
  <advance width="1191"/>
  <unicode hex="0061"/>
  <outline>
    <contour>
      <point x="589" y="775" type="move" name="top"/>
    </contour>
    <contour>
      <point x="1003" y="0" type="move" name="bot"/>
    </contour>
    <contour>
      <point x="214" y="224" type="curve" smooth="yes"/>
      <point x="214" y="97"/>
      <point x="352" y="49"/>
      <point x="544" y="49" type="curve" smooth="yes"/>
      <point x="778" y="49"/>
      <point x="903" y="123"/>
      <point x="963" y="178" type="curve"/>
      <point x="963" y="379" type="line"/>
      <point x="833" y="397"/>
      <point x="682" y="418"/>
      <point x="540" y="418" type="curve" smooth="yes"/>
      <point x="335" y="418"/>
      <point x="214" y="376"/>
    </contour>
    <contour>
      <point x="639" y="727" type="curve" smooth="yes"/>
      <point x="392" y="727"/>
      <point x="295" y="699"/>
      <point x="227" y="676" type="curve" smooth="yes"/>
      <point x="224" y="675"/>
      <point x="222" y="674"/>
      <point x="219" y="674" type="curve" smooth="yes"/>
      <point x="203" y="674"/>
      <point x="187" y="694"/>
      <point x="187" y="712" type="curve" smooth="yes"/>
      <point x="187" y="720"/>
      <point x="191" y="727"/>
      <point x="199" y="731" type="curve" smooth="yes"/>
      <point x="221" y="742"/>
      <point x="351" y="786"/>
      <point x="640" y="786" type="curve" smooth="yes"/>
      <point x="844" y="786"/>
      <point x="1044" y="723"/>
      <point x="1044" y="358" type="curve" smooth="yes"/>
      <point x="1044" y="70" type="line" smooth="yes"/>
      <point x="1044" y="39"/>
      <point x="1040" y="0"/>
      <point x="1003" y="0" type="curve" smooth="yes"/>
      <point x="972" y="0"/>
      <point x="963" y="31"/>
      <point x="963" y="74" type="curve" smooth="yes"/>
      <point x="963" y="143" type="line"/>
      <point x="910" y="76"/>
      <point x="799" y="-10"/>
      <point x="552" y="-10" type="curve" smooth="yes"/>
      <point x="319" y="-10"/>
      <point x="134" y="56"/>
      <point x="134" y="224" type="curve" smooth="yes"/>
      <point x="134" y="419"/>
      <point x="308" y="477"/>
      <point x="532" y="477" type="curve" smooth="yes"/>
      <point x="702" y="477"/>
      <point x="878" y="454"/>
      <point x="963" y="409" type="curve"/>
      <point x="963" y="680"/>
      <point x="808" y="727"/>
    </contour>
  </outline>
</glyph>
<glyph name="c" format="1">
  <advance width="1132"/>
  <unicode hex="0063"/>
  <outline>
    <contour>
      <point x="566" y="775" type="move" name="top"/>
    </contour>
    <contour>
      <point x="566" y="0" type="move" name="bot"/>
    </contour>
    <contour>
      <point x="628" y="727" type="curve" smooth="yes"/>
      <point x="322" y="727"/>
      <point x="200" y="629"/>
      <point x="200" y="385" type="curve" smooth="yes"/>
      <point x="200" y="140"/>
      <point x="342" y="49"/>
      <point x="627" y="49" type="curve" smooth="yes"/>
      <point x="754" y="49"/>
      <point x="900" y="90"/>
      <point x="964" y="122" type="curve" smooth="yes"/>
      <point x="971" y="125"/>
      <point x="978" y="127"/>
      <point x="985" y="127" type="curve" smooth="yes"/>
      <point x="1002" y="127"/>
      <point x="1013" y="116"/>
      <point x="1013" y="101" type="curve" smooth="yes"/>
      <point x="1013" y="90"/>
      <point x="1007" y="78"/>
      <point x="992" y="70" type="curve" smooth="yes"/>
      <point x="876" y="10"/>
      <point x="745" y="-10"/>
      <point x="628" y="-10" type="curve" smooth="yes"/>
      <point x="325" y="-10"/>
      <point x="120" y="74"/>
      <point x="120" y="385" type="curve" smooth="yes"/>
      <point x="120" y="694"/>
      <point x="305" y="786"/>
      <point x="628" y="786" type="curve" smooth="yes"/>
      <point x="745" y="786"/>
      <point x="876" y="766"/>
      <point x="992" y="706" type="curve" smooth="yes"/>
      <point x="1007" y="698"/>
      <point x="1013" y="686"/>
      <point x="1013" y="675" type="curve" smooth="yes"/>
      <point x="1013" y="660"/>
      <point x="1002" y="649"/>
      <point x="985" y="649" type="curve" smooth="yes"/>
      <point x="978" y="649"/>
      <point x="971" y="651"/>
      <point x="964" y="654" type="curve" smooth="yes"/>
      <point x="900" y="686"/>
      <point x="754" y="727"/>
    </contour>
  </outline>
</glyph>
<glyph name="d" format="1">
  <advance width="1255"/>
  <unicode hex="0064"/>
  <outline>
    <contour>
      <point x="609" y="775" type="move" name="top"/>
    </contour>
    <contour>
      <point x="609" y="0" type="move" name="bot"/>
    </contour>
    <contour>
      <point x="566" y="-10" type="curve" smooth="yes"/>
      <point x="326" y="-10"/>
      <point x="123" y="79"/>
      <point x="123" y="380" type="curve" smooth="yes"/>
      <point x="123" y="679"/>
      <point x="283" y="786"/>
      <point x="566" y="786" type="curve" smooth="yes"/>
      <point x="846" y="786"/>
      <point x="965" y="710"/>
      <point x="1016" y="659" type="curve"/>
      <point x="1016" y="1043" type="line" smooth="yes"/>
      <point x="1016" y="1079"/>
      <point x="1016" y="1114"/>
      <point x="1055" y="1114" type="curve" smooth="yes"/>
      <point x="1094" y="1114"/>
      <point x="1096" y="1084"/>
      <point x="1096" y="1045" type="curve" smooth="yes"/>
      <point x="1096" y="54" type="line" smooth="yes"/>
      <point x="1096" y="11"/>
      <point x="1076" y="0"/>
      <point x="1057" y="0" type="curve" smooth="yes"/>
      <point x="1034" y="0"/>
      <point x="1016" y="9"/>
      <point x="1016" y="52" type="curve" smooth="yes"/>
      <point x="1016" y="191" type="line"/>
      <point x="972" y="20"/>
      <point x="703" y="-10"/>
    </contour>
    <contour>
      <point x="566" y="49" type="curve"/>
      <point x="726" y="52"/>
      <point x="968" y="85"/>
      <point x="1016" y="252" type="curve"/>
      <point x="1016" y="612" type="line"/>
      <point x="956" y="661"/>
      <point x="833" y="727"/>
      <point x="566" y="727" type="curve" smooth="yes"/>
      <point x="310" y="727"/>
      <point x="203" y="623"/>
      <point x="203" y="380" type="curve" smooth="yes"/>
      <point x="203" y="128"/>
      <point x="365" y="49"/>
    </contour>
  </outline>
</glyph>
<glyph name="e" format="1">
  <advance width="1130"/>
  <unicode hex="0065"/>
  <outline>
    <contour>
      <point x="568" y="775" type="move" name="top"/>
    </contour>
    <contour>
      <point x="858" y="49" type="move" name="bot"/>
    </contour>
    <contour>
      <point x="600" y="727" type="curve" smooth="yes"/>
      <point x="353" y="727"/>
      <point x="213" y="646"/>
      <point x="202" y="431" type="curve"/>
      <point x="956" y="431" type="line"/>
      <point x="956" y="485" type="line" smooth="yes"/>
      <point x="956" y="618"/>
      <point x="864" y="727"/>
    </contour>
    <contour>
      <point x="548" y="49" type="curve" smooth="yes"/>
      <point x="801" y="49"/>
      <point x="922" y="123"/>
      <point x="970" y="155" type="curve" smooth="yes"/>
      <point x="973" y="157"/>
      <point x="975" y="157"/>
      <point x="978" y="157" type="curve" smooth="yes"/>
      <point x="992" y="157"/>
      <point x="1008" y="140"/>
      <point x="1008" y="124" type="curve" smooth="yes"/>
      <point x="1008" y="118"/>
      <point x="1005" y="111"/>
      <point x="998" y="106" type="curve"/>
      <point x="975" y="83"/>
      <point x="843" y="-10"/>
      <point x="547" y="-10" type="curve" smooth="yes"/>
      <point x="238" y="-10"/>
      <point x="121" y="152"/>
      <point x="121" y="385" type="curve" smooth="yes"/>
      <point x="121" y="694"/>
      <point x="331" y="786"/>
      <point x="600" y="786" type="curve" smooth="yes"/>
      <point x="877" y="786"/>
      <point x="1015" y="676"/>
      <point x="1015" y="479" type="curve" smooth="yes"/>
      <point x="1015" y="443"/>
      <point x="1002" y="379"/>
      <point x="991" y="379" type="curve" smooth="yes"/>
      <point x="697" y="379" type="line"/>
      <point x="201" y="389" type="line"/>
      <point x="206" y="142"/>
      <point x="322" y="49"/>
    </contour>
  </outline>
</glyph>
<glyph name="f" format="1">
  <advance width="689"/>
  <unicode hex="0066"/>
  <outline>
    <contour>
      <point x="377" y="775" type="move" name="top"/>
    </contour>
    <contour>
      <point x="377" y="0" type="move" name="bot"/>
    </contour>
    <contour>
      <point x="264" y="751" type="line"/>
      <point x="629" y="751" type="line" smooth="yes"/>
      <point x="649" y="751"/>
      <point x="659" y="739"/>
      <point x="659" y="727" type="curve" smooth="yes"/>
      <point x="659" y="715"/>
      <point x="648" y="703"/>
      <point x="629" y="703" type="curve" smooth="yes"/>
      <point x="264" y="703" type="line"/>
      <point x="264" y="49" type="line" smooth="yes"/>
      <point x="264" y="6"/>
      <point x="247" y="0"/>
      <point x="224" y="0" type="curve" smooth="yes"/>
      <point x="205" y="0"/>
      <point x="184" y="6"/>
      <point x="184" y="49" type="curve" smooth="yes"/>
      <point x="184" y="703" type="line"/>
      <point x="96" y="703" type="line" smooth="yes"/>
      <point x="77" y="703"/>
      <point x="68" y="715"/>
      <point x="68" y="727" type="curve" smooth="yes"/>
      <point x="68" y="739"/>
      <point x="77" y="751"/>
      <point x="96" y="751" type="curve" smooth="yes"/>
      <point x="185" y="751" type="line"/>
      <point x="185" y="816" type="line" smooth="yes"/>
      <point x="185" y="1032"/>
      <point x="276" y="1105"/>
      <point x="419" y="1105" type="curve" smooth="yes"/>
      <point x="499" y="1105"/>
      <point x="558" y="1098"/>
      <point x="655" y="1066" type="curve" smooth="yes"/>
      <point x="674" y="1059"/>
      <point x="686" y="1048"/>
      <point x="686" y="1035" type="curve" smooth="yes"/>
      <point x="686" y="1025"/>
      <point x="675" y="1010"/>
      <point x="655" y="1010" type="curve" smooth="yes"/>
      <point x="649" y="1010"/>
      <point x="643" y="1011"/>
      <point x="636" y="1014" type="curve" smooth="yes"/>
      <point x="564" y="1039"/>
      <point x="497" y="1047"/>
      <point x="433" y="1047" type="curve" smooth="yes"/>
      <point x="328" y="1047"/>
      <point x="264" y="1012"/>
      <point x="264" y="816" type="curve" smooth="yes"/>
    </contour>
  </outline>
</glyph>
<glyph name="g" format="1">
  <advance width="1239"/>
  <unicode hex="0067"/>
  <outline>
    <contour>
      <point x="600" y="775" type="move" name="top"/>
    </contour>
    <contour>
      <point x="600" y="0" type="move" name="bot"/>
    </contour>
    <contour>
      <point x="647" y="717" type="curve" smooth="yes"/>
      <point x="330" y="717"/>
      <point x="201" y="629"/>
      <point x="201" y="383" type="curve" smooth="yes"/>
      <point x="201" y="137"/>
      <point x="305" y="49"/>
      <point x="606" y="49" type="curve" smooth="yes"/>
      <point x="744" y="49"/>
      <point x="891" y="78"/>
      <point x="1000" y="150" type="curve"/>
      <point x="1000" y="524" type="line"/>
      <point x="981" y="599"/>
      <point x="913" y="717"/>
    </contour>
    <contour>
      <point x="621" y="-270" type="curve" smooth="yes"/>
      <point x="840" y="-270"/>
      <point x="1000" y="-195"/>
      <point x="1000" y="-23" type="curve" smooth="yes"/>
      <point x="1000" y="96" type="line"/>
      <point x="885" y="16"/>
      <point x="734" y="-10"/>
      <point x="602" y="-10" type="curve" smooth="yes"/>
      <point x="299" y="-10"/>
      <point x="121" y="70"/>
      <point x="121" y="383" type="curve" smooth="yes"/>
      <point x="121" y="695"/>
      <point x="327" y="786"/>
      <point x="639" y="786" type="curve" smooth="yes"/>
      <point x="914" y="786"/>
      <point x="981" y="670"/>
      <point x="1000" y="594" type="curve"/>
      <point x="1000" y="618"/>
      <point x="997" y="651"/>
      <point x="997" y="682" type="curve" smooth="yes"/>
      <point x="997" y="727"/>
      <point x="1003" y="766"/>
      <point x="1032" y="766" type="curve" smooth="yes"/>
      <point x="1071" y="766"/>
      <point x="1080" y="728"/>
      <point x="1080" y="696" type="curve" smooth="yes"/>
      <point x="1080" y="-23" type="line" smooth="yes"/>
      <point x="1080" y="-234"/>
      <point x="914" y="-340"/>
      <point x="621" y="-340" type="curve" smooth="yes"/>
      <point x="428" y="-340"/>
      <point x="327" y="-299"/>
      <point x="254" y="-258" type="curve"/>
      <point x="240" y="-254"/>
      <point x="213" y="-235"/>
      <point x="213" y="-213" type="curve" smooth="yes"/>
      <point x="213" y="-188"/>
      <point x="238" y="-178"/>
      <point x="246" y="-178" type="curve" smooth="yes"/>
      <point x="269" y="-178"/>
      <point x="311" y="-216"/>
      <point x="371" y="-233" type="curve"/>
      <point x="427" y="-252"/>
      <point x="505" y="-270"/>
    </contour>
  </outline>
</glyph>
<glyph name="h" format="1">
  <advance width="1198"/>
  <unicode hex="0068"/>
  <outline>
    <contour>
      <point x="605" y="775" type="move" name="top"/>
    </contour>
    <contour>
      <point x="605" y="0" type="move" name="bot"/>
    </contour>
    <contour>
      <point x="1051" y="72" type="line" smooth="yes"/>
      <point x="1051" y="37"/>
      <point x="1045" y="0"/>
      <point x="1013" y="0" type="curve" smooth="yes"/>
      <point x="974" y="0"/>
      <point x="971" y="37"/>
      <point x="971" y="72" type="curve" smooth="yes"/>
      <point x="971" y="418" type="line" smooth="yes"/>
      <point x="971" y="626"/>
      <point x="920" y="727"/>
      <point x="664" y="727" type="curve" smooth="yes"/>
      <point x="509" y="727"/>
      <point x="287" y="681"/>
      <point x="239" y="524" type="curve"/>
      <point x="239" y="72" type="line" smooth="yes"/>
      <point x="239" y="37"/>
      <point x="233" y="0"/>
      <point x="201" y="0" type="curve" smooth="yes"/>
      <point x="163" y="0"/>
      <point x="159" y="37"/>
      <point x="159" y="72" type="curve" smooth="yes"/>
      <point x="159" y="1044" type="line" smooth="yes"/>
      <point x="159" y="1076"/>
      <point x="163" y="1114"/>
      <point x="201" y="1114" type="curve" smooth="yes"/>
      <point x="233" y="1114"/>
      <point x="239" y="1079"/>
      <point x="239" y="1044" type="curve" smooth="yes"/>
      <point x="239" y="594" type="line"/>
      <point x="283" y="755"/>
      <point x="528" y="786"/>
      <point x="664" y="786" type="curve" smooth="yes"/>
      <point x="952" y="786"/>
      <point x="1051" y="695"/>
      <point x="1051" y="418" type="curve" smooth="yes"/>
    </contour>
  </outline>
</glyph>
<glyph name="i" format="1">
  <advance width="426"/>
  <unicode hex="0069"/>
  <outline>
    <contour>
      <point x="213" y="775" type="move" name="top"/>
    </contour>
    <contour>
      <point x="213" y="0" type="move" name="bot"/>
    </contour>
    <contour>
      <point x="252" y="63" type="line" smooth="yes"/>
      <point x="252" y="28"/>
      <point x="251" y="0"/>
      <point x="212" y="0" type="curve" smooth="yes"/>
      <point x="175" y="0"/>
      <point x="172" y="24"/>
      <point x="172" y="63" type="curve" smooth="yes"/>
      <point x="172" y="705" type="line" smooth="yes"/>
      <point x="172" y="738"/>
      <point x="177" y="766"/>
      <point x="214" y="766" type="curve" smooth="yes"/>
      <point x="247" y="766"/>
      <point x="252" y="737"/>
      <point x="252" y="707" type="curve" smooth="yes"/>
    </contour>
    <contour>
      <point x="159" y="992" type="curve" smooth="yes"/>
      <point x="159" y="1023"/>
      <point x="181" y="1046"/>
      <point x="212" y="1046" type="curve" smooth="yes"/>
      <point x="243" y="1046"/>
      <point x="267" y="1023"/>
      <point x="267" y="992" type="curve" smooth="yes"/>
      <point x="267" y="961"/>
      <point x="243" y="941"/>
      <point x="212" y="941" type="curve" smooth="yes"/>
      <point x="181" y="941"/>
      <point x="159" y="961"/>
    </contour>
  </outline>
</glyph>
<glyph name="j" format="1">
  <advance width="483"/>
  <unicode hex="006A"/>
  <outline>
    <contour>
      <point x="190" y="0" type="move" name="bot"/>
    </contour>
    <contour>
      <point x="359" y="94" type="line" smooth="yes"/>
      <point x="359" y="-45"/>
      <point x="355" y="-266"/>
      <point x="66" y="-266" type="curve" smooth="yes"/>
      <point x="31" y="-266"/>
      <point x="0" y="-266"/>
      <point x="0" y="-231" type="curve" smooth="yes"/>
      <point x="0" y="-196"/>
      <point x="31" y="-197"/>
      <point x="66" y="-197" type="curve" smooth="yes"/>
      <point x="287" y="-197"/>
      <point x="279" y="-45"/>
      <point x="279" y="94" type="curve" smooth="yes"/>
      <point x="279" y="714" type="line" smooth="yes"/>
      <point x="279" y="743"/>
      <point x="285" y="766"/>
      <point x="320" y="766" type="curve" smooth="yes"/>
      <point x="359" y="766"/>
      <point x="359" y="743"/>
      <point x="359" y="714" type="curve" smooth="yes"/>
    </contour>
    <contour>
      <point x="265" y="992" type="curve" smooth="yes"/>
      <point x="265" y="1023"/>
      <point x="287" y="1046"/>
      <point x="318" y="1046" type="curve" smooth="yes"/>
      <point x="349" y="1046"/>
      <point x="373" y="1023"/>
      <point x="373" y="992" type="curve" smooth="yes"/>
      <point x="373" y="961"/>
      <point x="349" y="941"/>
      <point x="318" y="941" type="curve" smooth="yes"/>
      <point x="287" y="941"/>
      <point x="265" y="961"/>
    </contour>
  </outline>
</glyph>
<glyph name="k" format="1">
  <advance width="999"/>
  <unicode hex="006B"/>
  <outline>
    <contour>
      <point x="549" y="766" type="move" name="top"/>
    </contour>
    <contour>
      <point x="554" y="0" type="move" name="bot"/>
    </contour>
    <contour>
      <point x="904" y="59" type="line"/>
      <point x="913" y="50"/>
      <point x="917" y="41"/>
      <point x="917" y="30" type="curve" smooth="yes"/>
      <point x="917" y="13"/>
      <point x="904" y="0"/>
      <point x="885" y="0" type="curve" smooth="yes"/>
      <point x="874" y="0"/>
      <point x="863" y="5"/>
      <point x="851" y="16" type="curve" smooth="yes"/>
      <point x="392" y="430" type="line"/>
      <point x="240" y="345" type="line"/>
      <point x="240" y="44" type="line" smooth="yes"/>
      <point x="240" y="13"/>
      <point x="219" y="0"/>
      <point x="200" y="0" type="curve" smooth="yes"/>
      <point x="183" y="0"/>
      <point x="160" y="13"/>
      <point x="160" y="44" type="curve" smooth="yes"/>
      <point x="160" y="1070" type="line" smooth="yes"/>
      <point x="160" y="1097"/>
      <point x="185" y="1110"/>
      <point x="202" y="1110" type="curve" smooth="yes"/>
      <point x="221" y="1110"/>
      <point x="240" y="1097"/>
      <point x="240" y="1070" type="curve" smooth="yes"/>
      <point x="240" y="410" type="line"/>
      <point x="866" y="774" type="line" smooth="yes"/>
      <point x="870" y="776"/>
      <point x="874" y="777"/>
      <point x="879" y="777" type="curve" smooth="yes"/>
      <point x="896" y="777"/>
      <point x="909" y="761"/>
      <point x="909" y="746" type="curve" smooth="yes"/>
      <point x="909" y="737"/>
      <point x="903" y="729"/>
      <point x="892" y="722" type="curve" smooth="yes"/>
      <point x="453" y="461" type="line"/>
    </contour>
  </outline>
</glyph>
<glyph name="m" format="1">
  <advance width="1630"/>
  <unicode hex="006D"/>
  <outline>
    <contour>
      <point x="821" y="775" type="move" name="top"/>
    </contour>
    <contour>
      <point x="821" y="0" type="move" name="bot"/>
    </contour>
    <contour>
      <point x="1403" y="489" type="line" smooth="yes"/>
      <point x="1403" y="674"/>
      <point x="1342" y="727"/>
      <point x="1215" y="727" type="curve" smooth="yes"/>
      <point x="1044" y="727"/>
      <point x="937" y="653"/>
      <point x="862" y="532" type="curve"/>
      <point x="862" y="52" type="line" smooth="yes"/>
      <point x="862" y="5"/>
      <point x="840" y="0"/>
      <point x="824" y="0" type="curve" smooth="yes"/>
      <point x="805" y="0"/>
      <point x="782" y="1"/>
      <point x="782" y="52" type="curve" smooth="yes"/>
      <point x="782" y="532" type="line" smooth="yes"/>
      <point x="782" y="653"/>
      <point x="728" y="727"/>
      <point x="603" y="727" type="curve" smooth="yes"/>
      <point x="415" y="727"/>
      <point x="271" y="636"/>
      <point x="239" y="528" type="curve"/>
      <point x="239" y="52" type="line" smooth="yes"/>
      <point x="239" y="5"/>
      <point x="220" y="0"/>
      <point x="204" y="0" type="curve" smooth="yes"/>
      <point x="185" y="0"/>
      <point x="159" y="1"/>
      <point x="159" y="52" type="curve" smooth="yes"/>
      <point x="159" y="717" type="line" smooth="yes"/>
      <point x="159" y="760"/>
      <point x="182" y="766"/>
      <point x="200" y="766" type="curve" smooth="yes"/>
      <point x="223" y="766"/>
      <point x="238" y="760"/>
      <point x="238" y="717" type="curve" smooth="yes"/>
      <point x="238" y="594" type="line"/>
      <point x="281" y="715"/>
      <point x="427" y="786"/>
      <point x="601" y="786" type="curve" smooth="yes"/>
      <point x="804" y="786"/>
      <point x="835" y="660"/>
      <point x="848" y="599" type="curve"/>
      <point x="895" y="682"/>
      <point x="1008" y="786"/>
      <point x="1213" y="786" type="curve" smooth="yes"/>
      <point x="1396" y="786"/>
      <point x="1483" y="696"/>
      <point x="1483" y="489" type="curve" smooth="yes"/>
      <point x="1483" y="52" type="line" smooth="yes"/>
      <point x="1483" y="5"/>
      <point x="1460" y="0"/>
      <point x="1444" y="0" type="curve" smooth="yes"/>
      <point x="1424" y="0"/>
      <point x="1403" y="1"/>
      <point x="1403" y="52" type="curve" smooth="yes"/>
    </contour>
  </outline>
</glyph>
<glyph name="n" format="1">
  <advance width="1192"/>
  <unicode hex="006E"/>
  <outline>
    <contour>
      <point x="605" y="775" type="move" name="top"/>
    </contour>
    <contour>
      <point x="605" y="0" type="move" name="bot"/>
    </contour>
    <contour>
      <point x="1045" y="72" type="line" smooth="yes"/>
      <point x="1045" y="37"/>
      <point x="1036" y="0"/>
      <point x="1004" y="0" type="curve" smooth="yes"/>
      <point x="965" y="0"/>
      <point x="965" y="37"/>
      <point x="965" y="72" type="curve" smooth="yes"/>
      <point x="965" y="418" type="line" smooth="yes"/>
      <point x="965" y="626"/>
      <point x="916" y="727"/>
      <point x="660" y="727" type="curve" smooth="yes"/>
      <point x="504" y="727"/>
      <point x="287" y="681"/>
      <point x="239" y="524" type="curve"/>
      <point x="239" y="72" type="line" smooth="yes"/>
      <point x="239" y="37"/>
      <point x="235" y="0"/>
      <point x="202" y="0" type="curve" smooth="yes"/>
      <point x="165" y="0"/>
      <point x="159" y="37"/>
      <point x="159" y="72" type="curve" smooth="yes"/>
      <point x="159" y="720" type="line" smooth="yes"/>
      <point x="159" y="742"/>
      <point x="164" y="766"/>
      <point x="201" y="766" type="curve" smooth="yes"/>
      <point x="234" y="766"/>
      <point x="239" y="745"/>
      <point x="239" y="720" type="curve" smooth="yes"/>
      <point x="239" y="594" type="line"/>
      <point x="314" y="766"/>
      <point x="524" y="786"/>
      <point x="660" y="786" type="curve" smooth="yes"/>
      <point x="948" y="786"/>
      <point x="1045" y="695"/>
      <point x="1045" y="418" type="curve" smooth="yes"/>
    </contour>
  </outline>
</glyph>
<glyph name="q" format="1">
  <advance width="1197"/>
  <unicode hex="0071"/>
  <outline>
    <contour>
      <point x="609" y="775" type="move" name="top"/>
    </contour>
    <contour>
      <point x="609" y="0" type="move" name="bot"/>
    </contour>
    <contour>
      <point x="566" y="786" type="curve" smooth="yes"/>
      <point x="706" y="786"/>
      <point x="968" y="755"/>
      <point x="1016" y="585" type="curve"/>
      <point x="1016" y="714" type="line" smooth="yes"/>
      <point x="1016" y="757"/>
      <point x="1036" y="766"/>
      <point x="1059" y="766" type="curve" smooth="yes"/>
      <point x="1078" y="766"/>
      <point x="1096" y="755"/>
      <point x="1096" y="712" type="curve" smooth="yes"/>
      <point x="1096" y="-269" type="line" smooth="yes"/>
      <point x="1096" y="-308"/>
      <point x="1094" y="-338"/>
      <point x="1055" y="-338" type="curve" smooth="yes"/>
      <point x="1016" y="-338"/>
      <point x="1016" y="-303"/>
      <point x="1016" y="-267" type="curve" smooth="yes"/>
      <point x="1016" y="117" type="line"/>
      <point x="965" y="64"/>
      <point x="846" y="-10"/>
      <point x="566" y="-10" type="curve" smooth="yes"/>
      <point x="283" y="-10"/>
      <point x="123" y="97"/>
      <point x="123" y="396" type="curve" smooth="yes"/>
      <point x="123" y="697"/>
      <point x="326" y="786"/>
    </contour>
    <contour>
      <point x="566" y="727" type="curve"/>
      <point x="365" y="727"/>
      <point x="203" y="648"/>
      <point x="203" y="396" type="curve" smooth="yes"/>
      <point x="203" y="153"/>
      <point x="310" y="49"/>
      <point x="566" y="49" type="curve" smooth="yes"/>
      <point x="833" y="49"/>
      <point x="953" y="113"/>
      <point x="1016" y="164" type="curve"/>
      <point x="1016" y="524" type="line"/>
      <point x="968" y="691"/>
      <point x="726" y="724"/>
    </contour>
  </outline>
</glyph>
<glyph name="r" format="1">
  <advance width="809"/>
  <unicode hex="0072"/>
  <outline>
    <contour>
      <point x="488" y="775" type="move" name="top"/>
    </contour>
    <contour>
      <point x="488" y="0" type="move" name="bot"/>
    </contour>
    <contour>
      <point x="748" y="762" type="curve" smooth="yes"/>
      <point x="762" y="758"/>
      <point x="769" y="745"/>
      <point x="769" y="732" type="curve" smooth="yes"/>
      <point x="769" y="715"/>
      <point x="758" y="697"/>
      <point x="735" y="697" type="curve" smooth="yes"/>
      <point x="729" y="697"/>
      <point x="729" y="698"/>
      <point x="723" y="699" type="curve"/>
      <point x="671" y="714"/>
      <point x="626" y="722"/>
      <point x="571" y="722" type="curve" smooth="yes"/>
      <point x="414" y="722"/>
      <point x="281" y="662"/>
      <point x="238" y="530" type="curve"/>
      <point x="238" y="70" type="line" smooth="yes"/>
      <point x="238" y="35"/>
      <point x="232" y="0"/>
      <point x="199" y="0" type="curve" smooth="yes"/>
      <point x="161" y="0"/>
      <point x="158" y="35"/>
      <point x="158" y="70" type="curve" smooth="yes"/>
      <point x="158" y="710" type="line" smooth="yes"/>
      <point x="158" y="740"/>
      <point x="165" y="766"/>
      <point x="203" y="766" type="curve" smooth="yes"/>
      <point x="232" y="766"/>
      <point x="238" y="742"/>
      <point x="238" y="710" type="curve" smooth="yes"/>
      <point x="238" y="594" type="line"/>
      <point x="281" y="758"/>
      <point x="467" y="786"/>
      <point x="571" y="786" type="curve" smooth="yes"/>
      <point x="673" y="786"/>
      <point x="711" y="772"/>
    </contour>
  </outline>
</glyph>
<glyph name="t" format="1">
  <advance width="714"/>
  <unicode hex="0074"/>
  <outline>
    <contour>
      <point x="387" y="775" type="move" name="top"/>
    </contour>
    <contour>
      <point x="387" y="0" type="move" name="bot"/>
    </contour>
    <contour>
      <point x="597" y="751" type="line" smooth="yes"/>
      <point x="617" y="751"/>
      <point x="627" y="739"/>
      <point x="627" y="727" type="curve" smooth="yes"/>
      <point x="627" y="715"/>
      <point x="617" y="703"/>
      <point x="597" y="703" type="curve" smooth="yes"/>
      <point x="265" y="703" type="line"/>
      <point x="265" y="279" type="line" smooth="yes"/>
      <point x="265" y="84"/>
      <point x="350" y="49"/>
      <point x="454" y="49" type="curve" smooth="yes"/>
      <point x="518" y="49"/>
      <point x="574" y="72"/>
      <point x="654" y="115" type="curve" smooth="yes"/>
      <point x="662" y="119"/>
      <point x="670" y="121"/>
      <point x="677" y="121" type="curve" smooth="yes"/>
      <point x="694" y="121"/>
      <point x="705" y="110"/>
      <point x="705" y="95" type="curve" smooth="yes"/>
      <point x="705" y="82"/>
      <point x="698" y="71"/>
      <point x="683" y="63" type="curve" smooth="yes"/>
      <point x="571" y="2"/>
      <point x="518" y="-10"/>
      <point x="440" y="-10" type="curve" smooth="yes"/>
      <point x="296" y="-10"/>
      <point x="185" y="63"/>
      <point x="185" y="279" type="curve" smooth="yes"/>
      <point x="185" y="703" type="line"/>
      <point x="97" y="703" type="line" smooth="yes"/>
      <point x="78" y="703"/>
      <point x="69" y="715"/>
      <point x="69" y="727" type="curve" smooth="yes"/>
      <point x="69" y="739"/>
      <point x="78" y="751"/>
      <point x="97" y="751" type="curve" smooth="yes"/>
      <point x="185" y="751" type="line"/>
      <point x="185" y="1000" type="line" smooth="yes"/>
      <point x="185" y="1043"/>
      <point x="206" y="1049"/>
      <point x="225" y="1049" type="curve" smooth="yes"/>
      <point x="248" y="1049"/>
      <point x="265" y="1043"/>
      <point x="265" y="1000" type="curve" smooth="yes"/>
      <point x="265" y="751" type="line"/>
    </contour>
  </outline>
</glyph>
<glyph name="w" format="1">
  <advance width="1356"/>
  <unicode hex="0077"/>
  <outline>
    <contour>
      <point x="677" y="766" type="move" name="top"/>
    </contour>
    <contour>
      <point x="678" y="0" type="move" name="bot"/>
    </contour>
    <contour>
      <point x="952" y="90" type="line"/>
      <point x="1164" y="726" type="line"/>
      <point x="1175" y="755"/>
      <point x="1192" y="766"/>
      <point x="1209" y="766" type="curve" smooth="yes"/>
      <point x="1230" y="766"/>
      <point x="1250" y="748"/>
      <point x="1250" y="720" type="curve" smooth="yes"/>
      <point x="1250" y="713"/>
      <point x="1249" y="705"/>
      <point x="1246" y="698" type="curve" smooth="yes"/>
      <point x="1010" y="49" type="line" smooth="yes"/>
      <point x="997" y="14"/>
      <point x="975" y="-5"/>
      <point x="952" y="-5" type="curve" smooth="yes"/>
      <point x="930" y="-5"/>
      <point x="910" y="10"/>
      <point x="897" y="49" type="curve" smooth="yes"/>
      <point x="678" y="674" type="line"/>
      <point x="459" y="49" type="line" smooth="yes"/>
      <point x="445" y="10"/>
      <point x="425" y="-5"/>
      <point x="404" y="-5" type="curve" smooth="yes"/>
      <point x="380" y="-5"/>
      <point x="359" y="14"/>
      <point x="346" y="49" type="curve" smooth="yes"/>
      <point x="110" y="698" type="line" smooth="yes"/>
      <point x="107" y="705"/>
      <point x="106" y="713"/>
      <point x="106" y="720" type="curve" smooth="yes"/>
      <point x="106" y="748"/>
      <point x="126" y="766"/>
      <point x="147" y="766" type="curve" smooth="yes"/>
      <point x="164" y="766"/>
      <point x="181" y="755"/>
      <point x="192" y="726" type="curve"/>
      <point x="404" y="90" type="line"/>
      <point x="616" y="712" type="line" smooth="yes"/>
      <point x="628" y="749"/>
      <point x="652" y="766"/>
      <point x="677" y="766" type="curve" smooth="yes"/>
      <point x="702" y="766"/>
      <point x="728" y="748"/>
      <point x="740" y="712" type="curve" smooth="yes"/>
    </contour>
  </outline>
</glyph>
<glyph name="y" format="1">
  <advance width="1170"/>
  <unicode hex="0079"/>
  <outline>
    <contour>
      <point x="586" y="775" type="move" name="top"/>
    </contour>
    <contour>
      <point x="586" y="0" type="move" name="bot"/>
    </contour>
    <contour>
      <point x="587" y="-275" type="curve" smooth="yes"/>
      <point x="862" y="-275"/>
      <point x="946" y="-166"/>
      <point x="946" y="170" type="curve"/>
      <point x="902" y="7"/>
      <point x="672" y="-10"/>
      <point x="536" y="-10" type="curve" smooth="yes"/>
      <point x="249" y="-10"/>
      <point x="147" y="86"/>
      <point x="147" y="387" type="curve" smooth="yes"/>
      <point x="147" y="694" type="line" smooth="yes"/>
      <point x="147" y="729"/>
      <point x="150" y="766"/>
      <point x="186" y="766" type="curve" smooth="yes"/>
      <point x="225" y="766"/>
      <point x="227" y="729"/>
      <point x="227" y="694" type="curve" smooth="yes"/>
      <point x="227" y="387" type="line" smooth="yes"/>
      <point x="227" y="126"/>
      <point x="282" y="49"/>
      <point x="536" y="49" type="curve" smooth="yes"/>
      <point x="689" y="49"/>
      <point x="901" y="84"/>
      <point x="946" y="240" type="curve"/>
      <point x="946" y="694" type="line" smooth="yes"/>
      <point x="946" y="729"/>
      <point x="952" y="766"/>
      <point x="984" y="766" type="curve" smooth="yes"/>
      <point x="1023" y="766"/>
      <point x="1026" y="729"/>
      <point x="1026" y="694" type="curve" smooth="yes"/>
      <point x="1026" y="203" type="line" smooth="yes"/>
      <point x="1026" y="-208"/>
      <point x="901" y="-334"/>
      <point x="587" y="-334" type="curve" smooth="yes"/>
      <point x="364" y="-334"/>
      <point x="290" y="-281"/>
      <point x="238" y="-240" type="curve" smooth="yes"/>
      <point x="232" y="-235"/>
      <point x="230" y="-228"/>
      <point x="230" y="-221" type="curve" smooth="yes"/>
      <point x="230" y="-202"/>
      <point x="240" y="-188"/>
      <point x="261" y="-188" type="curve" smooth="yes"/>
      <point x="266" y="-188"/>
      <point x="272" y="-190"/>
      <point x="278" y="-194" type="curve" smooth="yes"/>
      <point x="329" y="-232"/>
      <point x="408" y="-275"/>
    </contour>
  </outline>
</glyph>
<glyph name="z" format="1">
  <advance width="1032"/>
  <unicode hex="007A"/>
  <outline>
    <contour>
      <point x="516" y="775" type="move" name="top"/>
    </contour>
    <contour>
      <point x="516" y="0" type="move" name="bot"/>
    </contour>
    <contour>
      <point x="151" y="0" type="line" smooth="yes"/>
      <point x="128" y="0"/>
      <point x="109" y="20"/>
      <point x="109" y="45" type="curve" smooth="yes"/>
      <point x="109" y="61"/>
      <point x="117" y="78"/>
      <point x="135" y="94" type="curve" smooth="yes"/>
      <point x="820" y="699" type="line"/>
      <point x="173" y="699" type="line" smooth="yes"/>
      <point x="134" y="699"/>
      <point x="100" y="697"/>
      <point x="100" y="730" type="curve" smooth="yes"/>
      <point x="100" y="769"/>
      <point x="132" y="766"/>
      <point x="171" y="766" type="curve" smooth="yes"/>
      <point x="875" y="766" type="line" smooth="yes"/>
      <point x="907" y="766"/>
      <point x="925" y="747"/>
      <point x="925" y="723" type="curve" smooth="yes"/>
      <point x="925" y="708"/>
      <point x="917" y="691"/>
      <point x="901" y="677" type="curve" smooth="yes"/>
      <point x="211" y="67" type="line"/>
      <point x="865" y="67" type="line" smooth="yes"/>
      <point x="904" y="67"/>
      <point x="938" y="70"/>
      <point x="938" y="31" type="curve" smooth="yes"/>
      <point x="938" y="-2"/>
      <point x="901" y="0"/>
      <point x="867" y="0" type="curve" smooth="yes"/>
    </contour>
  </outline>
</glyph>
<glyph name="braceleft" format="1">
  <advance width="605"/>
  <unicode hex="007B"/>
  <outline>
    <contour>
      <point x="42" y="782" type="curve" smooth="yes"/>
      <point x="481" y="782"/>
      <point x="41" y="1477"/>
      <point x="566" y="1477" type="curve" smooth="yes"/>
      <point x="589" y="1477"/>
      <point x="599" y="1460"/>
      <point x="599" y="1444" type="curve" smooth="yes"/>
      <point x="599" y="1427"/>
      <point x="589" y="1413"/>
      <point x="566" y="1413" type="curve" smooth="yes"/>
      <point x="549" y="1413" type="line" smooth="yes"/>
      <point x="190" y="1413"/>
      <point x="486" y="777"/>
      <point x="151" y="750" type="curve"/>
      <point x="486" y="723"/>
      <point x="189" y="86"/>
      <point x="549" y="86" type="curve" smooth="yes"/>
      <point x="556" y="86"/>
      <point x="561" y="87"/>
      <point x="568" y="87" type="curve" smooth="yes"/>
      <point x="589" y="87"/>
      <point x="599" y="71"/>
      <point x="599" y="56" type="curve" smooth="yes"/>
      <point x="599" y="39"/>
      <point x="589" y="23"/>
      <point x="566" y="23" type="curve" smooth="yes"/>
      <point x="41" y="23"/>
      <point x="481" y="718"/>
      <point x="42" y="718" type="curve" smooth="yes"/>
      <point x="19" y="718"/>
      <point x="9" y="734"/>
      <point x="9" y="750" type="curve" smooth="yes"/>
      <point x="9" y="766"/>
      <point x="19" y="782"/>
    </contour>
  </outline>
</glyph>
<glyph name="braceright" format="1">
  <advance width="605"/>
  <unicode hex="007D"/>
  <outline>
    <contour>
      <point x="564" y="782" type="curve" smooth="yes"/>
      <point x="587" y="782"/>
      <point x="597" y="766"/>
      <point x="597" y="750" type="curve" smooth="yes"/>
      <point x="597" y="734"/>
      <point x="587" y="718"/>
      <point x="564" y="718" type="curve" smooth="yes"/>
      <point x="125" y="718"/>
      <point x="565" y="23"/>
      <point x="40" y="23" type="curve" smooth="yes"/>
      <point x="17" y="23"/>
      <point x="7" y="39"/>
      <point x="7" y="56" type="curve" smooth="yes"/>
      <point x="7" y="71"/>
      <point x="17" y="87"/>
      <point x="38" y="87" type="curve" smooth="yes"/>
      <point x="45" y="87"/>
      <point x="50" y="86"/>
      <point x="57" y="86" type="curve" smooth="yes"/>
      <point x="417" y="86"/>
      <point x="120" y="723"/>
      <point x="455" y="750" type="curve"/>
      <point x="120" y="777"/>
      <point x="416" y="1413"/>
      <point x="57" y="1413" type="curve" smooth="yes"/>
      <point x="40" y="1413" type="line" smooth="yes"/>
      <point x="17" y="1413"/>
      <point x="7" y="1427"/>
      <point x="7" y="1444" type="curve" smooth="yes"/>
      <point x="7" y="1460"/>
      <point x="17" y="1477"/>
      <point x="40" y="1477" type="curve" smooth="yes"/>
      <point x="565" y="1477"/>
      <point x="125" y="782"/>
    </contour>
  </outline>
</glyph>
<glyph name="asciitilde" format="1">
  <advance width="969"/>
  <unicode hex="007E"/>
  <outline>
    <contour>
      <point x="668" y="475" type="curve" smooth="yes"/>
      <point x="744" y="475"/>
      <point x="814" y="508"/>
      <point x="814" y="647" type="curve"/>
      <point x="887" y="647" type="line"/>
      <point x="887" y="438"/>
      <point x="742" y="403"/>
      <point x="668" y="403" type="curve" smooth="yes"/>
      <point x="488" y="403"/>
      <point x="447" y="612"/>
      <point x="306" y="612" type="curve" smooth="yes"/>
      <point x="232" y="612"/>
      <point x="160" y="580"/>
      <point x="160" y="440" type="curve"/>
      <point x="89" y="440" type="line"/>
      <point x="89" y="647"/>
      <point x="231" y="684"/>
      <point x="306" y="684" type="curve" smooth="yes"/>
      <point x="486" y="684"/>
      <point x="527" y="475"/>
    </contour>
  </outline>
</glyph>
<glyph name="sterling" format="1">
  <advance width="987"/>
  <unicode hex="00A3"/>
  <outline>
    <contour>
      <point x="232" y="192" type="curve" smooth="yes"/>
      <point x="460" y="192"/>
      <point x="565" y="71"/>
      <point x="842" y="71" type="curve" smooth="yes"/>
      <point x="885" y="71"/>
      <point x="912" y="67"/>
      <point x="912" y="36" type="curve" smooth="yes"/>
      <point x="912" y="0"/>
      <point x="884" y="0"/>
      <point x="844" y="0" type="curve" smooth="yes"/>
      <point x="524" y="0"/>
      <point x="431" y="129"/>
      <point x="232" y="129" type="curve" smooth="yes"/>
      <point x="162" y="129"/>
      <point x="135" y="110"/>
      <point x="135" y="91" type="curve" smooth="yes"/>
      <point x="135" y="72"/>
      <point x="160" y="54"/>
      <point x="229" y="54" type="curve" smooth="yes"/>
      <point x="348" y="54"/>
      <point x="396" y="97"/>
      <point x="396" y="179" type="curve" smooth="yes"/>
      <point x="396" y="192"/>
      <point x="393" y="236"/>
      <point x="344" y="521" type="curve"/>
      <point x="134" y="521" type="line" smooth="yes"/>
      <point x="103" y="521"/>
      <point x="90" y="539"/>
      <point x="90" y="556" type="curve" smooth="yes"/>
      <point x="90" y="575"/>
      <point x="103" y="592"/>
      <point x="134" y="592" type="curve" smooth="yes"/>
      <point x="334" y="592" type="line"/>
      <point x="315" y="753" type="line" smooth="yes"/>
      <point x="312" y="775"/>
      <point x="311" y="797"/>
      <point x="311" y="817" type="curve" smooth="yes"/>
      <point x="311" y="1043"/>
      <point x="455" y="1135"/>
      <point x="624" y="1135" type="curve" smooth="yes"/>
      <point x="699" y="1135"/>
      <point x="790" y="1124"/>
      <point x="878" y="1060" type="curve" smooth="yes"/>
      <point x="890" y="1051"/>
      <point x="895" y="1037"/>
      <point x="896" y="1025" type="curve"/>
      <point x="896" y="1008"/>
      <point x="880" y="998"/>
      <point x="863" y="998" type="curve" smooth="yes"/>
      <point x="849" y="998"/>
      <point x="848" y="1001"/>
      <point x="835" y="1010" type="curve" smooth="yes"/>
      <point x="756" y="1060"/>
      <point x="675" y="1070"/>
      <point x="621" y="1070" type="curve" smooth="yes"/>
      <point x="499" y="1070"/>
      <point x="389" y="999"/>
      <point x="389" y="816" type="curve" smooth="yes"/>
      <point x="389" y="799"/>
      <point x="390" y="782"/>
      <point x="392" y="763" type="curve" smooth="yes"/>
      <point x="411" y="592" type="line"/>
      <point x="703" y="592" type="line" smooth="yes"/>
      <point x="742" y="592"/>
      <point x="773" y="592"/>
      <point x="773" y="557" type="curve" smooth="yes"/>
      <point x="773" y="522"/>
      <point x="744" y="521"/>
      <point x="703" y="521" type="curve" smooth="yes"/>
      <point x="421" y="521" type="line"/>
      <point x="481" y="172"/>
      <point x="472" y="190"/>
      <point x="472" y="183" type="curve" smooth="yes"/>
      <point x="472" y="42"/>
      <point x="346" y="-10"/>
      <point x="232" y="-10" type="curve" smooth="yes"/>
      <point x="114" y="-10"/>
      <point x="61" y="39"/>
      <point x="61" y="90" type="curve" smooth="yes"/>
      <point x="61" y="141"/>
      <point x="114" y="192"/>
    </contour>
  </outline>
</glyph>
<glyph name="currency" format="1">
  <advance width="958"/>
  <unicode hex="00A4"/>
  <outline>
    <contour>
      <point x="786" y="494" type="curve" smooth="yes"/>
      <point x="818" y="470"/>
      <point x="866" y="424"/>
      <point x="866" y="410" type="curve"/>
      <point x="860" y="395" type="line"/>
      <point x="848" y="385" type="line" smooth="yes"/>
      <point x="844" y="381"/>
      <point x="840" y="379"/>
      <point x="835" y="379" type="curve"/>
      <point x="817" y="385" type="line"/>
      <point x="727" y="469" type="line"/>
      <point x="659" y="412"/>
      <point x="570" y="381"/>
      <point x="479" y="381" type="curve" smooth="yes"/>
      <point x="388" y="381"/>
      <point x="299" y="412"/>
      <point x="231" y="469" type="curve"/>
      <point x="215" y="453" type="line" smooth="yes"/>
      <point x="188" y="426"/>
      <point x="136" y="379"/>
      <point x="125" y="379" type="curve"/>
      <point x="108" y="385" type="line"/>
      <point x="97" y="394"/>
      <point x="92" y="402"/>
      <point x="92" y="410" type="curve"/>
      <point x="107" y="433"/>
      <point x="119" y="442"/>
      <point x="135" y="457" type="curve" smooth="yes"/>
      <point x="188" y="508" type="line"/>
      <point x="127" y="579"/>
      <point x="96" y="659"/>
      <point x="96" y="748" type="curve" smooth="yes"/>
      <point x="96" y="836"/>
      <point x="124" y="922"/>
      <point x="188" y="987" type="curve"/>
      <point x="168" y="1000"/>
      <point x="92" y="1067"/>
      <point x="92" y="1087" type="curve"/>
      <point x="98" y="1102" type="line"/>
      <point x="105" y="1109"/>
      <point x="110" y="1118"/>
      <point x="125" y="1118" type="curve"/>
      <point x="141" y="1112" type="line"/>
      <point x="231" y="1028" type="line"/>
      <point x="299" y="1085"/>
      <point x="388" y="1116"/>
      <point x="479" y="1116" type="curve" smooth="yes"/>
      <point x="570" y="1116"/>
      <point x="659" y="1085"/>
      <point x="727" y="1028" type="curve"/>
      <point x="741" y="1042"/>
      <point x="813" y="1118"/>
      <point x="835" y="1118" type="curve"/>
      <point x="837" y="1116"/>
      <point x="866" y="1106"/>
      <point x="866" y="1087" type="curve"/>
      <point x="860" y="1071" type="line"/>
      <point x="770" y="987" type="line"/>
      <point x="834" y="922"/>
      <point x="862" y="836"/>
      <point x="862" y="748" type="curve" smooth="yes"/>
      <point x="862" y="673"/>
      <point x="837" y="590"/>
      <point x="788" y="530" type="curve" smooth="yes"/>
      <point x="770" y="508" type="line"/>
      <point x="777" y="505"/>
      <point x="778" y="501"/>
    </contour>
    <contour>
      <point x="781" y="748" type="curve" smooth="yes"/>
      <point x="781" y="907"/>
      <point x="648" y="1041"/>
      <point x="480" y="1041" type="curve" smooth="yes"/>
      <point x="312" y="1041"/>
      <point x="178" y="913"/>
      <point x="178" y="748" type="curve" smooth="yes"/>
      <point x="178" y="588"/>
      <point x="315" y="454"/>
      <point x="480" y="454" type="curve" smooth="yes"/>
      <point x="647" y="454"/>
      <point x="781" y="588"/>
    </contour>
  </outline>
</glyph>
<glyph name="yen" format="1">
  <advance width="1165"/>
  <unicode hex="00A5"/>
  <outline>
    <contour>
      <point x="908" y="467" type="curve" smooth="yes"/>
      <point x="908" y="452"/>
      <point x="900" y="438"/>
      <point x="883" y="438" type="curve" smooth="yes"/>
      <point x="626" y="438" type="line"/>
      <point x="626" y="69" type="line" smooth="yes"/>
      <point x="626" y="30"/>
      <point x="619" y="0"/>
      <point x="586" y="0" type="curve" smooth="yes"/>
      <point x="547" y="0"/>
      <point x="541" y="32"/>
      <point x="541" y="67" type="curve" smooth="yes"/>
      <point x="541" y="438" type="line"/>
      <point x="278" y="438" type="line" smooth="yes"/>
      <point x="261" y="438"/>
      <point x="254" y="452"/>
      <point x="254" y="467" type="curve" smooth="yes"/>
      <point x="254" y="482"/>
      <point x="261" y="496"/>
      <point x="278" y="496" type="curve" smooth="yes"/>
      <point x="522" y="496" type="line"/>
      <point x="454" y="577" type="line"/>
      <point x="280" y="577" type="line" smooth="yes"/>
      <point x="263" y="577"/>
      <point x="256" y="591"/>
      <point x="256" y="606" type="curve" smooth="yes"/>
      <point x="256" y="621"/>
      <point x="263" y="635"/>
      <point x="280" y="635" type="curve" smooth="yes"/>
      <point x="405" y="635" type="line"/>
      <point x="67" y="1040" type="line" smooth="yes"/>
      <point x="54" y="1055"/>
      <point x="50" y="1066"/>
      <point x="50" y="1080" type="curve" smooth="yes"/>
      <point x="50" y="1100"/>
      <point x="64" y="1114"/>
      <point x="83" y="1114" type="curve" smooth="yes"/>
      <point x="96" y="1114"/>
      <point x="112" y="1106"/>
      <point x="126" y="1089" type="curve" smooth="yes"/>
      <point x="583" y="535" type="line"/>
      <point x="1040" y="1089" type="line" smooth="yes"/>
      <point x="1054" y="1106"/>
      <point x="1069" y="1113"/>
      <point x="1082" y="1113" type="curve" smooth="yes"/>
      <point x="1103" y="1113"/>
      <point x="1115" y="1099"/>
      <point x="1115" y="1077" type="curve" smooth="yes"/>
      <point x="1115" y="1066"/>
      <point x="1109" y="1053"/>
      <point x="1098" y="1040" type="curve" smooth="yes"/>
      <point x="761" y="635" type="line"/>
      <point x="885" y="635" type="line" smooth="yes"/>
      <point x="902" y="635"/>
      <point x="910" y="621"/>
      <point x="910" y="606" type="curve" smooth="yes"/>
      <point x="910" y="591"/>
      <point x="902" y="577"/>
      <point x="885" y="577" type="curve" smooth="yes"/>
      <point x="713" y="577" type="line"/>
      <point x="646" y="496" type="line"/>
      <point x="883" y="496" type="line" smooth="yes"/>
      <point x="900" y="496"/>
      <point x="908" y="482"/>
    </contour>
  </outline>
</glyph>
<glyph name="brokenbar" format="1">
  <advance width="307"/>
  <unicode hex="00A6"/>
  <outline>
    <contour>
      <point x="189" y="694" type="line" smooth="yes"/>
      <point x="189" y="655"/>
      <point x="189" y="625"/>
      <point x="156" y="625" type="curve" smooth="yes"/>
      <point x="117" y="625"/>
      <point x="117" y="657"/>
      <point x="117" y="692" type="curve" smooth="yes"/>
      <point x="117" y="1225" type="line" smooth="yes"/>
      <point x="117" y="1264"/>
      <point x="117" y="1296"/>
      <point x="156" y="1296" type="curve" smooth="yes"/>
      <point x="189" y="1296"/>
      <point x="189" y="1262"/>
      <point x="189" y="1227" type="curve" smooth="yes"/>
    </contour>
    <contour>
      <point x="189" y="-57" type="line" smooth="yes"/>
      <point x="189" y="-96"/>
      <point x="189" y="-127"/>
      <point x="156" y="-127" type="curve" smooth="yes"/>
      <point x="117" y="-127"/>
      <point x="117" y="-95"/>
      <point x="117" y="-59" type="curve" smooth="yes"/>
      <point x="117" y="473" type="line" smooth="yes"/>
      <point x="117" y="512"/>
      <point x="117" y="545"/>
      <point x="156" y="545" type="curve" smooth="yes"/>
      <point x="189" y="545"/>
      <point x="189" y="510"/>
      <point x="189" y="475" type="curve" smooth="yes"/>
    </contour>
  </outline>
</glyph>
<glyph name="dieresis" format="1">
  <advance width="723"/>
  <unicode hex="00A8"/>
  <outline>
    <contour>
      <point x="375" y="766" type="move" name="_top"/>
    </contour>
    <contour>
      <point x="87" y="996" type="curve" smooth="yes"/>
      <point x="87" y="1031"/>
      <point x="110" y="1055"/>
      <point x="145" y="1055" type="curve" smooth="yes"/>
      <point x="178" y="1055"/>
      <point x="205" y="1031"/>
      <point x="205" y="996" type="curve" smooth="yes"/>
      <point x="205" y="963"/>
      <point x="178" y="940"/>
      <point x="145" y="940" type="curve" smooth="yes"/>
      <point x="110" y="940"/>
      <point x="87" y="963"/>
    </contour>
    <contour>
      <point x="526" y="996" type="curve" smooth="yes"/>
      <point x="526" y="1031"/>
      <point x="549" y="1055"/>
      <point x="584" y="1055" type="curve" smooth="yes"/>
      <point x="617" y="1055"/>
      <point x="644" y="1031"/>
      <point x="644" y="996" type="curve" smooth="yes"/>
      <point x="644" y="963"/>
      <point x="617" y="940"/>
      <point x="584" y="940" type="curve" smooth="yes"/>
      <point x="549" y="940"/>
      <point x="526" y="963"/>
    </contour>
  </outline>
</glyph>
<glyph name="ordfeminine" format="1">
  <advance width="1191"/>
  <unicode hex="00AA"/>
  <outline>
    <contour>
      <point x="843" y="259" type="line" smooth="yes"/>
      <point x="855" y="259"/>
      <point x="865" y="248"/>
      <point x="865" y="235" type="curve" smooth="yes"/>
      <point x="865" y="222"/>
      <point x="855" y="211"/>
      <point x="843" y="211" type="curve" smooth="yes"/>
      <point x="302" y="211" type="line" smooth="yes"/>
      <point x="290" y="211"/>
      <point x="280" y="222"/>
      <point x="280" y="235" type="curve" smooth="yes"/>
      <point x="280" y="248"/>
      <point x="290" y="259"/>
      <point x="302" y="259" type="curve" smooth="yes"/>
    </contour>
    <component base="a" yOffset="336"/>
  </outline>
</glyph>
<glyph name="logicalnot" format="1">
  <advance width="731"/>
  <unicode hex="00AC"/>
  <outline>
    <contour>
      <point x="623" y="327" type="line" smooth="yes"/>
      <point x="623" y="308"/>
      <point x="612" y="300"/>
      <point x="600" y="300" type="curve" smooth="yes"/>
      <point x="589" y="300"/>
      <point x="578" y="308"/>
      <point x="578" y="327" type="curve" smooth="yes"/>
      <point x="578" y="482" type="line"/>
      <point x="623" y="482" type="line"/>
    </contour>
    <contour>
      <point x="596" y="504" type="line" smooth="yes"/>
      <point x="615" y="504"/>
      <point x="623" y="493"/>
      <point x="623" y="481" type="curve" smooth="yes"/>
      <point x="623" y="470"/>
      <point x="615" y="459"/>
      <point x="596" y="459" type="curve" smooth="yes"/>
      <point x="164" y="459" type="line" smooth="yes"/>
      <point x="145" y="459"/>
      <point x="137" y="470"/>
      <point x="137" y="481" type="curve" smooth="yes"/>
      <point x="137" y="493"/>
      <point x="145" y="504"/>
      <point x="164" y="504" type="curve" smooth="yes"/>
    </contour>
  </outline>
</glyph>
<glyph name="degree" format="1">
  <advance width="367"/>
  <unicode hex="00B0"/>
  <outline>
    <contour>
      <point x="301" y="997" type="curve" smooth="yes"/>
      <point x="301" y="933"/>
      <point x="248" y="885"/>
      <point x="184" y="885" type="curve" smooth="yes"/>
      <point x="121" y="885"/>
      <point x="66" y="933"/>
      <point x="66" y="997" type="curve" smooth="yes"/>
      <point x="66" y="1061"/>
      <point x="117" y="1110"/>
      <point x="184" y="1110" type="curve" smooth="yes"/>
      <point x="248" y="1110"/>
      <point x="301" y="1061"/>
    </contour>
    <contour>
      <point x="117" y="997" type="curve" smooth="yes"/>
      <point x="117" y="962"/>
      <point x="147" y="932"/>
      <point x="184" y="932" type="curve" smooth="yes"/>
      <point x="221" y="932"/>
      <point x="252" y="962"/>
      <point x="252" y="997" type="curve" smooth="yes"/>
      <point x="252" y="1033"/>
      <point x="221" y="1061"/>
      <point x="184" y="1061" type="curve" smooth="yes"/>
      <point x="147" y="1061"/>
      <point x="117" y="1033"/>
    </contour>
  </outline>
</glyph>
<glyph name="plusminus" format="1">
  <advance width="829"/>
  <unicode hex="00B1"/>
  <outline>
    <contour>
      <point x="384" y="511" type="line"/>
      <point x="384" y="742" type="line" smooth="yes"/>
      <point x="384" y="765"/>
      <point x="398" y="775"/>
      <point x="414" y="775" type="curve" smooth="yes"/>
      <point x="429" y="775"/>
      <point x="444" y="765"/>
      <point x="444" y="742" type="curve" smooth="yes"/>
      <point x="444" y="511" type="line"/>
      <point x="706" y="511" type="line" smooth="yes"/>
      <point x="731" y="511"/>
      <point x="742" y="498"/>
      <point x="742" y="483" type="curve" smooth="yes"/>
      <point x="742" y="470"/>
      <point x="731" y="457"/>
      <point x="706" y="457" type="curve" smooth="yes"/>
      <point x="444" y="457" type="line"/>
      <point x="444" y="224" type="line" smooth="yes"/>
      <point x="444" y="201"/>
      <point x="429" y="192"/>
      <point x="414" y="192" type="curve" smooth="yes"/>
      <point x="398" y="192"/>
      <point x="384" y="201"/>
      <point x="384" y="224" type="curve" smooth="yes"/>
      <point x="384" y="457" type="line"/>
      <point x="123" y="457" type="line" smooth="yes"/>
      <point x="98" y="457"/>
      <point x="87" y="470"/>
      <point x="87" y="483" type="curve" smooth="yes"/>
      <point x="87" y="498"/>
      <point x="98" y="511"/>
      <point x="123" y="511" type="curve" smooth="yes"/>
    </contour>
    <contour>
      <point x="706" y="54" type="line" smooth="yes"/>
      <point x="731" y="54"/>
      <point x="742" y="41"/>
      <point x="742" y="26" type="curve" smooth="yes"/>
      <point x="742" y="13"/>
      <point x="731" y="0"/>
      <point x="706" y="0" type="curve" smooth="yes"/>
      <point x="123" y="0" type="line" smooth="yes"/>
      <point x="98" y="0"/>
      <point x="87" y="13"/>
      <point x="87" y="26" type="curve" smooth="yes"/>
      <point x="87" y="41"/>
      <point x="98" y="54"/>
      <point x="123" y="54" type="curve" smooth="yes"/>
    </contour>
  </outline>
</glyph>
<glyph name="acute" format="1">
  <advance width="376"/>
  <unicode hex="00B4"/>
  <outline>
    <contour>
      <point x="189" y="775" type="move" name="_top"/>
    </contour>
    <contour>
      <point x="275" y="1277" type="line" smooth="yes"/>
      <point x="282" y="1284"/>
      <point x="291" y="1288"/>
      <point x="300" y="1288" type="curve" smooth="yes"/>
      <point x="329" y="1288"/>
      <point x="364" y="1256"/>
      <point x="364" y="1227" type="curve" smooth="yes"/>
      <point x="364" y="1216"/>
      <point x="359" y="1207"/>
      <point x="349" y="1199" type="curve" smooth="yes"/>
      <point x="57" y="962" type="line" smooth="yes"/>
      <point x="53" y="959"/>
      <point x="48" y="957"/>
      <point x="42" y="957" type="curve" smooth="yes"/>
      <point x="27" y="957"/>
      <point x="15" y="968"/>
      <point x="15" y="983" type="curve" smooth="yes"/>
      <point x="15" y="990"/>
      <point x="18" y="996"/>
      <point x="23" y="1001" type="curve" smooth="yes"/>
    </contour>
  </outline>
</glyph>
<glyph name="onesuperior" format="1">
  <advance width="452"/>
  <unicode hex="00B9"/>
  <outline>
    <contour>
      <point x="331" y="403" type="line" smooth="yes"/>
      <point x="331" y="368"/>
      <point x="334" y="333"/>
      <point x="298" y="333" type="curve" smooth="yes"/>
      <point x="259" y="333"/>
      <point x="259" y="368"/>
      <point x="259" y="403" type="curve" smooth="yes"/>
      <point x="259" y="1039" type="line"/>
      <point x="105" y="1039" type="line" smooth="yes"/>
      <point x="78" y="1039"/>
      <point x="42" y="1036"/>
      <point x="42" y="1068" type="curve" smooth="yes"/>
      <point x="42" y="1109"/>
      <point x="82" y="1109"/>
      <point x="103" y="1109" type="curve" smooth="yes"/>
      <point x="296" y="1109" type="line" smooth="yes"/>
      <point x="335" y="1109"/>
      <point x="331" y="1071"/>
      <point x="331" y="1039" type="curve" smooth="yes"/>
    </contour>
  </outline>
</glyph>
<glyph name="ordmasculine" format="1">
  <advance width="1125"/>
  <unicode hex="00BA"/>
  <outline>
    <contour>
      <point x="822" y="262" type="line" smooth="yes"/>
      <point x="834" y="262"/>
      <point x="844" y="251"/>
      <point x="844" y="238" type="curve" smooth="yes"/>
      <point x="844" y="225"/>
      <point x="834" y="214"/>
      <point x="822" y="214" type="curve" smooth="yes"/>
      <point x="281" y="214" type="line" smooth="yes"/>
      <point x="269" y="214"/>
      <point x="259" y="225"/>
      <point x="259" y="238" type="curve" smooth="yes"/>
      <point x="259" y="251"/>
      <point x="269" y="262"/>
      <point x="281" y="262" type="curve" smooth="yes"/>
    </contour>
    <component base="o" xOffset="5" yOffset="333"/>
  </outline>
</glyph>
<glyph name="guillemotright" format="1">
  <advance width="647"/>
  <unicode hex="00BB"/>
  <outline>
    <contour>
      <point x="389" y="367" type="line" smooth="yes"/>
      <point x="401" y="355"/>
      <point x="405" y="343"/>
      <point x="406" y="335" type="curve"/>
      <point x="406" y="324"/>
      <point x="400" y="312"/>
      <point x="389" y="301" type="curve" smooth="yes"/>
      <point x="148" y="49" type="line" smooth="yes"/>
      <point x="140" y="41"/>
      <point x="131" y="37"/>
      <point x="121" y="37" type="curve" smooth="yes"/>
      <point x="101" y="37"/>
      <point x="82" y="53"/>
      <point x="82" y="72" type="curve" smooth="yes"/>
      <point x="82" y="81"/>
      <point x="86" y="89"/>
      <point x="94" y="97" type="curve" smooth="yes"/>
      <point x="332" y="334" type="line"/>
      <point x="94" y="571" type="line" smooth="yes"/>
      <point x="87" y="578"/>
      <point x="83" y="587"/>
      <point x="83" y="596" type="curve" smooth="yes"/>
      <point x="83" y="615"/>
      <point x="101" y="631"/>
      <point x="121" y="631" type="curve" smooth="yes"/>
      <point x="131" y="631"/>
      <point x="140" y="627"/>
      <point x="148" y="619" type="curve" smooth="yes"/>
    </contour>
    <contour>
      <point x="588" y="367" type="line" smooth="yes"/>
      <point x="600" y="355"/>
      <point x="604" y="343"/>
      <point x="605" y="335" type="curve"/>
      <point x="605" y="324"/>
      <point x="599" y="312"/>
      <point x="588" y="301" type="curve" smooth="yes"/>
      <point x="347" y="49" type="line" smooth="yes"/>
      <point x="339" y="41"/>
      <point x="330" y="37"/>
      <point x="320" y="37" type="curve" smooth="yes"/>
      <point x="300" y="37"/>
      <point x="281" y="53"/>
      <point x="281" y="72" type="curve" smooth="yes"/>
      <point x="281" y="81"/>
      <point x="285" y="89"/>
      <point x="293" y="97" type="curve" smooth="yes"/>
      <point x="531" y="334" type="line"/>
      <point x="293" y="571" type="line" smooth="yes"/>
      <point x="286" y="578"/>
      <point x="282" y="587"/>
      <point x="282" y="596" type="curve" smooth="yes"/>
      <point x="282" y="615"/>
      <point x="300" y="631"/>
      <point x="320" y="631" type="curve" smooth="yes"/>
      <point x="330" y="631"/>
      <point x="339" y="627"/>
      <point x="347" y="619" type="curve" smooth="yes"/>
    </contour>
  </outline>
</glyph>
<glyph name="AE" format="1">
  <advance width="1446"/>
  <unicode hex="00C6"/>
  <outline>
    <contour>
      <point x="1352" y="35" type="curve" smooth="yes"/>
      <point x="1352" y="-4"/>
      <point x="1317" y="0"/>
      <point x="1278" y="0" type="curve" smooth="yes"/>
      <point x="666" y="0" type="line" smooth="yes"/>
      <point x="627" y="0"/>
      <point x="627" y="0"/>
      <point x="627" y="35" type="curve" smooth="yes"/>
      <point x="627" y="348" type="line"/>
      <point x="269" y="348" type="line"/>
      <point x="206" y="225"/>
      <point x="89" y="-18"/>
      <point x="46" y="-18" type="curve" smooth="yes"/>
      <point x="21" y="-18"/>
      <point x="9" y="1"/>
      <point x="9" y="12" type="curve" smooth="yes"/>
      <point x="9" y="29"/>
      <point x="19" y="44"/>
      <point x="30" y="63" type="curve" smooth="yes"/>
      <point x="578" y="1065" type="line"/>
      <point x="593" y="1090"/>
      <point x="603" y="1111"/>
      <point x="619" y="1114" type="curve"/>
      <point x="1276" y="1114" type="line" smooth="yes"/>
      <point x="1315" y="1114"/>
      <point x="1350" y="1118"/>
      <point x="1350" y="1079" type="curve" smooth="yes"/>
      <point x="1350" y="1046"/>
      <point x="1315" y="1048"/>
      <point x="1276" y="1048" type="curve" smooth="yes"/>
      <point x="712" y="1048" type="line"/>
      <point x="712" y="601" type="line"/>
      <point x="1249" y="601" type="line" smooth="yes"/>
      <point x="1287" y="601"/>
      <point x="1323" y="604"/>
      <point x="1323" y="572" type="curve" smooth="yes"/>
      <point x="1323" y="543"/>
      <point x="1304" y="539"/>
      <point x="1278" y="539" type="curve" smooth="yes"/>
      <point x="1269" y="539"/>
      <point x="1259" y="540"/>
      <point x="1249" y="540" type="curve" smooth="yes"/>
      <point x="712" y="540" type="line"/>
      <point x="712" y="66" type="line"/>
      <point x="1278" y="66" type="line" smooth="yes"/>
      <point x="1317" y="66"/>
      <point x="1352" y="68"/>
    </contour>
    <contour>
      <point x="627" y="397" type="line"/>
      <point x="627" y="1014" type="line"/>
      <point x="290" y="397" type="line"/>
    </contour>
  </outline>
</glyph>
<glyph name="Oslash" format="1">
  <advance width="1715"/>
  <unicode hex="00D8"/>
  <outline>
    <contour>
      <point x="650" y="-102" type="line" smooth="yes"/>
      <point x="638" y="-134"/>
      <point x="629" y="-159"/>
      <point x="605" y="-159" type="curve" smooth="yes"/>
      <point x="572" y="-159"/>
      <point x="568" y="-135"/>
      <point x="568" y="-120" type="curve" smooth="yes"/>
      <point x="568" y="-108"/>
      <point x="574" y="-96"/>
      <point x="580" y="-81" type="curve" smooth="yes"/>
      <point x="1070" y="1222" type="line" smooth="yes"/>
      <point x="1081" y="1252"/>
      <point x="1088" y="1280"/>
      <point x="1119" y="1280" type="curve" smooth="yes"/>
      <point x="1147" y="1280"/>
      <point x="1152" y="1262"/>
      <point x="1152" y="1245" type="curve" smooth="yes"/>
      <point x="1152" y="1231"/>
      <point x="1147" y="1216"/>
      <point x="1142" y="1202" type="curve" smooth="yes"/>
    </contour>
    <component base="O"/>
  </outline>
</glyph>
<glyph name="Thorn" format="1">
  <advance width="1030"/>
  <unicode hex="00DE"/>
  <outline>
    <contour>
      <point x="245" y="264" type="line"/>
      <point x="245" y="76" type="line" smooth="yes"/>
      <point x="245" y="37"/>
      <point x="238" y="0"/>
      <point x="206" y="0" type="curve" smooth="yes"/>
      <point x="167" y="0"/>
      <point x="160" y="35"/>
      <point x="160" y="76" type="curve" smooth="yes"/>
      <point x="160" y="1034" type="line" smooth="yes"/>
      <point x="160" y="1075"/>
      <point x="167" y="1110"/>
      <point x="206" y="1110" type="curve" smooth="yes"/>
      <point x="238" y="1110"/>
      <point x="245" y="1073"/>
      <point x="245" y="1034" type="curve" smooth="yes"/>
      <point x="245" y="894" type="line"/>
      <point x="493" y="894" type="line" smooth="yes"/>
      <point x="901" y="894"/>
      <point x="989" y="734"/>
      <point x="989" y="575" type="curve" smooth="yes"/>
      <point x="989" y="419"/>
      <point x="906" y="264"/>
      <point x="493" y="264" type="curve" smooth="yes"/>
    </contour>
    <contour>
      <point x="245" y="330" type="line"/>
      <point x="493" y="330" type="line" smooth="yes"/>
      <point x="853" y="330"/>
      <point x="909" y="452"/>
      <point x="909" y="576" type="curve" smooth="yes"/>
      <point x="909" y="702"/>
      <point x="848" y="828"/>
      <point x="493" y="828" type="curve" smooth="yes"/>
      <point x="245" y="828" type="line"/>
    </contour>
  </outline>
</glyph>
<glyph name="germandbls" format="1">
  <advance width="1209"/>
  <unicode hex="00DF"/>
  <outline>
    <contour>
      <point x="1170" y="288" type="curve" smooth="yes"/>
      <point x="1170" y="91"/>
      <point x="1090" y="0"/>
      <point x="585" y="0" type="curve" smooth="yes"/>
      <point x="554" y="0"/>
      <point x="521" y="5"/>
      <point x="521" y="32" type="curve" smooth="yes"/>
      <point x="521" y="64"/>
      <point x="550" y="66"/>
      <point x="589" y="66" type="curve" smooth="yes"/>
      <point x="984" y="66"/>
      <point x="1098" y="105"/>
      <point x="1098" y="280" type="curve" smooth="yes"/>
      <point x="1098" y="505"/>
      <point x="846" y="518"/>
      <point x="658" y="518" type="curve" smooth="yes"/>
      <point x="635" y="518"/>
      <point x="612" y="518"/>
      <point x="591" y="518" type="curve" smooth="yes"/>
      <point x="502" y="518"/>
      <point x="464" y="525"/>
      <point x="464" y="589" type="curve" smooth="yes"/>
      <point x="464" y="625"/>
      <point x="489" y="643"/>
      <point x="546" y="655" type="curve" smooth="yes"/>
      <point x="699" y="687"/>
      <point x="951" y="737"/>
      <point x="951" y="885" type="curve" smooth="yes"/>
      <point x="951" y="1023"/>
      <point x="834" y="1063"/>
      <point x="625" y="1063" type="curve" smooth="yes"/>
      <point x="360" y="1063"/>
      <point x="230" y="1002"/>
      <point x="230" y="752" type="curve" smooth="yes"/>
      <point x="230" y="-4" type="line" smooth="yes"/>
      <point x="230" y="-43"/>
      <point x="230" y="-73"/>
      <point x="198" y="-73" type="curve" smooth="yes"/>
      <point x="159" y="-73"/>
      <point x="159" y="-43"/>
      <point x="159" y="-4" type="curve" smooth="yes"/>
      <point x="159" y="752" type="line" smooth="yes"/>
      <point x="159" y="1029"/>
      <point x="299" y="1135"/>
      <point x="624" y="1135" type="curve" smooth="yes"/>
      <point x="881" y="1135"/>
      <point x="1025" y="1078"/>
      <point x="1025" y="878" type="curve" smooth="yes"/>
      <point x="1025" y="626"/>
      <point x="542" y="614"/>
      <point x="542" y="586" type="curve" smooth="yes"/>
      <point x="542" y="578"/>
      <point x="588" y="580"/>
      <point x="638" y="580" type="curve" smooth="yes"/>
      <point x="863" y="580"/>
      <point x="1170" y="570"/>
    </contour>
  </outline>
</glyph>
<glyph name="ae" format="1">
  <advance width="1774"/>
  <unicode hex="00E6"/>
  <outline>
    <contour>
      <point x="130" y="219" type="curve" smooth="yes"/>
      <point x="130" y="91"/>
      <point x="271" y="49"/>
      <point x="463" y="49" type="curve" smooth="yes"/>
      <point x="694" y="49"/>
      <point x="820" y="96"/>
      <point x="890" y="137" type="curve"/>
      <point x="890" y="338" type="line"/>
      <point x="819" y="375"/>
      <point x="637" y="418"/>
      <point x="468" y="418" type="curve" smooth="yes"/>
      <point x="263" y="418"/>
      <point x="130" y="371"/>
    </contour>
    <contour>
      <point x="921" y="681" type="curve"/>
      <point x="1005" y="758"/>
      <point x="1140" y="786"/>
      <point x="1301" y="786" type="curve" smooth="yes"/>
      <point x="1578" y="786"/>
      <point x="1716" y="676"/>
      <point x="1716" y="479" type="curve" smooth="yes"/>
      <point x="1716" y="443"/>
      <point x="1692" y="379"/>
      <point x="1672" y="379" type="curve" smooth="yes"/>
      <point x="951" y="379" type="line"/>
      <point x="951" y="137" type="line"/>
      <point x="1006" y="100"/>
      <point x="1130" y="49"/>
      <point x="1303" y="49" type="curve" smooth="yes"/>
      <point x="1430" y="49"/>
      <point x="1576" y="90"/>
      <point x="1640" y="122" type="curve" smooth="yes"/>
      <point x="1647" y="125"/>
      <point x="1654" y="127"/>
      <point x="1661" y="127" type="curve" smooth="yes"/>
      <point x="1678" y="127"/>
      <point x="1689" y="116"/>
      <point x="1689" y="101" type="curve" smooth="yes"/>
      <point x="1689" y="90"/>
      <point x="1683" y="78"/>
      <point x="1668" y="70" type="curve" smooth="yes"/>
      <point x="1552" y="10"/>
      <point x="1421" y="-10"/>
      <point x="1304" y="-10" type="curve" smooth="yes"/>
      <point x="1125" y="-10"/>
      <point x="996" y="31"/>
      <point x="920" y="100" type="curve"/>
      <point x="841" y="26"/>
      <point x="659" y="-10"/>
      <point x="471" y="-10" type="curve" smooth="yes"/>
      <point x="238" y="-10"/>
      <point x="50" y="51"/>
      <point x="50" y="219" type="curve" smooth="yes"/>
      <point x="50" y="414"/>
      <point x="236" y="477"/>
      <point x="460" y="477" type="curve" smooth="yes"/>
      <point x="632" y="477"/>
      <point x="805" y="434"/>
      <point x="890" y="389" type="curve"/>
      <point x="889" y="647" type="line"/>
      <point x="841" y="681"/>
      <point x="697" y="727"/>
      <point x="470" y="727" type="curve" smooth="yes"/>
      <point x="341" y="727"/>
      <point x="204" y="700"/>
      <point x="157" y="621" type="curve" smooth="yes"/>
      <point x="147" y="604"/>
      <point x="135" y="596"/>
      <point x="122" y="596" type="curve" smooth="yes"/>
      <point x="110" y="596"/>
      <point x="98" y="606"/>
      <point x="98" y="623" type="curve" smooth="yes"/>
      <point x="98" y="631"/>
      <point x="102" y="638"/>
      <point x="106" y="649" type="curve"/>
      <point x="154" y="743"/>
      <point x="318" y="786"/>
      <point x="483" y="786" type="curve" smooth="yes"/>
      <point x="624" y="786"/>
      <point x="825" y="777"/>
    </contour>
    <contour>
      <point x="1650" y="431" type="line"/>
      <point x="1653" y="452" type="line"/>
      <point x="1656" y="463"/>
      <point x="1657" y="477"/>
      <point x="1657" y="485" type="curve" smooth="yes"/>
      <point x="1657" y="618"/>
      <point x="1565" y="727"/>
      <point x="1301" y="727" type="curve" smooth="yes"/>
      <point x="1115" y="727"/>
      <point x="1004" y="680"/>
      <point x="951" y="648" type="curve"/>
      <point x="951" y="431" type="line"/>
    </contour>
  </outline>
</glyph>
<glyph name="eth" format="1">
  <advance width="1064"/>
  <unicode hex="00F0"/>
  <outline>
    <contour>
      <point x="1046" y="1016" type="line" smooth="yes"/>
      <point x="1051" y="1018"/>
      <point x="1055" y="1018"/>
      <point x="1058" y="1018" type="curve" smooth="yes"/>
      <point x="1073" y="1018"/>
      <point x="1080" y="1006"/>
      <point x="1080" y="995" type="curve" smooth="yes"/>
      <point x="1080" y="987"/>
      <point x="1075" y="979"/>
      <point x="1061" y="974" type="curve" smooth="yes"/>
      <point x="652" y="835" type="line" smooth="yes"/>
      <point x="647" y="833"/>
      <point x="642" y="832"/>
      <point x="639" y="832" type="curve" smooth="yes"/>
      <point x="624" y="832"/>
      <point x="617" y="844"/>
      <point x="617" y="855" type="curve" smooth="yes"/>
      <point x="617" y="864"/>
      <point x="623" y="872"/>
      <point x="637" y="877" type="curve" smooth="yes"/>
    </contour>
    <contour>
      <point x="978" y="557" type="curve" smooth="yes"/>
      <point x="978" y="127"/>
      <point x="868" y="-20"/>
      <point x="559" y="-20" type="curve" smooth="yes"/>
      <point x="235" y="-20"/>
      <point x="123" y="135"/>
      <point x="123" y="298" type="curve" smooth="yes"/>
      <point x="123" y="562"/>
      <point x="276" y="627"/>
      <point x="572" y="627" type="curve" smooth="yes"/>
      <point x="771" y="627"/>
      <point x="856" y="601"/>
      <point x="901" y="579" type="curve"/>
      <point x="901" y="1020"/>
      <point x="765" y="1065"/>
      <point x="526" y="1065" type="curve" smooth="yes"/>
      <point x="409" y="1065"/>
      <point x="309" y="1038"/>
      <point x="234" y="1015" type="curve" smooth="yes"/>
      <point x="225" y="1012"/>
      <point x="217" y="1010"/>
      <point x="208" y="1010" type="curve" smooth="yes"/>
      <point x="185" y="1010"/>
      <point x="172" y="1021"/>
      <point x="172" y="1036" type="curve" smooth="yes"/>
      <point x="172" y="1087"/>
      <point x="377" y="1134"/>
      <point x="526" y="1134" type="curve" smooth="yes"/>
      <point x="890" y="1134"/>
      <point x="978" y="975"/>
    </contour>
    <contour>
      <point x="901" y="526" type="curve"/>
      <point x="834" y="539"/>
      <point x="739" y="557"/>
      <point x="572" y="557" type="curve" smooth="yes"/>
      <point x="321" y="557"/>
      <point x="199" y="532"/>
      <point x="199" y="306" type="curve" smooth="yes"/>
      <point x="199" y="176"/>
      <point x="274" y="49"/>
      <point x="555" y="49" type="curve" smooth="yes"/>
      <point x="811" y="49"/>
      <point x="901" y="162"/>
    </contour>
  </outline>
</glyph>
<glyph name="dotlessi" format="1">
  <advance width="312"/>
  <unicode hex="0131"/>
  <outline>
    <contour>
      <point x="156" y="775" type="move" name="top"/>
    </contour>
    <contour>
      <point x="196" y="63" type="line" smooth="yes"/>
      <point x="196" y="28"/>
      <point x="195" y="0"/>
      <point x="156" y="0" type="curve" smooth="yes"/>
      <point x="119" y="0"/>
      <point x="116" y="24"/>
      <point x="116" y="63" type="curve" smooth="yes"/>
      <point x="116" y="705" type="line" smooth="yes"/>
      <point x="116" y="744"/>
      <point x="119" y="775"/>
      <point x="156" y="775" type="curve" smooth="yes"/>
      <point x="189" y="775"/>
      <point x="196" y="742"/>
      <point x="196" y="707" type="curve" smooth="yes"/>
    </contour>
  </outline>
</glyph>
<glyph name="Lslash" format="1">
  <advance width="1109"/>
  <unicode hex="0141"/>
  <outline>
    <contour>
      <point x="-27" y="563" type="line"/>
      <point x="207" y="657" type="line"/>
      <point x="207" y="1044" type="line" smooth="yes"/>
      <point x="207" y="1085"/>
      <point x="207" y="1114"/>
      <point x="246" y="1114" type="curve" smooth="yes"/>
      <point x="278" y="1114"/>
      <point x="278" y="1083"/>
      <point x="278" y="1044" type="curve" smooth="yes"/>
      <point x="278" y="688" type="line"/>
      <point x="641" y="836" type="line"/>
      <point x="661" y="772" type="line"/>
      <point x="278" y="612" type="line"/>
      <point x="278" y="70" type="line"/>
      <point x="1006" y="70" type="line" smooth="yes"/>
      <point x="1045" y="70"/>
      <point x="1077" y="70"/>
      <point x="1077" y="35" type="curve" smooth="yes"/>
      <point x="1077" y="0"/>
      <point x="1045" y="0"/>
      <point x="1006" y="0" type="curve" smooth="yes"/>
      <point x="246" y="0" type="line" smooth="yes"/>
      <point x="207" y="0"/>
      <point x="207" y="-2"/>
      <point x="207" y="70" type="curve" smooth="yes"/>
      <point x="207" y="584" type="line"/>
      <point x="-6" y="500" type="line"/>
    </contour>
  </outline>
</glyph>
<glyph name="OE" format="1">
  <advance width="2379"/>
  <unicode hex="0152"/>
  <outline>
    <contour>
      <point x="1264" y="113" type="line"/>
      <point x="1161" y="66"/>
      <point x="1028" y="45"/>
      <point x="857" y="45" type="curve" smooth="yes"/>
      <point x="420" y="45"/>
      <point x="208" y="185"/>
      <point x="208" y="557" type="curve" smooth="yes"/>
      <point x="208" y="929"/>
      <point x="420" y="1069"/>
      <point x="857" y="1069" type="curve" smooth="yes"/>
      <point x="1032" y="1069"/>
      <point x="1169" y="1048"/>
      <point x="1273" y="997" type="curve"/>
      <point x="1270" y="1073" type="line"/>
      <point x="1162" y="1116"/>
      <point x="1025" y="1135"/>
      <point x="857" y="1135" type="curve" smooth="yes"/>
      <point x="350" y="1135"/>
      <point x="123" y="946"/>
      <point x="123" y="557" type="curve" smooth="yes"/>
      <point x="123" y="168"/>
      <point x="350" y="-21"/>
      <point x="857" y="-21" type="curve" smooth="yes"/>
      <point x="1022" y="-21"/>
      <point x="1157" y="-1"/>
      <point x="1262" y="38" type="curve"/>
    </contour>
    <contour>
      <point x="2276" y="35" type="curve" smooth="yes"/>
      <point x="2276" y="-4"/>
      <point x="2241" y="0"/>
      <point x="2202" y="0" type="curve" smooth="yes"/>
      <point x="1289" y="0" type="line" smooth="yes"/>
      <point x="1250" y="0"/>
      <point x="1250" y="0"/>
      <point x="1250" y="35" type="curve" smooth="yes"/>
      <point x="1250" y="1077" type="line" smooth="yes"/>
      <point x="1250" y="1116"/>
      <point x="1248" y="1114"/>
      <point x="1287" y="1114" type="curve" smooth="yes"/>
      <point x="2200" y="1114" type="line" smooth="yes"/>
      <point x="2239" y="1114"/>
      <point x="2274" y="1118"/>
      <point x="2274" y="1079" type="curve" smooth="yes"/>
      <point x="2274" y="1046"/>
      <point x="2239" y="1048"/>
      <point x="2200" y="1048" type="curve" smooth="yes"/>
      <point x="1335" y="1048" type="line"/>
      <point x="1335" y="601" type="line"/>
      <point x="2173" y="601" type="line" smooth="yes"/>
      <point x="2211" y="601"/>
      <point x="2247" y="604"/>
      <point x="2247" y="572" type="curve" smooth="yes"/>
      <point x="2247" y="543"/>
      <point x="2228" y="539"/>
      <point x="2202" y="539" type="curve" smooth="yes"/>
      <point x="2193" y="539"/>
      <point x="2183" y="540"/>
      <point x="2173" y="540" type="curve" smooth="yes"/>
      <point x="1335" y="540" type="line"/>
      <point x="1335" y="66" type="line"/>
      <point x="2202" y="66" type="line" smooth="yes"/>
      <point x="2241" y="66"/>
      <point x="2276" y="68"/>
    </contour>
  </outline>
</glyph>
<glyph name="dotlessj" format="1">
  <advance width="483"/>
  <unicode hex="0237"/>
  <outline>
    <contour>
      <point x="320" y="775" type="move" name="top"/>
    </contour>
    <contour>
      <point x="359" y="94" type="line" smooth="yes"/>
      <point x="359" y="-45"/>
      <point x="355" y="-266"/>
      <point x="66" y="-266" type="curve" smooth="yes"/>
      <point x="31" y="-266"/>
      <point x="0" y="-266"/>
      <point x="0" y="-231" type="curve" smooth="yes"/>
      <point x="0" y="-196"/>
      <point x="31" y="-197"/>
      <point x="66" y="-197" type="curve" smooth="yes"/>
      <point x="287" y="-197"/>
      <point x="279" y="-45"/>
      <point x="279" y="94" type="curve" smooth="yes"/>
      <point x="279" y="714" type="line" smooth="yes"/>
      <point x="279" y="749"/>
      <point x="285" y="775"/>
      <point x="320" y="775" type="curve" smooth="yes"/>
      <point x="359" y="775"/>
      <point x="359" y="749"/>
      <point x="359" y="714" type="curve" smooth="yes"/>
    </contour>
  </outline>
</glyph>
<glyph name="circumflex" format="1">
  <advance width="482"/>
  <unicode hex="02C6"/>
  <outline>
    <contour>
      <point x="241" y="775" type="move" name="_top"/>
    </contour>
    <contour>
      <point x="111" y="892" type="line"/>
      <point x="35" y="892" type="line"/>
      <point x="188" y="1127" type="line" smooth="yes"/>
      <point x="204" y="1152"/>
      <point x="222" y="1165"/>
      <point x="241" y="1165" type="curve" smooth="yes"/>
      <point x="257" y="1165"/>
      <point x="277" y="1152"/>
      <point x="294" y="1127" type="curve" smooth="yes"/>
      <point x="447" y="892" type="line"/>
      <point x="371" y="892" type="line"/>
      <point x="241" y="1110" type="line"/>
    </contour>
  </outline>
</glyph>
<glyph name="caron" format="1">
  <advance width="478"/>
  <unicode hex="02C7"/>
  <outline>
    <contour>
      <point x="279" y="775" type="move" name="_top"/>
    </contour>
    <contour>
      <point x="279" y="1030" type="line"/>
      <point x="409" y="1248" type="line"/>
      <point x="485" y="1248" type="line"/>
      <point x="332" y="1013" type="line" smooth="yes"/>
      <point x="315" y="988"/>
      <point x="295" y="975"/>
      <point x="279" y="975" type="curve" smooth="yes"/>
      <point x="260" y="975"/>
      <point x="242" y="988"/>
      <point x="226" y="1013" type="curve" smooth="yes"/>
      <point x="73" y="1248" type="line"/>
      <point x="149" y="1248" type="line"/>
    </contour>
  </outline>
</glyph>
<glyph name="breve" format="1">
  <advance width="654"/>
  <unicode hex="02D8"/>
  <outline>
    <contour>
      <point x="359" y="775" type="move" name="_top"/>
    </contour>
    <contour>
      <point x="544" y="1175" type="line"/>
      <point x="544" y="1095"/>
      <point x="520" y="989"/>
      <point x="359" y="989" type="curve" smooth="yes"/>
      <point x="193" y="989"/>
      <point x="174" y="1102"/>
      <point x="174" y="1175" type="curve"/>
      <point x="211" y="1175" type="line"/>
      <point x="213" y="1117"/>
      <point x="243" y="1041"/>
      <point x="359" y="1041" type="curve" smooth="yes"/>
      <point x="472" y="1041"/>
      <point x="502" y="1116"/>
      <point x="507" y="1175" type="curve"/>
    </contour>
  </outline>
</glyph>
<glyph name="dotaccent" format="1">
  <advance width="245"/>
  <unicode hex="02D9"/>
  <outline>
    <contour>
      <point x="163" y="775" type="move" name="_top"/>
    </contour>
    <contour>
      <point x="104" y="1055" type="curve" smooth="yes"/>
      <point x="104" y="1090"/>
      <point x="127" y="1114"/>
      <point x="162" y="1114" type="curve" smooth="yes"/>
      <point x="195" y="1114"/>
      <point x="222" y="1090"/>
      <point x="222" y="1055" type="curve" smooth="yes"/>
      <point x="222" y="1022"/>
      <point x="195" y="999"/>
      <point x="162" y="999" type="curve" smooth="yes"/>
      <point x="127" y="999"/>
      <point x="104" y="1022"/>
    </contour>
  </outline>
</glyph>
<glyph name="ogonek" format="1">
  <advance width="293"/>
  <unicode hex="02DB"/>
  <outline>
    <contour>
      <point x="156" y="0" type="move" name="_bot"/>
    </contour>
    <contour>
      <point x="205" y="6" type="line"/>
      <point x="158" y="-49"/>
      <point x="135" y="-108"/>
      <point x="135" y="-151" type="curve" smooth="yes"/>
      <point x="135" y="-206"/>
      <point x="165" y="-223"/>
      <point x="186" y="-223" type="curve" smooth="yes"/>
      <point x="213" y="-223"/>
      <point x="240" y="-204"/>
      <point x="257" y="-193" type="curve"/>
      <point x="267" y="-202" type="line"/>
      <point x="244" y="-249"/>
      <point x="192" y="-279"/>
      <point x="141" y="-279" type="curve" smooth="yes"/>
      <point x="96" y="-279"/>
      <point x="46" y="-251"/>
      <point x="46" y="-182" type="curve" smooth="yes"/>
      <point x="46" y="-118"/>
      <point x="100" y="-55"/>
      <point x="175" y="6" type="curve"/>
    </contour>
  </outline>
</glyph>
<glyph name="tilde" format="1">
  <advance width="796"/>
  <unicode hex="02DC"/>
  <outline>
    <contour>
      <point x="466" y="775" type="move" name="_top"/>
    </contour>
    <contour>
      <point x="604" y="984" type="curve" smooth="yes"/>
      <point x="633" y="984"/>
      <point x="639" y="1007"/>
      <point x="639" y="1052" type="curve"/>
      <point x="702" y="1052" type="line"/>
      <point x="705" y="1034"/>
      <point x="707" y="1016"/>
      <point x="707" y="997" type="curve" smooth="yes"/>
      <point x="707" y="949"/>
      <point x="671" y="916"/>
      <point x="608" y="916" type="curve" smooth="yes"/>
      <point x="498" y="916"/>
      <point x="413" y="986"/>
      <point x="326" y="986" type="curve" smooth="yes"/>
      <point x="298" y="986"/>
      <point x="294" y="966"/>
      <point x="294" y="948" type="curve" smooth="yes"/>
      <point x="294" y="938"/>
      <point x="295" y="929"/>
      <point x="295" y="921" type="curve"/>
      <point x="232" y="921" type="line"/>
      <point x="228" y="938"/>
      <point x="226" y="957"/>
      <point x="226" y="976" type="curve" smooth="yes"/>
      <point x="226" y="1023"/>
      <point x="263" y="1057"/>
      <point x="326" y="1057" type="curve" smooth="yes"/>
      <point x="433" y="1057"/>
      <point x="524" y="984"/>
    </contour>
  </outline>
</glyph>
<glyph name="hungarumlaut" format="1">
  <advance width="358"/>
  <unicode hex="02DD"/>
  <outline>
    <contour>
      <point x="551" y="775" type="move" name="_top"/>
    </contour>
    <contour>
      <point x="523" y="1281" type="line" smooth="yes"/>
      <point x="530" y="1288"/>
      <point x="539" y="1292"/>
      <point x="548" y="1292" type="curve" smooth="yes"/>
      <point x="577" y="1292"/>
      <point x="612" y="1260"/>
      <point x="612" y="1231" type="curve" smooth="yes"/>
      <point x="612" y="1220"/>
      <point x="607" y="1211"/>
      <point x="597" y="1203" type="curve" smooth="yes"/>
      <point x="305" y="966" type="line" smooth="yes"/>
      <point x="301" y="963"/>
      <point x="296" y="961"/>
      <point x="290" y="961" type="curve" smooth="yes"/>
      <point x="275" y="961"/>
      <point x="263" y="972"/>
      <point x="263" y="987" type="curve" smooth="yes"/>
      <point x="263" y="994"/>
      <point x="266" y="1000"/>
      <point x="271" y="1005" type="curve" smooth="yes"/>
    </contour>
    <contour>
      <point x="751" y="1281" type="line" smooth="yes"/>
      <point x="758" y="1288"/>
      <point x="767" y="1292"/>
      <point x="776" y="1292" type="curve" smooth="yes"/>
      <point x="805" y="1292"/>
      <point x="840" y="1260"/>
      <point x="840" y="1231" type="curve" smooth="yes"/>
      <point x="840" y="1220"/>
      <point x="835" y="1211"/>
      <point x="825" y="1203" type="curve" smooth="yes"/>
      <point x="533" y="966" type="line" smooth="yes"/>
      <point x="529" y="963"/>
      <point x="524" y="961"/>
      <point x="518" y="961" type="curve" smooth="yes"/>
      <point x="503" y="961"/>
      <point x="491" y="972"/>
      <point x="491" y="987" type="curve" smooth="yes"/>
      <point x="491" y="994"/>
      <point x="494" y="1000"/>
      <point x="499" y="1005" type="curve" smooth="yes"/>
    </contour>
  </outline>
</glyph>
<glyph name="uni030F" format="1">
  <advance width="358"/>
  <unicode hex="030F"/>
  <outline>
    <contour>
      <point x="185" y="775" type="move" name="_top"/>
    </contour>
    <contour>
      <point x="119" y="1005" type="line" smooth="yes"/>
      <point x="124" y="1000"/>
      <point x="127" y="994"/>
      <point x="127" y="987" type="curve" smooth="yes"/>
      <point x="127" y="972"/>
      <point x="115" y="961"/>
      <point x="100" y="961" type="curve" smooth="yes"/>
      <point x="94" y="961"/>
      <point x="89" y="963"/>
      <point x="85" y="966" type="curve" smooth="yes"/>
      <point x="-207" y="1203" type="line" smooth="yes"/>
      <point x="-217" y="1211"/>
      <point x="-222" y="1220"/>
      <point x="-222" y="1231" type="curve" smooth="yes"/>
      <point x="-222" y="1260"/>
      <point x="-187" y="1292"/>
      <point x="-158" y="1292" type="curve" smooth="yes"/>
      <point x="-149" y="1292"/>
      <point x="-140" y="1288"/>
      <point x="-133" y="1281" type="curve" smooth="yes"/>
    </contour>
    <contour>
      <point x="347" y="1005" type="line" smooth="yes"/>
      <point x="352" y="1000"/>
      <point x="355" y="994"/>
      <point x="355" y="987" type="curve" smooth="yes"/>
      <point x="355" y="972"/>
      <point x="343" y="961"/>
      <point x="328" y="961" type="curve" smooth="yes"/>
      <point x="322" y="961"/>
      <point x="317" y="963"/>
      <point x="313" y="966" type="curve" smooth="yes"/>
      <point x="21" y="1203" type="line" smooth="yes"/>
      <point x="11" y="1211"/>
      <point x="6" y="1220"/>
      <point x="6" y="1231" type="curve" smooth="yes"/>
      <point x="6" y="1260"/>
      <point x="41" y="1292"/>
      <point x="70" y="1292" type="curve" smooth="yes"/>
      <point x="79" y="1292"/>
      <point x="88" y="1288"/>
      <point x="95" y="1281" type="curve" smooth="yes"/>
    </contour>
  </outline>
</glyph>
<glyph name="uni0311" format="1">
  <advance width="654"/>
  <unicode hex="0311"/>
  <outline>
    <contour>
      <point x="359" y="775" type="move" name="_top"/>
    </contour>
    <contour>
      <point x="497" y="989" type="line"/>
      <point x="492" y="1044"/>
      <point x="464" y="1113"/>
      <point x="359" y="1113" type="curve" smooth="yes"/>
      <point x="251" y="1113"/>
      <point x="223" y="1043"/>
      <point x="221" y="989" type="curve"/>
      <point x="174" y="989" type="line"/>
      <point x="174" y="1062"/>
      <point x="193" y="1175"/>
      <point x="359" y="1175" type="curve" smooth="yes"/>
      <point x="520" y="1175"/>
      <point x="544" y="1069"/>
      <point x="544" y="989" type="curve"/>
    </contour>
  </outline>
</glyph>
<glyph name="uni0326" format="1">
  <advance width="379"/>
  <unicode hex="0326"/>
  <outline>
    <contour>
      <point x="195" y="0" type="move" name="_bot"/>
    </contour>
    <component base="comma" xOffset="39" yOffset="-200"/>
  </outline>
</glyph>
<glyph name="emdash" format="1">
  <advance width="1435"/>
  <unicode hex="2014"/>
  <outline>
    <contour>
      <point x="1350" y="228" type="curve" smooth="yes"/>
      <point x="1350" y="205"/>
      <point x="1339" y="184"/>
      <point x="1312" y="184" type="curve" smooth="yes"/>
      <point x="122" y="184" type="line" smooth="yes"/>
      <point x="95" y="184"/>
      <point x="85" y="205"/>
      <point x="85" y="228" type="curve" smooth="yes"/>
      <point x="85" y="251"/>
      <point x="95" y="272"/>
      <point x="122" y="272" type="curve" smooth="yes"/>
      <point x="1312" y="272" type="line" smooth="yes"/>
      <point x="1339" y="272"/>
      <point x="1350" y="251"/>
    </contour>
  </outline>
</glyph>
<glyph name="quoteleft" format="1">
  <advance width="311"/>
  <unicode hex="2018"/>
  <outline>
    <contour>
      <point x="241" y="1080" type="line"/>
      <point x="231" y="1080" type="line" smooth="yes"/>
      <point x="196" y="1080"/>
      <point x="187" y="1069"/>
      <point x="187" y="1054" type="curve" smooth="yes"/>
      <point x="187" y="1030"/>
      <point x="215" y="992"/>
      <point x="222" y="976" type="curve" smooth="yes"/>
      <point x="227" y="964"/>
      <point x="227" y="952"/>
      <point x="228" y="944" type="curve"/>
      <point x="228" y="901"/>
      <point x="194" y="874"/>
      <point x="155" y="874" type="curve" smooth="yes"/>
      <point x="115" y="874"/>
      <point x="72" y="905"/>
      <point x="72" y="985" type="curve" smooth="yes"/>
      <point x="72" y="1071"/>
      <point x="122" y="1134"/>
      <point x="206" y="1134" type="curve" smooth="yes"/>
      <point x="217" y="1134"/>
      <point x="229" y="1133"/>
      <point x="241" y="1131" type="curve"/>
    </contour>
  </outline>
</glyph>
<glyph name="bullet" format="1">
  <advance width="851"/>
  <unicode hex="2022"/>
  <outline>
    <contour>
      <point x="777" y="403" type="curve" smooth="yes"/>
      <point x="777" y="216"/>
      <point x="617" y="68"/>
      <point x="425" y="68" type="curve" smooth="yes"/>
      <point x="232" y="68"/>
      <point x="74" y="219"/>
      <point x="74" y="403" type="curve" smooth="yes"/>
      <point x="74" y="590"/>
      <point x="230" y="741"/>
      <point x="425" y="741" type="curve" smooth="yes"/>
      <point x="617" y="741"/>
      <point x="777" y="590"/>
    </contour>
  </outline>
</glyph>
<glyph name="guilsinglleft" format="1">
  <advance width="448"/>
  <unicode hex="2039"/>
  <outline>
    <contour>
      <point x="300" y="619" type="line" smooth="yes"/>
      <point x="308" y="627"/>
      <point x="317" y="631"/>
      <point x="327" y="631" type="curve" smooth="yes"/>
      <point x="347" y="631"/>
      <point x="365" y="615"/>
      <point x="365" y="596" type="curve" smooth="yes"/>
      <point x="365" y="587"/>
      <point x="361" y="578"/>
      <point x="354" y="571" type="curve" smooth="yes"/>
      <point x="116" y="334" type="line"/>
      <point x="354" y="97" type="line" smooth="yes"/>
      <point x="362" y="89"/>
      <point x="366" y="81"/>
      <point x="366" y="72" type="curve" smooth="yes"/>
      <point x="366" y="53"/>
      <point x="347" y="37"/>
      <point x="327" y="37" type="curve" smooth="yes"/>
      <point x="317" y="37"/>
      <point x="308" y="41"/>
      <point x="300" y="49" type="curve" smooth="yes"/>
      <point x="59" y="301" type="line" smooth="yes"/>
      <point x="48" y="312"/>
      <point x="42" y="324"/>
      <point x="42" y="335" type="curve" smooth="yes"/>
      <point x="42" y="343"/>
      <point x="47" y="355"/>
      <point x="59" y="367" type="curve" smooth="yes"/>
    </contour>
  </outline>
</glyph>
<glyph name="guilsinglright" format="1">
  <advance width="448"/>
  <unicode hex="203A"/>
  <outline>
    <contour>
      <point x="389" y="367" type="line" smooth="yes"/>
      <point x="401" y="355"/>
      <point x="405" y="343"/>
      <point x="406" y="335" type="curve"/>
      <point x="406" y="324"/>
      <point x="400" y="312"/>
      <point x="389" y="301" type="curve" smooth="yes"/>
      <point x="148" y="49" type="line" smooth="yes"/>
      <point x="140" y="41"/>
      <point x="131" y="37"/>
      <point x="121" y="37" type="curve" smooth="yes"/>
      <point x="101" y="37"/>
      <point x="82" y="53"/>
      <point x="82" y="72" type="curve" smooth="yes"/>
      <point x="82" y="81"/>
      <point x="86" y="89"/>
      <point x="94" y="97" type="curve" smooth="yes"/>
      <point x="332" y="334" type="line"/>
      <point x="94" y="571" type="line" smooth="yes"/>
      <point x="87" y="578"/>
      <point x="83" y="587"/>
      <point x="83" y="596" type="curve" smooth="yes"/>
      <point x="83" y="615"/>
      <point x="101" y="631"/>
      <point x="121" y="631" type="curve" smooth="yes"/>
      <point x="131" y="631"/>
      <point x="140" y="627"/>
      <point x="148" y="619" type="curve" smooth="yes"/>
    </contour>
  </outline>
</glyph>
<glyph name="commaaccent" format="1">
  <advance width="379"/>
  <outline>
    <contour>
      <point x="195" y="0" type="move" name="_bot"/>
    </contour>
    <component base="comma" xOffset="39" yOffset="-200"/>
  </outline>
</glyph>
<glyph name="macron" format="1">
  <advance width="677"/>
  <outline>
    <contour>
      <point x="337" y="776" type="move" name="_top"/>
    </contour>
    <contour>
      <point x="514" y="981" type="line" smooth="yes"/>
      <point x="533" y="981"/>
      <point x="541" y="964"/>
      <point x="541" y="952" type="curve" smooth="yes"/>
      <point x="541" y="941"/>
      <point x="533" y="926"/>
      <point x="514" y="926" type="curve" smooth="yes"/>
      <point x="162" y="926" type="line" smooth="yes"/>
      <point x="143" y="926"/>
      <point x="135" y="941"/>
      <point x="135" y="952" type="curve" smooth="yes"/>
      <point x="135" y="964"/>
      <point x="143" y="981"/>
      <point x="162" y="981" type="curve" smooth="yes"/>
    </contour>
  </outline>
</glyph>
<glyph name="periodcentered" format="1">
  <advance width="352"/>
  <outline>
    <contour>
      <point x="117" y="360" type="curve" smooth="yes"/>
      <point x="117" y="395"/>
      <point x="140" y="419"/>
      <point x="175" y="419" type="curve" smooth="yes"/>
      <point x="208" y="419"/>
      <point x="235" y="395"/>
      <point x="235" y="360" type="curve" smooth="yes"/>
      <point x="235" y="327"/>
      <point x="208" y="304"/>
      <point x="175" y="304" type="curve" smooth="yes"/>
      <point x="140" y="304"/>
      <point x="117" y="327"/>
    </contour>
  </outline>
</glyph>
